<svg xmlns="http://www.w3.org/2000/svg" width="105.095" height="89.269" viewBox="0 0 105.095 89.269">
  <g id="toursvg" transform="translate(0 355)">
    <path id="Path_12049" data-name="Path 12049" d="M0-313.886v0ZM67.241-354.07a11.844,11.844,0,0,1,.654,16.219,2.937,2.937,0,0,0-1.006,2.741v1.609l.8-.981a13.074,13.074,0,0,1,5.432-3.42c1.811-.553,4.8-.679,5.281-.2.4.4.377,3.269-.05,4.853-1.282,4.828-5.934,8.65-10.511,8.675h-.956v4.5l1.333-1.358a12.032,12.032,0,0,1,5.658-3.118c1.76-.377,4.149-.352,4.526.025.4.4.377,3.269-.05,4.853-1.308,4.9-5.96,8.675-10.712,8.675h-.754v4.25l1.333-1.308a11.535,11.535,0,0,1,5.331-3.068c1.785-.453,4.426-.5,4.853-.075.4.4.377,3.269-.05,4.853-1.282,4.828-5.934,8.65-10.511,8.675h-.956v4.275c0,4.074.025,4.275.478,4.275,1.509,0,7.368.6,10.033,1.031a79.675,79.675,0,0,1,11.441,2.716,7.394,7.394,0,0,0,2.288.578,11.855,11.855,0,0,0,.151-2.464c0-2.565-.025-2.615-1.961-2.615a11.08,11.08,0,0,1-5.054-1.961,11.307,11.307,0,0,1-4.828-8.4c-.377-3.319.126-3.772,3.646-3.244a11.475,11.475,0,0,1,6.714,3.319l1.484,1.484v-2.137c0-1.509-.1-2.188-.3-2.238-.176-.05-1.106-.2-2.037-.352a11.334,11.334,0,0,1-9.48-10.159,7.048,7.048,0,0,1,0-2.816c.226-.6.352-.654,1.961-.654a11.317,11.317,0,0,1,8.424,3.47l1.433,1.383v-2.188c0-1.534-.1-2.213-.3-2.263-.176-.05-1.081-.2-2.012-.352a11.352,11.352,0,0,1-8.374-6.186c-1.006-2.012-1.609-5.582-1.132-6.789.226-.6.352-.654,1.936-.654a11.3,11.3,0,0,1,8.273,3.319l1.609,1.509v-1.559a2.83,2.83,0,0,0-1.106-2.766,11.607,11.607,0,0,1-2.766-10.838,11.52,11.52,0,0,1,2.615-4.727c1.735-2.087,2.288-2.087,4.023,0a11.191,11.191,0,0,1,2.942,8.55A10.79,10.79,0,0,1,94.5-330.91c-1.157,1.509-1.207,1.66-1.207,3.244v1.634l1.509-1.383a10.992,10.992,0,0,1,8.323-3.143c1.484.075,1.609.126,1.836.78.427,1.182-.2,4.551-1.232,6.613a12.869,12.869,0,0,1-4.9,5.13,13.82,13.82,0,0,1-4.7,1.257h-.83v4.375l1.333-1.282a11.044,11.044,0,0,1,8.5-3.294c1.484.075,1.609.126,1.836.78.377,1.056-.2,4.5-1.081,6.362-1.71,3.671-6.035,6.639-9.606,6.639h-.981v4.225l1.333-1.308a11.621,11.621,0,0,1,6.764-3.194c3.52-.528,4.023,0,3.52,3.6a11.566,11.566,0,0,1-3.344,6.789,11.681,11.681,0,0,1-5.934,3.118c-2.59.3-2.364-.025-2.288,3.269l.075,2.892,3.143,1.333c4.275,1.811,8.2,3.822,8.374,4.275a1.232,1.232,0,0,1-.277.93l-.453.528-2.766-1.383a83.853,83.853,0,0,0-26.378-8.4,93.908,93.908,0,0,0-18.608.025,83.861,83.861,0,0,0-25.75,8.223,13.117,13.117,0,0,1-3.194,1.308,1.034,1.034,0,0,1-.352-1.458,73.738,73.738,0,0,1,8.826-4.375l2.364-1.006v-5.935l-1.634-.176a11.72,11.72,0,0,1-9.53-8.776c-.352-1.534-.352-4.074.025-4.451a3.244,3.244,0,0,1,1.634-.3,11.825,11.825,0,0,1,8.3,3.395l1.333,1.358v-4.5h-.8a9.666,9.666,0,0,1-2.112-.352,11.818,11.818,0,0,1-8.374-8.65c-.377-1.76-.352-4.149.025-4.526.427-.427,3.068-.377,4.8.075a10.17,10.17,0,0,1,5,2.842l1.458,1.383v-4.25l-1.785-.277a11.581,11.581,0,0,1-9.505-8.826c-.377-1.76-.352-4.149.025-4.526s2.917-.377,4.451-.025a11.97,11.97,0,0,1,5.306,2.917l1.509,1.383v-1.559a2.863,2.863,0,0,0-1.081-2.741,11.5,11.5,0,0,1,.277-15.565c1.66-1.785,2.163-1.76,3.822.226a11.168,11.168,0,0,1,2.64,4.929,11.054,11.054,0,0,1-2.389,10.134,3.1,3.1,0,0,0-1.006,2.816v1.609l1.257-1.182a11.9,11.9,0,0,1,5.155-2.892c1.584-.427,4.451-.453,4.853-.05s.377,3.269-.05,4.853a11.7,11.7,0,0,1-9.656,8.575l-1.559.176v4.25l.679-.83a13.383,13.383,0,0,1,5.306-3.244c1.811-.553,4.8-.679,5.281-.2.4.4.377,3.269-.05,4.853a11.623,11.623,0,0,1-8.323,8.323,9.285,9.285,0,0,1-2.062.352h-.83v4.1l1.383-1.308a13.678,13.678,0,0,1,2.967-2.062c1.961-.905,5.582-1.484,6.588-1.031.578.277.629.4.629,2.137a11.118,11.118,0,0,1-3.646,8.449,11.33,11.33,0,0,1-6.211,2.992l-1.584.176-.075,2.565-.075,2.54,1.836-.629a90.8,90.8,0,0,1,11.517-2.816c2.64-.427,8.726-1.031,10.36-1.031.427,0,.453-.327.453-4.275v-4.275h-.93a9.772,9.772,0,0,1-2.213-.352,11.588,11.588,0,0,1-8.675-11.215,4.2,4.2,0,0,1,.3-1.961c.427-.428,3.068-.377,4.853.075a11.741,11.741,0,0,1,5.356,3.068l1.308,1.308v-4.25h-.754c-4.727,0-9.4-3.8-10.712-8.675-.427-1.584-.453-4.451-.05-4.853.377-.377,2.766-.4,4.526-.025a12.032,12.032,0,0,1,5.658,3.118l1.333,1.358v-4.5h-.93c-4.6-.025-9.254-3.847-10.536-8.675-.427-1.584-.453-4.451-.05-4.853.478-.478,3.47-.352,5.281.2a13.074,13.074,0,0,1,5.432,3.42l.8.981v-1.584c0-1.509-.05-1.66-1.157-2.992a11.523,11.523,0,0,1-2.489-4.778,11.335,11.335,0,0,1,.855-7.871c.754-1.559,3.143-4.275,3.772-4.275A3.561,3.561,0,0,1,67.241-354.07Z"/>
    <path id="Path_12050" data-name="Path 12050" d="M251.665-343.782a9.626,9.626,0,0,0,0,11.819l.905,1.031.6-.578a9.483,9.483,0,0,0,1.383-2.163,10.556,10.556,0,0,0,.578-7.141c-.4-1.433-1.785-3.722-2.313-3.9C252.671-344.762,252.143-344.335,251.665-343.782Z" transform="translate(-186.863 -7.698)"/>
    <path id="Path_12051" data-name="Path 12051" d="M147.583-314.044a9.556,9.556,0,0,0,.05,11.819l.956,1.056.93-1.081a8.691,8.691,0,0,0,2.037-6.035,6.054,6.054,0,0,0-.78-3.772,10.412,10.412,0,0,0-1.534-2.339l-.729-.7Z" transform="translate(-108.959 -29.867)"/>
    <path id="Path_12052" data-name="Path 12052" d="M356.361-313.944a7.864,7.864,0,0,0-1.861,5.859c0,2.238.075,2.665.679,3.9a12.57,12.57,0,0,0,1.458,2.263l.754.88.754-.88a8.653,8.653,0,0,0,2.213-5.758,7.721,7.721,0,0,0-.427-3.6c-.553-1.433-2.112-3.722-2.54-3.722C357.241-315,356.788-314.522,356.361-313.944Z" transform="translate(-265.357 -29.942)"/>
    <path id="Path_12053" data-name="Path 12053" d="M218.826-279.816a9.367,9.367,0,0,0,8.323,8.349l1.509.126-.151-1.232a9.635,9.635,0,0,0-8.575-8.575L218.7-281.3Z" transform="translate(-163.706 -55.167)"/>
    <path id="Path_12054" data-name="Path 12054" d="M272.515-280.522a8.678,8.678,0,0,0-4.325,2.816,10,10,0,0,0-2.339,5.356l-.151,1.232,1.509-.126a9.389,9.389,0,0,0,8.323-8.323l.1-1.433-.83.025A9.793,9.793,0,0,0,272.515-280.522Z" transform="translate(-198.887 -55.392)"/>
    <path id="Path_12055" data-name="Path 12055" d="M114.826-248.665a9.4,9.4,0,0,0,8.223,8.2l1.358.126-.126-1.509c-.277-4.023-3.948-7.72-8.223-8.273L114.7-250.3Z" transform="translate(-85.857 -78.372)"/>
    <path id="Path_12056" data-name="Path 12056" d="M168.789-249.6c-3.772,1.006-6.789,4.652-6.789,8.172v1.282l1.358-.1a10.023,10.023,0,0,0,5.683-2.867,9.658,9.658,0,0,0,2.464-5.457l.1-1.433-.7.025A11.1,11.1,0,0,0,168.789-249.6Z" transform="translate(-121.263 -78.597)"/>
    <path id="Path_12057" data-name="Path 12057" d="M324.064-248.567a9.658,9.658,0,0,0,2.464,5.457,10.023,10.023,0,0,0,5.683,2.867c1.282.1,1.358.075,1.408-.478a9.07,9.07,0,0,0-4.426-7.871A12.661,12.661,0,0,0,324.567-250C323.989-250,323.964-249.95,324.064-248.567Z" transform="translate(-242.541 -78.597)"/>
    <path id="Path_12058" data-name="Path 12058" d="M377.992-249.723a9.623,9.623,0,0,0-7.167,8.1l-.126,1.509,1.509-.126c4.074-.277,7.77-4,8.273-8.323l.176-1.433-.855.025A12.022,12.022,0,0,0,377.992-249.723Z" transform="translate(-277.484 -78.597)"/>
    <path id="Path_12059" data-name="Path 12059" d="M218.851-225.741a9.5,9.5,0,0,0,8.323,8.223l1.484.176-.151-1.433a9.635,9.635,0,0,0-8.3-8.4L218.7-227.3Z" transform="translate(-163.706 -95.588)"/>
    <path id="Path_12060" data-name="Path 12060" d="M273.168-226.774a10.333,10.333,0,0,0-6.613,5.683,14.684,14.684,0,0,0-.7,2.741l-.151,1.232,1.634-.126a9.358,9.358,0,0,0,8.2-8.323l.1-1.433-.83.025A11.169,11.169,0,0,0,273.168-226.774Z" transform="translate(-198.887 -95.813)"/>
    <path id="Path_12061" data-name="Path 12061" d="M114.826-194.665a9.4,9.4,0,0,0,8.223,8.2l1.358.126-.126-1.509c-.277-4.023-4.023-7.8-8.248-8.3L114.7-196.3Z" transform="translate(-85.857 -118.793)"/>
    <path id="Path_12062" data-name="Path 12062" d="M168.488-195.522a8.679,8.679,0,0,0-4.325,2.816A8.364,8.364,0,0,0,162-187.4v1.257l1.358-.1a10.023,10.023,0,0,0,5.683-2.867,9.658,9.658,0,0,0,2.464-5.457l.1-1.433-.83.025A9.794,9.794,0,0,0,168.488-195.522Z" transform="translate(-121.263 -119.018)"/>
    <path id="Path_12063" data-name="Path 12063" d="M323.826-194.816a9.563,9.563,0,0,0,2.464,5.482,10.124,10.124,0,0,0,5.633,2.867c1.308.1,1.333.075,1.484-.6A9.256,9.256,0,0,0,332.2-191.6a10.072,10.072,0,0,0-7.267-4.551L323.7-196.3Z" transform="translate(-242.302 -118.793)"/>
    <path id="Path_12064" data-name="Path 12064" d="M377.691-195.648a9.458,9.458,0,0,0-6.865,8.022l-.126,1.509,1.559-.151a9.454,9.454,0,0,0,8.223-8.3l.176-1.433-.981.025A7.811,7.811,0,0,0,377.691-195.648Z" transform="translate(-277.484 -119.018)"/>
    <path id="Path_12065" data-name="Path 12065" d="M218.826-172.816a9.47,9.47,0,0,0,8,8.348c1.785.251,1.911.126,1.66-1.458a9.714,9.714,0,0,0-8.55-8.223L218.7-174.3Z" transform="translate(-163.706 -135.261)"/>
    <path id="Path_12066" data-name="Path 12066" d="M272.746-173.522a8.678,8.678,0,0,0-4.325,2.816,10.13,10.13,0,0,0-2.313,5c-.251,1.584-.126,1.71,1.66,1.458a9.469,9.469,0,0,0,8-8.323l.1-1.433-.83.025A9.793,9.793,0,0,0,272.746-173.522Z" transform="translate(-199.119 -135.486)"/>
    <path id="Path_12067" data-name="Path 12067" d="M114.826-140.791a9.576,9.576,0,0,0,8.223,8.273l1.358.176-.126-1.484a9.428,9.428,0,0,0-8.047-8.348L114.7-142.3Z" transform="translate(-85.857 -159.214)"/>
    <path id="Path_12068" data-name="Path 12068" d="M168.06-141.5c-3.445,1.257-6.06,4.627-6.06,7.9v1.484l1.333-.176a9.547,9.547,0,0,0,8.147-8.172l.151-1.534h-1.106A9.76,9.76,0,0,0,168.06-141.5Z" transform="translate(-121.263 -159.439)"/>
    <path id="Path_12069" data-name="Path 12069" d="M323.851-140.741a9.573,9.573,0,0,0,8.172,8.223l1.308.176.05-.729a6.743,6.743,0,0,0-.78-3.747,9.393,9.393,0,0,0-7.393-5.356L323.7-142.3Z" transform="translate(-242.302 -159.214)"/>
    <path id="Path_12070" data-name="Path 12070" d="M377.263-141.648a9.544,9.544,0,0,0-6.437,8.047l-.126,1.484,1.433-.176a10.108,10.108,0,0,0,7.091-4.577,11.062,11.062,0,0,0,1.358-4.451c0-.654-.05-.679-1.182-.679A9.037,9.037,0,0,0,377.263-141.648Z" transform="translate(-277.484 -159.439)"/>
  </g>
</svg>
