<svg width="56" height="70" viewBox="0 0 56 70" fill="none" xmlns="http://www.w3.org/2000/svg">
<path d="M3.35089 0.180773C2.11995 0.508986 0.861658 1.60303 0.300896 2.83383L0 3.47658V34.9987V66.5208L0.300896 67.1636C0.71121 68.0662 1.73699 69.1192 2.65336 69.5568L3.41928 69.9397L27.5594 69.9807C54.517 70.0218 52.6842 70.0901 54.0383 69.0782C54.7632 68.5175 55.488 67.5465 55.7616 66.7533C55.9941 66.0695 56.1035 5.32278 55.871 3.9689C55.5427 2.068 54.3939 0.74147 52.5885 0.208124C51.932 0.0166664 49.3744 -0.0106847 27.915 0.00299084C9.45088 0.00299084 3.82959 0.0440175 3.35089 0.180773ZM52.3149 2.61502C53.0535 2.99793 53.4091 3.4629 53.5596 4.24241C53.71 5.02191 53.71 64.9755 53.5596 65.755C53.4091 66.5345 53.0535 66.9995 52.3149 67.3687L51.7132 67.6833H27.9423C8.05582 67.6833 4.08946 67.6559 3.72017 67.4918C3.18677 67.273 2.59865 66.6576 2.40717 66.1379C2.20201 65.5909 2.20201 4.40652 2.40717 3.85949C2.59865 3.3535 3.18677 2.7381 3.69282 2.50562C4.03475 2.35518 8.32936 2.32783 27.9013 2.31416H51.7132L52.3149 2.61502Z" fill="url(#paint0_linear_112_54)"/>
<path d="M6.01813 4.89895C5.36163 5.19981 5.07441 5.50067 4.78719 6.18445C4.60939 6.60839 4.58203 7.67508 4.58203 13.4598C4.58203 18.848 4.62306 20.325 4.77351 20.6805C5.00602 21.2686 5.84033 21.9797 6.38741 22.0754C6.6336 22.1165 16.5085 22.1301 28.3255 22.1165L49.8122 22.0754L50.3046 21.6925C51.262 20.954 51.2347 21.3096 51.1936 13.2957L51.1526 6.07505L50.8243 5.61008C50.6465 5.36392 50.2499 5.0357 49.9353 4.89895C49.4019 4.65279 48.5539 4.63911 27.9699 4.63911C7.49526 4.63911 6.53786 4.65279 6.01813 4.89895ZM48.8959 13.3915V19.819H27.9015H6.90714V13.3915V6.96396H27.9015H48.8959V13.3915Z" fill="url(#paint1_linear_112_54)"/>
<path d="M9.91633 9.46597C9.19144 9.83526 9.06835 10.779 9.67014 11.3397C9.93 11.5859 10.1488 11.6133 11.5713 11.6133C12.98 11.6133 13.1988 11.5859 13.5271 11.3261C13.7869 11.1209 13.8827 10.9157 13.8827 10.5875C13.8827 9.94467 13.7733 9.71216 13.3219 9.49333C12.8296 9.23346 10.4087 9.21979 9.91633 9.46597Z" fill="url(#paint2_linear_112_54)"/>
<path d="M16.863 9.50701C16.2339 9.83526 16.1382 10.7379 16.6579 11.2987L16.9314 11.6133H23.2776C29.405 11.6133 29.6238 11.5996 29.8836 11.3397C30.4718 10.7516 30.3487 9.83526 29.6101 9.46597C29.3502 9.3292 27.8047 9.28817 23.2502 9.30185C18.1897 9.30185 17.1776 9.3292 16.863 9.50701Z" fill="url(#paint3_linear_112_54)"/>
<path d="M6.89344 25.8901C6.12752 26.1637 5.48469 26.7244 5.04703 27.5039L4.65039 28.2287V31.5108C4.65039 35.2169 4.69142 35.4083 5.78559 36.393C6.7977 37.3092 7.01653 37.3366 11.8309 37.2955L16.1392 37.2545L16.7683 36.8853C17.4932 36.4613 18.0266 35.8733 18.3685 35.1485C18.6968 34.4237 18.7105 28.6116 18.3822 27.8731C18.0266 27.1073 17.3017 26.3688 16.5495 26.0269C15.8793 25.7124 15.7836 25.6987 11.6257 25.7124C8.53469 25.7124 7.24904 25.7534 6.89344 25.8901ZM15.8519 28.3107L16.2076 28.5842V31.4561C16.2076 34.328 16.2076 34.328 15.8656 34.6562L15.5374 34.9981H11.6257H7.70039L7.30375 34.6015L6.90711 34.2049V31.5381V28.8714L7.26272 28.4475L7.61832 28.0235H11.5573C15.3322 28.0235 15.4963 28.0372 15.8519 28.3107Z" fill="url(#paint4_linear_112_54)"/>
<path d="M22.9783 26.0277C22.1577 26.4106 21.6516 26.9303 21.2823 27.7508C21.0225 28.3115 20.9951 28.6398 20.9951 31.5253V34.698L21.3781 35.4228C21.8157 36.257 22.6637 36.9682 23.4707 37.187C23.8126 37.2827 25.5359 37.3237 28.2166 37.2964C32.0189 37.2553 32.4702 37.228 32.9352 36.9955C33.6054 36.6673 34.1935 36.0792 34.5765 35.3544C34.85 34.8348 34.8774 34.5886 34.9184 31.7441C34.9731 28.3526 34.8911 27.9013 34.1251 26.9303C33.8926 26.6431 33.3866 26.2465 33.0036 26.0551L32.2924 25.6995H27.9841C23.7305 25.6995 23.6485 25.7132 22.9783 26.0277ZM32.0873 28.2021C32.566 28.5714 32.6207 28.9406 32.6207 31.58V34.2057L32.224 34.6023L31.8274 34.9989H27.9021H23.9904L23.6622 34.657C23.3202 34.3288 23.3202 34.3151 23.3202 31.5116C23.3202 28.7081 23.3202 28.6945 23.6622 28.3662L23.9904 28.0244H27.9294C30.8153 28.038 31.9231 28.0791 32.0873 28.2021Z" fill="url(#paint5_linear_112_54)"/>
<path d="M39.6773 25.8363C39.0755 26.0277 38.2823 26.6295 37.8993 27.2038C37.3249 28.0654 37.2428 28.6945 37.2975 31.8672C37.3385 34.5613 37.3659 34.8348 37.6394 35.3408C38.0224 36.0656 38.7063 36.6947 39.4585 37.0365C40.0329 37.2964 40.3475 37.3237 44.1771 37.3237C46.598 37.3237 48.4854 37.269 48.7863 37.187C49.5932 36.9545 50.4275 36.2434 50.8515 35.4228L51.2208 34.6707V31.4979C51.2208 28.0107 51.1798 27.7645 50.3728 26.8483C50.1266 26.5611 49.6206 26.1918 49.2376 26.0277C48.5675 25.7132 48.4854 25.6995 44.3139 25.7132C41.9888 25.7132 39.8962 25.7816 39.6773 25.8363ZM48.5538 28.3663C48.8957 28.6945 48.8957 28.7081 48.8957 31.5116C48.8957 34.3151 48.8957 34.3288 48.5538 34.657L48.2255 34.9989H44.3139H40.3885L39.9919 34.6023L39.5953 34.2057V31.58C39.5953 28.9406 39.65 28.5714 40.1287 28.2021C40.2928 28.0791 41.4006 28.038 44.2865 28.0244H48.2255L48.5538 28.3663Z" fill="url(#paint6_linear_112_54)"/>
<path d="M6.90714 39.9218C5.92239 40.2636 5.08809 41.1252 4.80087 42.1098C4.51365 43.0945 4.48629 47.9083 4.77351 48.8519C5.03338 49.7271 5.68988 50.5066 6.52418 50.9169L7.23539 51.2725H11.6121C16.6042 51.2725 16.6452 51.2588 17.6574 50.1511C18.5327 49.1938 18.6011 48.8792 18.6011 45.4604V42.4517L18.2181 41.6722C17.9993 41.2346 17.6026 40.7013 17.3291 40.4688C16.4264 39.7166 15.893 39.6482 11.571 39.6482C8.09705 39.6619 7.57732 39.6893 6.90714 39.9218ZM15.6468 42.1782C15.8657 42.2876 16.0708 42.4791 16.1255 42.5885C16.1665 42.7116 16.2076 44.0518 16.2076 45.5698C16.2076 48.1955 16.1939 48.3322 15.9067 48.6331L15.6195 48.9476H11.6805C9.51947 48.9476 7.64571 48.9066 7.52261 48.8656C7.01656 48.6604 6.90714 48.0997 6.90714 45.5014C6.90714 42.821 6.98921 42.4517 7.591 42.1509C8.12441 41.8774 15.1271 41.9047 15.6468 42.1782Z" fill="url(#paint7_linear_112_54)"/>
<path d="M23.5117 39.7987C22.6637 40.0448 21.7747 40.7696 21.3781 41.5492L20.9951 42.274V45.3783C20.9951 47.0741 21.0635 48.6878 21.1319 48.9613C21.3234 49.6314 22.2261 50.6297 22.9509 50.9853C23.5117 51.2588 23.7579 51.2725 27.9157 51.2725C32.2103 51.2725 32.2924 51.2588 32.9763 50.9442C33.7969 50.5613 34.4534 49.8229 34.7543 48.9203C34.9321 48.3869 34.9594 47.7168 34.9184 45.2279C34.8774 41.8363 34.809 41.5765 33.8242 40.6602C32.8258 39.7166 32.8669 39.7166 28.1756 39.6893C25.8505 39.6756 23.7442 39.7166 23.5117 39.7987ZM32.224 42.3834L32.6343 42.7936L32.5933 45.6108C32.5523 48.3869 32.5523 48.4279 32.224 48.6878C31.9231 48.9339 31.6359 48.9476 27.9021 48.9476H23.881L23.6074 48.5921C23.3339 48.2502 23.3202 48.0587 23.3202 45.474C23.3202 42.5885 23.3476 42.4517 23.9357 42.1372C24.1135 42.0278 25.5222 41.9868 28.0115 41.9731H31.8274L32.224 42.3834Z" fill="url(#paint8_linear_112_54)"/>
<path d="M39.8675 39.7713C38.9238 40.0585 38.0895 40.7696 37.5971 41.6996C37.3646 42.1098 37.3373 42.5748 37.2962 45.1595C37.2415 48.4963 37.3509 49.1801 38.0895 50.069C38.3083 50.3425 38.8144 50.7254 39.211 50.9169L39.9222 51.2725H44.2989C49.25 51.2725 49.3458 51.2588 50.3305 50.1511C51.1922 49.2075 51.2195 49.0297 51.2195 45.4877C51.2195 42.3287 51.2195 42.2876 50.8639 41.5902C50.6724 41.1936 50.2895 40.6876 50.0159 40.4688C49.1133 39.7166 48.5798 39.6482 44.1895 39.6619C42.0012 39.6619 40.059 39.7166 39.8675 39.7713ZM48.3337 42.1782C48.5525 42.2876 48.7577 42.4791 48.8124 42.5885C48.8534 42.7116 48.8944 44.0518 48.8944 45.5698C48.8944 48.1955 48.8807 48.3322 48.5935 48.6331L48.3063 48.9476H44.3673C42.2063 48.9476 40.3326 48.9066 40.2095 48.8656C39.6897 48.6604 39.594 48.1134 39.594 45.433C39.594 42.6705 39.6624 42.3834 40.3326 42.1098C40.483 42.0415 42.2747 41.9868 44.2852 41.9868C47.2532 41.9731 48.0191 42.0141 48.3337 42.1782Z" fill="url(#paint9_linear_112_54)"/>
<path d="M6.52418 54.0897C6.12754 54.2812 5.62149 54.6641 5.40266 54.9376C4.70513 55.7855 4.58203 56.4693 4.58203 59.4779C4.58203 62.76 4.70513 63.3344 5.66252 64.2917C6.79772 65.4267 6.08651 65.372 20.1192 65.331C33.8237 65.29 32.7569 65.3584 33.8237 64.3464C34.8085 63.4301 34.8768 63.1703 34.9179 59.7787C34.9589 57.2898 34.9315 56.6197 34.7537 56.0864C34.4528 55.1838 33.7963 54.4453 32.9757 54.0624L32.2782 53.7342H19.7499H7.23539L6.52418 54.0897ZM32.2235 56.3188C32.5517 56.5787 32.5517 56.6334 32.5928 59.3822L32.6338 62.1856L32.2919 62.5686L31.9636 62.9651H19.7773H7.60467L7.2901 62.6506C6.9892 62.3497 6.97553 62.2403 6.93449 59.7924C6.87979 57.0163 6.92082 56.7291 7.31745 56.3325C7.591 56.059 7.82351 56.059 19.7499 56.059C31.5123 56.059 31.9226 56.0727 32.2235 56.3188Z" fill="url(#paint10_linear_112_54)"/>
<path d="M39.211 54.0903C38.8144 54.2817 38.3083 54.6646 38.0895 54.9382C37.3509 55.8271 37.2415 56.5108 37.2962 59.8477C37.3373 63.1708 37.4056 63.4307 38.3904 64.3469C39.3752 65.2905 39.3888 65.2905 43.8339 65.3316C46.5009 65.3726 48.1011 65.3316 48.5525 65.2222C49.4689 65.017 50.2348 64.47 50.7408 63.6495L51.1511 62.993L51.1922 59.7656C51.2195 57.7553 51.1785 56.3467 51.0964 56.0459C50.8913 55.3758 49.9749 54.3638 49.2637 54.0219C48.7029 53.7484 48.4568 53.7347 44.2989 53.7347H39.9222L39.211 54.0903ZM48.5798 56.3604C48.8944 56.6476 48.8944 56.7023 48.8944 59.5058C48.8944 62.1588 48.8807 62.364 48.6209 62.6238C48.4704 62.7742 48.2106 62.9247 48.0464 62.9657C47.8686 63.0067 46.0496 63.0341 43.998 63.0067L40.2505 62.9657L39.9222 62.5828C39.594 62.1999 39.594 62.1452 39.594 59.6015C39.594 56.9621 39.7034 56.3467 40.1684 56.1553C40.2642 56.1142 42.1243 56.0732 44.2989 56.0732C48.1832 56.0595 48.2653 56.0595 48.5798 56.3604Z" fill="url(#paint11_linear_112_54)"/>
<defs>
<linearGradient id="paint0_linear_112_54" x1="56.95" y1="1.9282" x2="19.7042" y2="79.3086" gradientUnits="userSpaceOnUse">
<stop stop-color="#2DB4E5"/>
<stop offset="1" stop-color="#103056"/>
</linearGradient>
<linearGradient id="paint1_linear_112_54" x1="51.9999" y1="5.12068" x2="48.6334" y2="28.4378" gradientUnits="userSpaceOnUse">
<stop stop-color="#2DB4E5"/>
<stop offset="1" stop-color="#103056"/>
</linearGradient>
<linearGradient id="paint2_linear_112_54" x1="13.9607" y1="9.35358" x2="13.3673" y2="12.4019" gradientUnits="userSpaceOnUse">
<stop stop-color="#2DB4E5"/>
<stop offset="1" stop-color="#103056"/>
</linearGradient>
<linearGradient id="paint3_linear_112_54" x1="30.4918" y1="9.3631" x2="30.2912" y2="12.5008" gradientUnits="userSpaceOnUse">
<stop stop-color="#2DB4E5"/>
<stop offset="1" stop-color="#103056"/>
</linearGradient>
<linearGradient id="paint4_linear_112_54" x1="18.8587" y1="26.0284" x2="14.2791" y2="40.3553" gradientUnits="userSpaceOnUse">
<stop stop-color="#2DB4E5"/>
<stop offset="1" stop-color="#103056"/>
</linearGradient>
<linearGradient id="paint5_linear_112_54" x1="35.1684" y1="26.0192" x2="30.5742" y2="40.3471" gradientUnits="userSpaceOnUse">
<stop stop-color="#2DB4E5"/>
<stop offset="1" stop-color="#103056"/>
</linearGradient>
<linearGradient id="paint6_linear_112_54" x1="51.4573" y1="26.0297" x2="46.857" y2="40.3665" gradientUnits="userSpaceOnUse">
<stop stop-color="#2DB4E5"/>
<stop offset="1" stop-color="#103056"/>
</linearGradient>
<linearGradient id="paint7_linear_112_54" x1="18.8391" y1="39.9684" x2="14.2561" y2="54.3332" gradientUnits="userSpaceOnUse">
<stop stop-color="#2DB4E5"/>
<stop offset="1" stop-color="#103056"/>
</linearGradient>
<linearGradient id="paint8_linear_112_54" x1="35.1716" y1="40.0058" x2="30.5922" y2="54.3148" gradientUnits="userSpaceOnUse">
<stop stop-color="#2DB4E5"/>
<stop offset="1" stop-color="#103056"/>
</linearGradient>
<linearGradient id="paint9_linear_112_54" x1="51.4559" y1="39.9803" x2="46.8565" y2="54.3148" gradientUnits="userSpaceOnUse">
<stop stop-color="#2DB4E5"/>
<stop offset="1" stop-color="#103056"/>
</linearGradient>
<linearGradient id="paint10_linear_112_54" x1="35.4495" y1="54.0541" x2="33.1693" y2="69.5304" gradientUnits="userSpaceOnUse">
<stop stop-color="#2DB4E5"/>
<stop offset="1" stop-color="#103056"/>
</linearGradient>
<linearGradient id="paint11_linear_112_54" x1="51.4367" y1="54.0546" x2="46.8318" y2="68.3858" gradientUnits="userSpaceOnUse">
<stop stop-color="#2DB4E5"/>
<stop offset="1" stop-color="#103056"/>
</linearGradient>
</defs>
</svg>
