<svg width="512" height="512" viewBox="0 0 512 512" fill="none" xmlns="http://www.w3.org/2000/svg">
<g clip-path="url(#clip0_906_498)">
<rect x="67.0527" y="186" width="402" height="104" fill="white"/>
<path d="M256.052 448C397.452 448 512.052 354.9 512.052 240C512.052 125.1 397.452 32 256.052 32C114.652 32 0.0519538 125.1 0.0519538 240C0.0519538 285.1 17.752 326.8 47.752 360.9C45.852 385.4 36.352 407.2 26.352 423.8C20.852 433 15.252 440.4 11.152 445.4C9.05195 447.9 7.45195 449.8 6.25195 451.1C5.65195 451.7 5.25195 452.2 4.95195 452.5L4.65195 452.8C0.0519538 457.4 -1.24805 464.2 1.25195 470.2C3.75195 476.2 9.55195 480.1 16.052 480.1C44.752 480.1 73.652 471.2 97.652 460.8C120.552 450.8 140.052 438.9 151.952 430.2C183.752 441.7 218.952 448.1 256.052 448.1V448ZM128.052 208C136.539 208 144.678 211.371 150.679 217.373C156.681 223.374 160.052 231.513 160.052 240C160.052 248.487 156.681 256.626 150.679 262.627C144.678 268.629 136.539 272 128.052 272C119.565 272 111.426 268.629 105.425 262.627C99.4234 256.626 96.052 248.487 96.052 240C96.052 231.513 99.4234 223.374 105.425 217.373C111.426 211.371 119.565 208 128.052 208ZM256.052 208C264.539 208 272.678 211.371 278.679 217.373C284.681 223.374 288.052 231.513 288.052 240C288.052 248.487 284.681 256.626 278.679 262.627C272.678 268.629 264.539 272 256.052 272C247.565 272 239.426 268.629 233.425 262.627C227.423 256.626 224.052 248.487 224.052 240C224.052 231.513 227.423 223.374 233.425 217.373C239.426 211.371 247.565 208 256.052 208ZM352.052 240C352.052 231.513 355.423 223.374 361.425 217.373C367.426 211.371 375.565 208 384.052 208C392.539 208 400.678 211.371 406.679 217.373C412.681 223.374 416.052 231.513 416.052 240C416.052 248.487 412.681 256.626 406.679 262.627C400.678 268.629 392.539 272 384.052 272C375.565 272 367.426 268.629 361.425 262.627C355.423 256.626 352.052 248.487 352.052 240Z" fill="#007bff"/>
</g>
<defs>
<clipPath id="clip0_906_498">
<rect width="512" height="512" fill="white"/>
</clipPath>
</defs>
</svg>
