<svg xmlns="http://www.w3.org/2000/svg" width="100.002" height="100" viewBox="0 0 100.002 100">
  <path id="Icon_1" d="M50,100a50,50,0,1,1,50-50A49.981,49.981,0,0,1,50,100ZM50,2.35A47.646,47.646,0,1,0,97.645,50,47.649,47.649,0,0,0,50,2.35Zm42.37,61.9-.259.053-.146-.18a37.742,37.742,0,0,0,1.665-10.665c-.021-6.095-2.5-9.833-5.681-9.833a3.237,3.237,0,0,0-3.321,3.463c0,3.74,4.571,4.018,4.571,12.19a32.3,32.3,0,0,1-1.8,9.971c-5.126,17.309-21.472,25.342-37.4,25.342-7.344,0-12.56-1.508-14.114-2.2a.23.23,0,0,1-.067-.278l.2-.141A34.564,34.564,0,0,0,46.68,93.625c6.095,0,9.7-2.491,9.7-5.544a3.429,3.429,0,0,0-3.465-3.456c-3.74,0-4.018,4.707-12.049,4.707a33.182,33.182,0,0,1-10.113-1.8C13.573,82.273,5.387,66.063,5.4,50A46.229,46.229,0,0,1,7.635,35.882l.248-.042.146.18A36.465,36.465,0,0,0,6.372,46.675c0,6.095,2.491,9.694,5.676,9.694a3.283,3.283,0,0,0,3.328-3.324c0-3.74-4.573-4.154-4.573-12.19a33.14,33.14,0,0,1,1.8-10.11C17.868,13.573,34.074,5.521,50,5.4A41.859,41.859,0,0,1,64.127,7.753l.044.25-.183.139A30.731,30.731,0,0,0,53.325,6.37c-5.956,0-9.694,2.491-9.694,5.679a3.317,3.317,0,0,0,3.463,3.326c3.74,0,4.018-4.573,12.049-4.573a33.1,33.1,0,0,1,10.113,1.8C86.568,17.866,94.458,34.212,94.6,50A43.267,43.267,0,0,1,92.374,64.252Zm-23.813-11.9c-4.707,0-8.311,3.465-8.311,7.617,0,3.463,2.075,6.229,4.848,6.229a1.776,1.776,0,0,0,1.938-1.8c0-1.8-2.387-2.239-2.2-4.931a3.372,3.372,0,0,1,3.449-2.963c3.326,0,4.881,3.222,4.881,6.544-.141,5.126-3.909,8.692-8.341,8.692-5.822,0-9.555-5.542-9.555-11.5,0-8.866,5.815-12.329,8.861-13.157.032,0,7.966,1.416,7.719-2.082-.109-1.536-2.4-2.128-4.057-2.2a11.277,11.277,0,0,0-3.687.59,4.486,4.486,0,0,1-2.049-2.547c5.679-4.293,9.692-8.447,9.692-13.157A4.543,4.543,0,0,0,66.9,22.989c-5.679,0-9.974,7.2-9.974,13.712a11.809,11.809,0,0,0,.28,3.19,132.241,132.241,0,0,1-11.13,7.173,25.064,25.064,0,0,1,.532-4.2c1.663-1.8,3.944-4.5,3.944-6.574a1.635,1.635,0,0,0-1.663-1.8c-2.769,0-4.848,4.157-5.4,7.064-1.249,1.524-3.74,3.467-5.82,3.467a2.523,2.523,0,0,1-2.357-2.077c5.264-1.8,11.776-9.007,11.776-15.516,0-1.385-.553-4.432-4.709-4.432-6.234,0-11.5,9.28-11.5,16.48-2.216,0-3.046-2.355-3.046-4.152a27.421,27.421,0,0,1,.692-4.154,1.121,1.121,0,0,0-1.108-1.249c-2.08,0-3.326,2.769-3.326,5.956.141,4.434,3.049,7.2,6.928,7.48.551,2.632,2.907,5.123,5.815,5.123a8.478,8.478,0,0,0,5.542-1.936c-.141.969-.278,1.8-.416,2.63-6.095,3.187-10.527,5.4-14.544,9-3.176,2.905-4.978,6.782-4.978,9.83,0,4.154,2.635,8.031,8.035,8.031,6.37,0,11.221-5.126,13.573-12.187,1.112-3.324,1.554-8.16,1.832-12.595A126.726,126.726,0,0,0,58.59,43.212a5.542,5.542,0,0,0,1.388,1.663A17.268,17.268,0,0,0,50.145,60.8c0,7.205,4.85,15.234,14.4,15.234A13.187,13.187,0,0,0,77.846,63.3C77.841,57.618,74.654,52.356,68.561,52.356ZM30.472,71.744a3.144,3.144,0,0,1-3.46-3.446c0-5.956,8.255-11.639,14.489-14.69C40.393,61.92,37.587,71.418,30.472,71.744Zm4.571-32.686c0-4.573,4.51-13.261,7.27-12.342C45.567,27.8,39.613,36.565,35.043,39.058Zm26.179-2.079c0-5.678,3.844-11.2,5.945-10.152C69.558,28.025,65.378,33.377,61.222,36.979Z" fill="#ccc"/>
</svg>
