<svg width="72" height="57" viewBox="0 0 72 57" fill="none" xmlns="http://www.w3.org/2000/svg">
<path d="M5.02572 0.327392L4.66287 0.641343V20.7342V40.814H2.7035C0.802184 40.814 0.7151 40.8271 0.381282 41.1411C-0.315384 41.7559 -0.0396206 43.6396 1.06343 45.641C1.8617 47.1192 3.24051 48.375 4.89509 49.1599C6.91252 50.1018 7.05766 50.1148 15.0258 50.0756L22.065 50.0364L18.1172 45.4317L14.1695 40.814H10.512H6.83995V21.4537V2.09337H36.0128H65.1857V21.4537V40.814H61.9201H58.6545V45.471V50.1279L61.7459 50.0756C64.6342 50.0233 64.8809 49.9971 65.7953 49.6832C69.3657 48.4535 71.7024 45.7326 71.9637 42.4754C72.0362 41.5335 72.0217 41.4289 71.7169 41.1411C71.3831 40.8271 71.3105 40.814 69.3657 40.814H67.3628V20.7342V0.641343L66.9999 0.327392L66.6516 0.00035926H36.0128H5.37405L5.02572 0.327392Z" fill="url(#paint0_linear_112_32)"/>
<path d="M30.9337 5.8472C30.237 6.08266 30.208 6.21347 30.208 8.4373C30.208 10.7134 30.237 10.8312 31.0353 11.0405C31.4127 11.1451 32.1674 10.8312 32.298 10.5303C32.3415 10.4126 32.3851 9.44456 32.3851 8.37189C32.3851 6.72364 32.3415 6.39661 32.1384 6.17423C31.8626 5.87336 31.282 5.72947 30.9337 5.8472Z" fill="url(#paint1_linear_112_32)"/>
<path d="M24.1986 6.99833C23.9809 7.18146 23.8213 7.45617 23.8213 7.65239C23.8213 7.97942 25.5049 10.9358 25.9693 11.4067C26.2741 11.7338 27.2175 11.7207 27.5949 11.3806C28.0884 10.9358 27.9577 10.4125 26.9273 8.73814C26.3902 7.87477 25.8242 7.06373 25.6645 6.91984C25.2582 6.57972 24.6631 6.60589 24.1986 6.99833Z" fill="url(#paint2_linear_112_32)"/>
<path d="M36.9129 6.89386C36.7533 7.02467 36.1437 7.9142 35.5777 8.85606C34.5762 10.5043 34.5327 10.622 34.7068 10.9883C34.8084 11.2107 35.0116 11.4462 35.1568 11.5116C35.5196 11.6947 36.2018 11.6685 36.492 11.4723C36.7968 11.263 38.6256 8.29356 38.7272 7.82263C38.7852 7.54793 38.7127 7.37787 38.3643 7.06392C37.8709 6.61915 37.3484 6.55375 36.9129 6.89386Z" fill="url(#paint3_linear_112_32)"/>
<path d="M43.8514 8.76427C43.445 9.13055 43.474 9.74537 43.924 10.1378L44.2723 10.4648H52.7774C61.0794 10.4648 61.268 10.4648 61.5583 10.2032C61.9357 9.8631 61.9502 9.0259 61.5873 8.72503C61.3406 8.52881 60.5133 8.50265 52.7339 8.50265C44.3304 8.50265 44.1417 8.50265 43.8514 8.76427Z" fill="url(#paint4_linear_112_32)"/>
<path d="M30.0195 14.9647C28.6987 15.4094 27.6102 16.4298 27.2183 17.6332C27.0586 18.1042 27.0151 20.0664 27.0151 27.6797V37.1375L25.883 36.1171C23.793 34.2334 21.6595 33.6186 19.3663 34.2465C18.1471 34.5866 16.6812 35.45 16.1152 36.1433C15.3314 37.1113 15.2008 38.4194 15.7814 39.4529C16.1732 40.1462 27.4215 53.2406 28.452 54.1955C29.4534 55.1374 31.0645 55.8961 32.4868 56.1054C33.169 56.21 35.9847 56.2493 41.8192 56.2231C50.0486 56.1839 50.1792 56.1708 51.021 55.883C53.4739 55.0458 55.201 53.463 55.9412 51.3569C56.2605 50.4281 56.2605 50.3888 56.2605 41.2058V31.9834L55.8542 31.2378C54.8527 29.3933 52.2112 28.4646 50.2228 29.2625L49.5551 29.5372L49.3084 28.8963C48.9601 28.0329 48.0747 27.1695 47.0733 26.7248C46.3766 26.4108 46.0718 26.3585 45.0704 26.3585C44.0399 26.3585 43.7931 26.4108 43.0094 26.7771C42.5159 26.9995 42.1095 27.1434 42.1095 27.078C42.1095 26.8294 40.8613 25.8483 40.1792 25.5736C38.931 25.0504 37.6247 25.0373 36.2749 25.5605C36.0427 25.6521 36.0282 25.3643 35.9847 21.6885C35.9411 17.8033 35.9411 17.7117 35.5928 17.0838C35.1574 16.299 34.3446 15.5402 33.5173 15.1609C32.7336 14.7946 30.8468 14.69 30.0195 14.9647ZM50.1647 42.3308C50.6582 42.5008 50.8178 43.0764 50.6727 44.1229C50.2228 47.3147 47.3635 49.8263 43.8947 50.0618C43.0674 50.1272 42.7772 50.088 42.4869 49.9179C41.9934 49.6432 41.8773 49.1854 42.1676 48.6883C42.4143 48.2435 42.5449 48.1912 43.706 48.0735C45.796 47.8511 47.5958 46.5168 48.2053 44.7508C48.365 44.293 48.4956 43.6912 48.4956 43.4034C48.4956 42.5662 49.3084 42.043 50.1647 42.3308Z" fill="url(#paint5_linear_112_32)"/>
<path d="M12.2237 15.9072C11.8173 16.3651 11.8318 16.8883 12.2527 17.2415C12.5865 17.5293 12.6736 17.5293 17.0278 17.5293H21.4835L21.7738 17.1892C22.1802 16.7313 22.1512 16.2866 21.7157 15.8941L21.3674 15.5671H16.9407H12.5139L12.2237 15.9072Z" fill="url(#paint6_linear_112_32)"/>
<path d="M46.2015 15.7767C45.9548 15.9337 45.8822 16.1037 45.8822 16.5485C45.8822 17.5688 45.5193 17.5296 53.8938 17.5296C61.0782 17.5296 61.2814 17.5165 61.5572 17.268C61.7313 17.111 61.8474 16.8363 61.8474 16.5485C61.8474 16.2607 61.7313 15.986 61.5572 15.829C61.2814 15.5805 61.0782 15.5674 53.8938 15.5674C47.4642 15.5674 46.4918 15.5936 46.2015 15.7767Z" fill="url(#paint7_linear_112_32)"/>
<path d="M12.2825 22.9577C11.8471 23.337 11.8181 23.9257 12.1954 24.3443L12.4712 24.6583L16.5931 24.6975C19.2201 24.7237 20.8892 24.6844 21.223 24.6059C21.8326 24.4359 22.1519 23.9257 21.9923 23.3632C21.8036 22.6437 21.673 22.6306 16.956 22.6306H12.6308L12.2825 22.9577Z" fill="url(#paint8_linear_112_32)"/>
<path d="M50.8898 22.7871C50.4689 22.9964 50.3818 23.1534 50.3818 23.6897C50.3818 24.0036 50.4834 24.2391 50.6866 24.4092C50.9769 24.6446 51.2817 24.6577 56.1148 24.6577C60.9479 24.6577 61.2527 24.6446 61.543 24.4092C62.0074 24.0298 61.9639 23.258 61.4704 22.9048C61.0931 22.6432 60.9189 22.6301 56.1293 22.6301C52.7186 22.6432 51.093 22.6824 50.8898 22.7871Z" fill="url(#paint9_linear_112_32)"/>
<defs>
<linearGradient id="paint0_linear_112_32" x1="3.76041" y1="42.5578" x2="61.003" y2="-6.4435" gradientUnits="userSpaceOnUse">
<stop stop-color="#103056"/>
<stop offset="1" stop-color="#2EB6E8"/>
</linearGradient>
<linearGradient id="paint1_linear_112_32" x1="30.3217" y1="10.2675" x2="33.1486" y2="9.56947" gradientUnits="userSpaceOnUse">
<stop stop-color="#103056"/>
<stop offset="1" stop-color="#2EB6E8"/>
</linearGradient>
<linearGradient id="paint2_linear_112_32" x1="24.0329" y1="10.8948" x2="28.5451" y2="8.69889" gradientUnits="userSpaceOnUse">
<stop stop-color="#103056"/>
<stop offset="1" stop-color="#2EB6E8"/>
</linearGradient>
<linearGradient id="paint3_linear_112_32" x1="34.843" y1="10.8866" x2="39.3988" y2="8.63156" gradientUnits="userSpaceOnUse">
<stop stop-color="#103056"/>
<stop offset="1" stop-color="#2EB6E8"/>
</linearGradient>
<linearGradient id="paint4_linear_112_32" x1="44.5204" y1="10.1685" x2="45.3115" y2="5.77528" gradientUnits="userSpaceOnUse">
<stop stop-color="#103056"/>
<stop offset="1" stop-color="#2EB6E8"/>
</linearGradient>
<linearGradient id="paint5_linear_112_32" x1="17.5548" y1="49.9756" x2="59.3758" y2="25.4018" gradientUnits="userSpaceOnUse">
<stop stop-color="#103056"/>
<stop offset="1" stop-color="#2EB6E8"/>
</linearGradient>
<linearGradient id="paint6_linear_112_32" x1="12.457" y1="17.233" x2="13.7899" y2="13.1304" gradientUnits="userSpaceOnUse">
<stop stop-color="#103056"/>
<stop offset="1" stop-color="#2EB6E8"/>
</linearGradient>
<linearGradient id="paint7_linear_112_32" x1="46.7138" y1="17.2334" x2="47.6111" y2="12.8823" gradientUnits="userSpaceOnUse">
<stop stop-color="#103056"/>
<stop offset="1" stop-color="#2EB6E8"/>
</linearGradient>
<linearGradient id="paint8_linear_112_32" x1="12.4601" y1="24.3922" x2="13.9378" y2="20.1053" gradientUnits="userSpaceOnUse">
<stop stop-color="#103056"/>
<stop offset="1" stop-color="#2EB6E8"/>
</linearGradient>
<linearGradient id="paint9_linear_112_32" x1="50.9817" y1="24.3515" x2="52.258" y2="20.0427" gradientUnits="userSpaceOnUse">
<stop stop-color="#103056"/>
<stop offset="1" stop-color="#2EB6E8"/>
</linearGradient>
</defs>
</svg>
