<svg xmlns="http://www.w3.org/2000/svg" width="80" height="65.567" viewBox="0 0 80 65.567">
  <g id="_1" data-name="1" transform="translate(0 0)">
    <path id="Path_12006" data-name="Path 12006" d="M37.457-290.58a55.827,55.827,0,0,0-6.993,2.722c-1.8.8-3.147,1.374-5.494,2.372-1.374.574-2.822,1.2-3.247,1.374-1.748.774-3.147,1.374-5.494,2.372s-3.746,1.6-5.494,2.372c-.4.175-1.873.8-3.247,1.374-3.821,1.6-5.519,2.422-6.118,2.922-1.6,1.324-2.048,4.7-.9,6.543a5.118,5.118,0,0,0,2.472,2.173,17.7,17.7,0,0,1,1.873.749,9.662,9.662,0,0,0,1.548.6c.15,0,.25,3.371.25,9.065v9.065l-.774.449a4.25,4.25,0,0,0-1.249,1.249,4.429,4.429,0,0,0-.075,3.846c.3.425.325.649.1.9-.45.574-.774,1.923-1,4.27-.849,9.24-.824,8.791-.325,9.665.624,1.074,1.723,1.4,4.62,1.423,2.572.025,3.471-.2,4.4-1.024.824-.8.774-2.922-.225-11.188a10.168,10.168,0,0,0-.624-2.7c-.35-.524-.325-.7.05-1.673a3.763,3.763,0,0,0-.8-4.2,4.338,4.338,0,0,0-1.124-.924,76.68,76.68,0,0,1-.225-8.366c0-8.491.05-8.891.9-8.166a4.339,4.339,0,0,0,1.1.549c.474.175,1.349.549,1.923.8.6.25,1.349.574,1.7.7l.624.25v11.063l.874,1.823c1.973,4.121,6.543,7.142,13.486,8.965,4.995,1.324,14.984,1.374,19.479.1,7.617-2.148,11.713-4.845,13.71-9.04l.9-1.848v-11.063l.624-.25c.35-.125,1.124-.474,1.723-.749a8.708,8.708,0,0,1,1.274-.5,12.538,12.538,0,0,0,1.2-.475c.574-.275,1.823-.824,2.747-1.249.949-.425,1.748-.774,1.8-.774a14.756,14.756,0,0,0,1.423-.6,17.7,17.7,0,0,1,1.873-.749,5.118,5.118,0,0,0,2.472-2.173c1.149-1.848.7-5.219-.9-6.543-.624-.524-2.073-1.2-7.242-3.4-2-.849-3.846-1.648-4.121-1.773s-2.248-.974-4.37-1.873-4.1-1.748-4.37-1.873-2.248-.974-4.37-1.873c-2.123-.924-4.2-1.8-4.62-2-5.169-2.3-6.318-2.672-8.866-2.747A19.117,19.117,0,0,0,37.457-290.58Zm4.895,2.872c.724.25,7.392,3.047,8.841,3.721.275.125,2.248.974,4.37,1.873s4.1,1.748,4.37,1.873,2.123.924,4.121,1.773,4.071,1.723,4.62,1.973c.549.225,2.4,1.024,4.121,1.748,3.2,1.349,4.121,2.023,4.4,3.172a2.518,2.518,0,0,1-1.623,2.647c-.5.2-1.573.674-2.4,1.049-.824.35-1.823.824-2.248,1-.4.175-1.748.749-3,1.249-2,.824-2.922,1.224-5.744,2.5-.4.175-1.748.749-3,1.249-2,.824-2.922,1.224-5.744,2.5-.4.175-1.748.749-3,1.249-1.224.524-2.7,1.149-3.247,1.374a26.78,26.78,0,0,1-5.644,2.173,5.176,5.176,0,0,1-3.471,0,17.639,17.639,0,0,1-2.8-.9c-2.422-1.1-3.946-1.773-6.069-2.647-1.249-.5-2.572-1.074-3-1.249-2.822-1.274-3.746-1.673-5.744-2.5-2.348-.949-2.7-1.1-5.369-2.323-.9-.4-1.9-.824-2.248-.924l-.624-.2.6-.225c.325-.1,1.623-.375,2.872-.574s2.947-.474,3.771-.624,2.447-.425,3.621-.624,2.8-.475,3.621-.624,2.173-.375,3-.5c.824-.15,2.123-.375,2.922-.524,1.324-.275,1.448-.25,2.248.325a7.882,7.882,0,0,0,4.895,1.3c2.447,0,4.1-.5,5.369-1.6.874-.8,1-1.024,1.024-2.048.025-1.423-.5-2.223-2.1-3.172-1.049-.6-1.324-.649-4.245-.649s-3.2.05-4.245.649a6.744,6.744,0,0,0-1.7,1.5,1.986,1.986,0,0,1-1.5,1c-.5.1-2,.35-3.3.549-1.3.225-3.047.524-3.871.674s-2.447.425-3.621.624-2.747.449-3.5.6c-10.888,1.973-10.514,1.948-11.887,1.3-.6-.3-1.548-.7-2.048-.9a2.658,2.658,0,0,1-1.7-2.722c.275-1.074,1.2-1.8,3.521-2.772,1.249-.5,2.6-1.074,3-1.249,1.973-.874,3.2-1.4,5.494-2.372,1.374-.574,2.847-1.2,3.247-1.374,1.748-.774,3.147-1.374,5.494-2.372s3.746-1.6,5.494-2.372c.425-.175,1.873-.8,3.247-1.374s2.847-1.2,3.247-1.4A10.855,10.855,0,0,1,42.352-287.708Zm.225,15.833c1.1.574,1.074.774-.125,1.349a6.818,6.818,0,0,1-5.244,0,5.528,5.528,0,0,1-1.124-.624c0-.25,1.4-.949,2.2-1.124A8.63,8.63,0,0,1,42.577-271.875ZM19-259.563a4.338,4.338,0,0,0,1.1.549c.474.175,1.473.6,2.2.924.724.3,1.349.574,1.423.574.05,0,.849.35,1.8.774.924.425,2.173.974,2.747,1.249a9.892,9.892,0,0,0,1.224.475,12.173,12.173,0,0,1,1.5.624,15.074,15.074,0,0,0,1.473.624,14.145,14.145,0,0,1,1.423.624,12.413,12.413,0,0,0,5.944,1.374,12.413,12.413,0,0,0,5.944-1.374,14.144,14.144,0,0,1,1.423-.624,15.075,15.075,0,0,0,1.473-.624,12.173,12.173,0,0,1,1.5-.624,9.892,9.892,0,0,0,1.224-.475c.574-.275,1.823-.824,2.747-1.249.949-.425,1.748-.774,1.8-.774.075,0,.7-.275,1.423-.574.724-.325,1.723-.749,2.2-.924a4.338,4.338,0,0,0,1.1-.549,1.224,1.224,0,0,1,.6-.2c.275,0,.325.4.25,1.923-.175,3.521-1.6,5.619-5.594,8.191-2.1,1.374-2.223,1.523-1.948,2.572.375,1.374,2.6.674,5.619-1.748a5.96,5.96,0,0,1,1.473-1.049c0,.474-1.074,1.923-2.4,3.222-3.746,3.7-10.789,5.894-18.83,5.894a37.463,37.463,0,0,1-11.663-1.748,31.214,31.214,0,0,1-3.222-1.423c-2.522-1.224-5.145-3.446-5.844-4.97-.2-.425-.4-.849-.45-.949-.05-.125.574.325,1.423,1,3.471,2.8,8.566,4.67,14.809,5.444a33.609,33.609,0,0,0,9.065.1c2.048-.325,2.522-.7,2.223-1.823-.2-.874-.749-.974-4.071-.774-10.564.624-20.678-3.122-23.225-8.616-.774-1.648-1.1-5.244-.474-5.244A1.224,1.224,0,0,1,19-259.563ZM8.813-243.979a1.087,1.087,0,0,1-.35,1.748,1,1,0,0,1-1.548-.774A1.129,1.129,0,0,1,8.813-243.979Zm-.1,5.07c.524.4.7,1.349,1.124,6.368.15,1.573.325,3.247.425,3.671l.175.824H5.616v-.7c0-.375.1-1.573.25-2.672.125-1.1.35-3.122.5-4.5C6.715-239.084,7.364-239.934,8.713-238.91Z" transform="translate(0.17 290.639)" fill="#fff"/>
    <path id="Path_12007" data-name="Path 12007" d="M192.838-117.287c-2.188.638-2.918,1.489-2.31,2.614.577,1.094,1.307,1.185,3.647.486,2.371-.729,3.009-1.4,2.4-2.553C195.878-118.017,195.543-118.077,192.838-117.287Z" transform="translate(-143.485 160.465)" fill="#fff"/>
  </g>
</svg>
