<svg xmlns="http://www.w3.org/2000/svg" width="80.104" height="89.066" viewBox="0 0 80.104 89.066">
  <g id="Group_7985" data-name="Group 7985" transform="translate(-772.759 -851.444)">
    <g id="_2" data-name="2" transform="translate(772.759 851.444)">
      <path id="Path_12008" data-name="Path 12008" d="M153.445-319.4c-.362.5-.445,1.5-.445,5.231,0,4.48.028,4.646.64,5.231a1.765,1.765,0,0,0,2.643-.028c.584-.612.612-.918.612-5.4,0-4.229-.056-4.786-.5-5.175A2.264,2.264,0,0,0,153.445-319.4Z" transform="translate(-114.909 320.012)" fill="#fff"/>
      <path id="Path_12009" data-name="Path 12009" d="M56.666-276.16c-1.28,1.28-1,1.92,2.337,5.2,3.172,3.144,3.728,3.45,4.98,2.56a1.526,1.526,0,0,0,.612-1.475c0-.946-.25-1.28-3.033-4.007C58.308-277.078,57.807-277.329,56.666-276.16Z" transform="translate(-44.869 288.823)" fill="#fff"/>
      <path id="Path_12010" data-name="Path 12010" d="M236.033-273.879c-2.782,2.727-3.033,3.061-3.033,4.007a1.526,1.526,0,0,0,.612,1.475c1.252.89,1.809.584,4.98-2.56,3.339-3.283,3.617-3.923,2.337-5.2C239.789-277.329,239.288-277.078,236.033-273.879Z" transform="translate(-172.651 288.823)" fill="#fff"/>
      <path id="Path_12011" data-name="Path 12011" d="M87.821-266.5a27.652,27.652,0,0,0-16.388,10.044,28.61,28.61,0,0,0-4.591,9.432,34.254,34.254,0,0,0-.445,10.211A26.017,26.017,0,0,0,77.888-218.7l2.17,1.391v7.039a79.148,79.148,0,0,0,.306,8.514,12.3,12.3,0,0,0,7.791,8.57,15,15,0,0,0,8.291,0,12.3,12.3,0,0,0,7.791-8.57,79.145,79.145,0,0,0,.306-8.514v-7.039l2.17-1.419c8.709-5.732,13.021-15.637,11.435-26.293a25.756,25.756,0,0,0-2.448-7.429,1.861,1.861,0,0,0-1.475-.779c-1.948-.167-2.421,1.447-1.224,4.146a19.083,19.083,0,0,1,1.586,8.375,19.874,19.874,0,0,1-1.614,8.57,25.392,25.392,0,0,1-4.925,7.345c-1.614,1.558-4.535,3.784-4.98,3.784a3.869,3.869,0,0,0-1.224.723l-.918.7v13.049H83.676v-13.049l-.918-.7a3.869,3.869,0,0,0-1.224-.723c-.473,0-3.45-2.282-5.147-3.979A23.143,23.143,0,0,1,70.46-235.7a27.891,27.891,0,0,1,0-9.85c.7-2.81,2.56-6.9,3.478-7.735a4.613,4.613,0,0,0,.64-.835,24.921,24.921,0,0,1,10.211-7.568c3.2-1.113,3.784-1.2,7.791-1.169,3.812.028,4.174.056,6.539.918,4.257,1.53,4.229,1.53,5.008,1.2a1.858,1.858,0,0,0,.863-1.029c.306-1.2-.306-2.031-2.031-2.838A26.685,26.685,0,0,0,87.821-266.5Zm12.827,63.688c0,.056-.278.7-.584,1.447-1.614,3.645-6.316,5.954-9.794,4.813a10.982,10.982,0,0,1-4.368-2.671,14.422,14.422,0,0,1-1.948-3.561c0-.083,3.756-.139,8.347-.139S100.648-202.871,100.648-202.815Z" transform="translate(-52.263 281.67)" fill="#fff"/>
      <path id="Path_12012" data-name="Path 12012" d="M215.6-240.354a1.824,1.824,0,0,0-.056,2.532,2.719,2.719,0,0,0,2.782.139,2.876,2.876,0,0,0-.111-2.838A1.939,1.939,0,0,0,215.6-240.354Z" transform="translate(-159.703 262.95)" fill="#fff"/>
      <path id="Path_12013" data-name="Path 12013" d="M91.556-191.444c-.5.5-.556.918-.556,3.561,0,5.843,1.2,9.1,4.563,12.465a15.144,15.144,0,0,0,11.074,4.563h1.614v4.674c0,4.535.028,4.7.64,5.286a1.765,1.765,0,0,0,2.643-.028c.584-.612.612-.918.612-5.286v-4.647h1.614a15.555,15.555,0,0,0,14.023-8.625c1.252-2.588,1.614-4.535,1.614-8.4,0-4.062-.056-4.118-4.09-4.118-5.259.028-8.709,1.28-11.992,4.313a14.908,14.908,0,0,0-2.282,2.615,5.1,5.1,0,0,1-.835,1.141,4.93,4.93,0,0,1-.918-1.252A20.078,20.078,0,0,0,107-187.8c-3.255-2.949-6.705-4.173-11.881-4.2C92.475-192,92.057-191.944,91.556-191.444Zm9.794,4.535a12.877,12.877,0,0,1,3.367,2.337,14.856,14.856,0,0,1,3.367,6.177c.167.946.167.946-1.892-1.029-2.254-2.2-3.255-2.532-4.34-1.447-1,1-.723,1.836,1.447,4.062,2.059,2.115,2.031,2.365-.083,1.642a10.364,10.364,0,0,1-4.869-3.033c-2.309-2.309-3.228-4.424-3.589-8.069l-.195-1.92,2.365.139A9.942,9.942,0,0,1,101.35-186.908Zm24.29.668c-.362,3.617-1.308,5.759-3.589,8.041a10.364,10.364,0,0,1-4.869,3.033c-2.115.723-2.142.473-.083-1.642,2.17-2.226,2.448-3.061,1.447-4.062-1.085-1.085-2.087-.751-4.34,1.447-2.059,1.975-2.059,1.975-1.892,1.029a14.856,14.856,0,0,1,3.367-6.177,15.5,15.5,0,0,1,5.926-3.339c.39-.056,1.475-.139,2.448-.167l1.781-.028Z" transform="translate(-70.16 227.617)" fill="#fff"/>
      <path id="Path_12014" data-name="Path 12014" d="M16.545-178.5a2.128,2.128,0,0,0,.028,2.643c.445.39,1.2.473,4.841.473,4.786,0,5.231-.167,5.231-1.864,0-1.586-.529-1.753-5.342-1.753C17.491-179,16.934-178.944,16.545-178.5Z" transform="translate(-16.099 218.234)" fill="#fff"/>
      <path id="Path_12015" data-name="Path 12015" d="M266.545-178.5a2.128,2.128,0,0,0,.028,2.643c.445.39,1.2.473,4.841.473,4.786,0,5.231-.167,5.231-1.864,0-1.586-.529-1.753-5.342-1.753C267.491-179,266.934-178.944,266.545-178.5Z" transform="translate(-196.541 218.234)" fill="#fff"/>
      <path id="Path_12016" data-name="Path 12016" d="M59-96.967c-3.339,3.283-3.617,3.923-2.337,5.2,1.141,1.169,1.642.918,4.9-2.282,2.782-2.727,3.033-3.061,3.033-4.007a1.526,1.526,0,0,0-.612-1.475C62.732-100.417,62.175-100.111,59-96.967Z" transform="translate(-44.869 161.186)" fill="#fff"/>
      <path id="Path_12017" data-name="Path 12017" d="M233.556-99.5A2.188,2.188,0,0,0,233-98.023c0,.807.39,1.308,3.033,3.9,3.255,3.2,3.756,3.45,4.9,2.282,1.28-1.28,1-1.92-2.337-5.2C235.365-100.276,234.669-100.61,233.556-99.5Z" transform="translate(-172.651 161.268)" fill="#fff"/>
    </g>
  </g>
</svg>
