<svg width="57" height="68" viewBox="0 0 57 68" fill="none" xmlns="http://www.w3.org/2000/svg">
<path d="M27.6852 0.134301C27.2634 0.280392 27.3618 0.134301 25.6464 3.17564C24.8871 4.5303 24.2685 5.6459 24.2544 5.65918C24.2404 5.67246 22.7499 5.87168 20.9361 6.09745C18.9957 6.33651 17.5053 6.58885 17.3225 6.70838C16.9569 6.92087 16.7882 7.41227 16.9147 7.85054C16.9569 8.02319 18.0677 9.07239 19.3894 10.2013C20.6971 11.3302 21.7797 12.3129 21.7797 12.3926C21.7797 12.4856 21.5548 13.6809 21.2876 15.0488C20.683 18.13 20.6689 18.4753 21.1611 18.8339C21.372 18.9933 21.6673 19.1128 21.836 19.1128C22.0047 19.1128 23.4811 18.4886 25.1262 17.7183L28.107 16.3371L31.0879 17.7183C32.733 18.4886 34.2094 19.1128 34.3781 19.1128C34.5468 19.1128 34.8421 18.9933 35.053 18.8339C35.5451 18.4753 35.5311 18.13 34.9265 15.0488C34.6593 13.6809 34.4343 12.4856 34.4343 12.3926C34.4343 12.3129 35.517 11.3169 36.8247 10.2013C38.1464 9.07239 39.2571 8.02319 39.2993 7.86382C39.4259 7.41227 39.2571 6.92087 38.8916 6.70838C38.7088 6.58885 37.2324 6.33651 35.278 6.08417C33.4642 5.8584 31.9737 5.65918 31.9597 5.6459C31.9456 5.6459 31.3269 4.5303 30.5677 3.17564C28.8382 0.107739 28.9647 0.280392 28.4726 0.12102C28.2476 0.0546157 28.0649 -0.0117891 28.0508 0.00149182C28.0367 0.00149182 27.8821 0.0678966 27.6852 0.134301ZM29.2178 5.31388C29.7803 6.33651 30.3708 7.27946 30.5255 7.41227C30.7223 7.5982 31.3832 7.73101 33.1829 7.95679C34.4906 8.12944 35.5592 8.30209 35.5592 8.34193C35.5592 8.39506 34.7999 9.07239 33.8719 9.86924C32.9439 10.6528 32.1424 11.4364 32.1003 11.5958C32.0581 11.7551 32.2128 12.8309 32.4377 13.9731C32.6627 15.1152 32.7892 16.0582 32.733 16.0582C32.6627 16.0582 31.6644 15.6066 30.4833 15.0621C29.3163 14.5176 28.2476 14.066 28.107 14.066C27.9664 14.066 26.8978 14.5176 25.7308 15.0621C24.5497 15.6066 23.5514 16.0582 23.4811 16.0582C23.4248 16.0582 23.5514 15.1152 23.7764 13.9731C24.0013 12.8309 24.156 11.7551 24.1138 11.5958C24.0716 11.4364 23.2702 10.6528 22.3422 9.85596C21.4142 9.07239 20.6549 8.38178 20.6549 8.31537C20.6549 8.26225 20.7392 8.22241 20.8517 8.22241C21.4563 8.22241 25.2808 7.66461 25.5339 7.54508C25.7167 7.45211 26.2792 6.58885 26.94 5.42012C27.5446 4.33108 28.0649 3.44126 28.107 3.44126C28.1492 3.44126 28.6413 4.27796 29.2178 5.31388Z" fill="url(#paint0_linear_112_68)"/>
<path d="M10.8122 13.9463C10.3904 14.0924 10.4888 13.9463 8.77337 16.9877C8.0141 18.3423 7.39543 19.4579 7.38137 19.4712C7.36731 19.4845 5.87688 19.6837 4.06305 19.9095C2.17892 20.1485 0.618187 20.4141 0.449459 20.5204C0.0838819 20.7329 -0.0848461 21.2243 0.0416999 21.6626C0.0838819 21.8352 1.19467 22.8844 2.51638 24.0133C3.82402 25.1422 4.90669 26.125 4.90669 26.2046C4.90669 26.2976 4.68172 27.4929 4.41457 28.8608C3.80996 31.942 3.7959 32.2873 4.28802 32.6459C4.49893 32.8053 4.79421 32.9248 4.96293 32.9248C5.13166 32.9248 6.60803 32.3006 8.25313 31.5303L11.234 30.1491L14.2149 31.5303C15.8599 32.3006 17.3363 32.9248 17.505 32.9248C17.6738 32.9248 17.969 32.8053 18.18 32.6459C18.6721 32.2873 18.658 31.942 18.0534 28.8608C17.7863 27.4929 17.5613 26.2976 17.5613 26.2046C17.5613 26.125 18.644 25.1422 19.9516 24.0133C21.2733 22.8844 22.3841 21.8352 22.4263 21.6758C22.5528 21.2243 22.3841 20.7329 22.0185 20.5204C21.8357 20.4009 20.3172 20.1485 18.4049 19.9095C16.5911 19.6704 15.1007 19.4712 15.0866 19.4579C15.0726 19.4579 14.4539 18.3423 13.6946 16.9877C11.9651 13.9198 12.0917 14.0924 11.5996 13.933C11.3746 13.8666 11.1918 13.8002 11.1777 13.8135C11.1637 13.8135 11.009 13.8799 10.8122 13.9463ZM12.3448 19.1259C12.9072 20.1485 13.4978 21.0915 13.6524 21.2243C13.8493 21.4102 14.5101 21.543 16.3099 21.7688C17.6175 21.9415 18.6861 22.1141 18.6861 22.1539C18.6861 22.2071 17.9269 22.8844 16.9989 23.6813C16.0709 24.4648 15.2694 25.2484 15.2272 25.4078C15.185 25.5672 15.3397 26.6429 15.5647 27.7851C15.7896 28.9272 15.9162 29.8702 15.8599 29.8702C15.7896 29.8702 14.7913 29.4186 13.6102 28.8741C12.4432 28.3296 11.3746 27.878 11.234 27.878C11.0934 27.878 10.0248 28.3296 8.85774 28.8741C7.67664 29.4186 6.67833 29.8702 6.60803 29.8702C6.55179 29.8702 6.67833 28.9272 6.90331 27.7851C7.12828 26.6429 7.28294 25.5672 7.24076 25.4078C7.19858 25.2484 6.39712 24.4648 5.46912 23.668C4.54111 22.8844 3.78184 22.1938 3.78184 22.1274C3.78184 22.0743 3.8662 22.0344 3.97869 22.0344C4.5833 22.0344 8.4078 21.4766 8.66089 21.3571C8.84368 21.2641 9.4061 20.4009 10.067 19.2321C10.6716 18.1431 11.1918 17.2533 11.234 17.2533C11.2762 17.2533 11.7683 18.09 12.3448 19.1259Z" fill="url(#paint1_linear_112_68)"/>
<path d="M44.5573 13.9463C44.1355 14.0924 44.2339 13.9463 42.5185 16.9877C41.7592 18.3423 41.1405 19.4579 41.1265 19.4712C41.1124 19.4845 39.622 19.6837 37.8082 19.9095C35.924 20.1485 34.3633 20.4141 34.1946 20.5204C33.829 20.7329 33.6603 21.2243 33.7868 21.6626C33.829 21.8352 34.9398 22.8844 36.2615 24.0133C37.5691 25.1422 38.6518 26.125 38.6518 26.2046C38.6518 26.2976 38.4268 27.4929 38.1597 28.8608C37.5551 31.942 37.541 32.2873 38.0331 32.6459C38.244 32.8053 38.5393 32.9248 38.7081 32.9248C38.8768 32.9248 40.3531 32.3006 41.9982 31.5303L44.9791 30.1491L47.96 31.5303C49.6051 32.3006 51.0814 32.9248 51.2502 32.9248C51.4189 32.9248 51.7142 32.8053 51.9251 32.6459C52.4172 32.2873 52.4031 31.942 51.7985 28.8608C51.5314 27.4929 51.3064 26.2976 51.3064 26.2046C51.3064 26.125 52.3891 25.1422 53.6967 24.0133C55.0184 22.8844 56.1292 21.8352 56.1714 21.6758C56.2979 21.2243 56.1292 20.7329 55.7636 20.5204C55.5809 20.4009 54.0623 20.1485 52.15 19.9095C50.3362 19.6704 48.8458 19.4712 48.8317 19.4579C48.8177 19.4579 48.199 18.3423 47.4397 16.9877C45.7103 13.9198 45.8368 14.0924 45.3447 13.933C45.1197 13.8666 44.9369 13.8002 44.9229 13.8135C44.9088 13.8135 44.7541 13.8799 44.5573 13.9463ZM46.0899 19.1259C46.6523 20.1485 47.2429 21.0915 47.3975 21.2243C47.5944 21.4102 48.2552 21.543 50.055 21.7688C51.3627 21.9415 52.4313 22.1141 52.4313 22.1539C52.4313 22.2071 51.672 22.8844 50.744 23.6813C49.816 24.4648 49.0145 25.2484 48.9723 25.4078C48.9302 25.5672 49.0848 26.6429 49.3098 27.7851C49.5348 28.9272 49.6613 29.8702 49.6051 29.8702C49.5348 29.8702 48.5365 29.4186 47.3554 28.8741C46.1883 28.3296 45.1197 27.878 44.9791 27.878C44.8385 27.878 43.7699 28.3296 42.6029 28.8741C41.4218 29.4186 40.4235 29.8702 40.3531 29.8702C40.2969 29.8702 40.4235 28.9272 40.6484 27.7851C40.8734 26.6429 41.0281 25.5672 40.9859 25.4078C40.9437 25.2484 40.1422 24.4648 39.2142 23.668C38.2862 22.8844 37.527 22.1938 37.527 22.1274C37.527 22.0743 37.6113 22.0344 37.7238 22.0344C38.3284 22.0344 42.1529 21.4766 42.406 21.3571C42.5888 21.2641 43.1512 20.4009 43.8121 19.2321C44.4167 18.1431 44.9369 17.2533 44.9791 17.2533C45.0213 17.2533 45.5134 18.09 46.0899 19.1259Z" fill="url(#paint2_linear_112_68)"/>
<path d="M25.8576 25.6598C25.1686 25.8723 23.9875 27.0278 23.7766 27.6918C23.6782 28.0371 23.6079 29.1394 23.6079 30.6269C23.6079 33.23 23.4813 33.9737 22.7642 35.408C21.6815 37.626 19.5584 39.7111 16.7884 41.3048C16.2823 41.5837 15.8464 41.8227 15.8042 41.8227C15.762 41.8227 15.7339 41.6368 15.7339 41.4243C15.7339 41.172 15.6073 40.8931 15.3824 40.6939L15.0449 40.3618H10.1096H5.17432L4.83687 40.6939L4.48535 41.0126V54.174V67.3355L4.83687 67.6542L5.17432 67.9862H10.1096H15.0449L15.3824 67.6542C15.6073 67.455 15.7339 67.1761 15.7339 66.9238V66.5253L17.2946 67.2558L18.8413 67.9995L28.0088 67.9597L37.1764 67.9198L37.8935 67.5612C38.9621 67.03 39.398 66.6316 39.9323 65.7019C40.3682 64.9316 40.4104 64.7722 40.3963 63.7363C40.3963 62.8332 40.3401 62.5012 40.087 62.0496C39.9182 61.7442 39.7776 61.4653 39.7776 61.4254C39.7776 61.3989 40.1151 61.1864 40.5369 60.9606C41.3384 60.5356 41.7883 60.0708 42.3226 59.088C42.5898 58.5966 42.646 58.2778 42.6601 57.3615C42.6601 56.3388 42.6179 56.1662 42.2101 55.449L41.7461 54.6654L42.3648 54.1209C42.7022 53.8154 43.1522 53.2444 43.3772 52.8459C43.7146 52.2085 43.7709 51.9694 43.7709 50.9866C43.7709 49.7913 43.574 49.2335 42.7725 48.2242L42.4351 47.7992L42.7725 47.3609C43.574 46.3648 43.7709 45.807 43.7709 44.6117C43.7849 43.5758 43.7427 43.4165 43.3069 42.6462C42.7866 41.7298 42.1961 41.1985 41.1837 40.7337C40.5791 40.4415 40.3682 40.4282 36.7124 40.3884L32.8598 40.3486L32.9441 40.0564C33.1129 39.4056 33.4503 37.1611 33.5769 35.7135C33.7878 33.5885 33.7737 32.287 33.5066 31.0917C33.0847 29.0863 31.51 26.6957 30.1039 25.9254C29.4993 25.5934 29.3024 25.5536 27.8964 25.527C27.0246 25.5137 26.1388 25.5668 25.8576 25.6598ZM29.4993 28.2496C30.3148 29.0465 30.9897 30.2417 31.285 31.4105C31.6506 32.8979 31.3693 36.6697 30.6241 40.0829C30.2867 41.6102 30.2867 41.7165 30.6241 42.1016L30.8913 42.4204L35.5313 42.4868C39.9464 42.5532 40.1994 42.5665 40.565 42.8321C41.3102 43.3501 41.5352 43.775 41.5352 44.6117C41.5352 45.4484 41.3102 45.8734 40.565 46.3914C40.2135 46.6437 39.9323 46.6703 37.2186 46.7367C34.3221 46.8031 34.2658 46.8031 33.9987 47.1218C33.8581 47.2945 33.7315 47.6 33.7315 47.7992C33.7315 47.9984 33.8581 48.3038 33.9987 48.4765C34.2658 48.7952 34.3221 48.7952 37.2186 48.8616C39.9323 48.9281 40.2135 48.9546 40.565 49.207C41.3102 49.7249 41.5352 50.1499 41.5352 50.9866C41.5352 51.8233 41.3102 52.2483 40.565 52.7663C40.2135 53.0186 39.9323 53.0452 37.2186 53.1116C34.3221 53.178 34.2658 53.178 33.9987 53.4967C33.6612 53.8951 33.6612 54.4529 33.9987 54.8514C34.2518 55.1568 34.3502 55.1701 36.6562 55.2365C39.2714 55.3029 39.4402 55.356 40.1151 56.2193C40.5228 56.7373 40.5228 57.9857 40.1151 58.5036C39.4402 59.3669 39.2714 59.42 36.6562 59.4864C34.3502 59.5528 34.2518 59.5661 33.9987 59.8716C33.6612 60.27 33.6612 60.8278 33.9987 61.2262C34.2377 61.5051 34.4205 61.5582 35.5454 61.6114C36.9092 61.6911 37.2889 61.8504 37.8654 62.5942C38.0903 62.8598 38.1606 63.152 38.1606 63.7363C38.1606 64.573 37.9357 64.998 37.1905 65.516C36.8108 65.7949 36.6421 65.7949 28.1073 65.8347L19.4037 65.8613L17.5618 64.998L15.7339 64.1348V54.2006V44.2797L16.9712 43.6688C21.4003 41.4376 24.5921 37.958 25.5904 34.2924C25.8013 33.469 25.8576 32.8182 25.8576 30.773C25.8576 28.2894 25.8576 28.2629 26.2091 27.9441C26.5184 27.6387 26.659 27.6121 27.6995 27.6121H28.8665L29.4993 28.2496ZM13.4842 54.174V65.8613H10.1096H6.73506V54.174V42.4868H10.1096H13.4842V54.174Z" fill="url(#paint3_linear_112_68)"/>
<defs>
<linearGradient id="paint0_linear_112_68" x1="35.796" y1="4.62713" x2="30.8772" y2="22.7055" gradientUnits="userSpaceOnUse">
<stop stop-color="#2DB4E5"/>
<stop offset="1" stop-color="#103056"/>
</linearGradient>
<linearGradient id="paint1_linear_112_68" x1="18.923" y1="18.4391" x2="14.0041" y2="36.5175" gradientUnits="userSpaceOnUse">
<stop stop-color="#2DB4E5"/>
<stop offset="1" stop-color="#103056"/>
</linearGradient>
<linearGradient id="paint2_linear_112_68" x1="52.6681" y1="18.4391" x2="47.7493" y2="36.5175" gradientUnits="userSpaceOnUse">
<stop stop-color="#2DB4E5"/>
<stop offset="1" stop-color="#103056"/>
</linearGradient>
<linearGradient id="paint3_linear_112_68" x1="37.5742" y1="35.8083" x2="24.2472" y2="74.3494" gradientUnits="userSpaceOnUse">
<stop stop-color="#2DB4E5"/>
<stop offset="1" stop-color="#103056"/>
</linearGradient>
</defs>
</svg>
