<svg xmlns="http://www.w3.org/2000/svg" width="80.199" height="75.083" viewBox="0 0 80.199 75.083">
  <g id="_3" data-name="3" transform="translate(0 0)">
    <path id="Path_12018" data-name="Path 12018" d="M97.875-299.678c-.215.134-2.79,1.234-5.74,2.414-2.924,1.207-5.552,2.334-5.82,2.494A4.8,4.8,0,0,0,85-291.819a7.587,7.587,0,0,0,1.422,3.7c1.556,1.824,5.311,2.253,9.307,1.073,1.1-.349,2.253-.671,2.548-.751,1.529-.429,2.012-2.119.8-2.924-.59-.4-.751-.376-2.2.134a29.082,29.082,0,0,1-5.847,1.368c-.992,0-2.494-.8-2.655-1.448-.3-1.127-.161-1.743.456-1.931.322-.107,1.207-.456,1.985-.8a13.277,13.277,0,0,1,1.529-.644,10.618,10.618,0,0,0,1.314-.51c.617-.3,2.334-1.019,3.782-1.609l2.655-1.1h6.33c6.2,0,10.863.4,12.016,1.046.51.3,6.947,3.38,10.675,5.123,3.46,1.609,5.364,1.931,11.131,1.824l4.962-.08v-2.414l-4.292-.161c-4.292-.188-7.081-.536-8.583-1.1-.429-.188-3.406-1.583-6.571-3.111-8.127-3.943-7.51-3.809-18.427-3.782C102.354-299.92,98.089-299.812,97.875-299.678Z" transform="translate(-65.017 299.927)" fill="#fff"/>
    <path id="Path_12019" data-name="Path 12019" d="M149.361-276.476c-.644.644-1.341,3.353-1.207,4.721.3,2.9,2.387,5.364,5.981,7.108a16.936,16.936,0,0,0,2.2.939,3.717,3.717,0,0,1,.885.349c.376.215,1.556.7,2.6,1.1,1.583.59,2.039.912,2.629,1.824,3.058,4.613,9.146,6.625,15.047,4.989,1.77-.483,3.085-.617,8.02-.724l5.9-.161v-2.414l-6.3-.08c-4.613-.054-6.6.027-7.376.268a19.448,19.448,0,0,1-4.426.349c-3.246,0-3.406-.027-4.748-.8a10.184,10.184,0,0,1-3.862-3.648c-.644-1.127-.858-1.261-4.56-2.763-6.357-2.629-7.564-3.326-8.449-5.043-.376-.724-.536-2.629-.215-2.629.215,0,10.273,4.131,12.124,4.989s2.924.858,3.3,0a2.182,2.182,0,0,0,.161-1.287c-.161-.617-.617-.885-3.272-1.958-.59-.241-1.583-.671-2.2-.966a10.63,10.63,0,0,0-1.314-.51,13.081,13.081,0,0,1-1.609-.671,13.083,13.083,0,0,0-1.609-.671,6.031,6.031,0,0,1-.992-.4,45,45,0,0,0-5.579-2.2A1.265,1.265,0,0,0,149.361-276.476Z" transform="translate(-111.22 283.001)" fill="#fff"/>
    <path id="Path_12020" data-name="Path 12020" d="M90.523-240.507c-.778.536-.831,2.119-.08,2.521a1.463,1.463,0,0,0,2.039-.4c.8-.778.831-1.207.134-1.958A1.373,1.373,0,0,0,90.523-240.507Z" transform="translate(-68.609 256.741)" fill="#fff"/>
    <path id="Path_12021" data-name="Path 12021" d="M60.359-224.382c-1.69,1.824-4.05,7.081-4.828,10.729a37.762,37.762,0,0,0-.215,11.212c.4,1.717,1.207,2.414,2.226,1.878.885-.483.966-.832.671-2.9a35.231,35.231,0,0,1,0-8.234A26.453,26.453,0,0,1,62.4-221.887c.7-.912.858-2.226.322-2.763A1.864,1.864,0,0,0,60.359-224.382Z" transform="translate(-43.059 245.069)" fill="#fff"/>
    <path id="Path_12022" data-name="Path 12022" d="M118.6-209.712a23.456,23.456,0,0,0-.188,4.023v3.836l-3.943.08-3.97.08v10.461l3.943.08,3.943.08.08,3.943.08,3.943h10.461l.08-3.943.08-3.943,3.943-.08,3.943-.08v-10.461l-3.943-.08-3.943-.08-.08-3.943-.08-3.943-5.123-.08A49.3,49.3,0,0,0,118.6-209.712Zm7.913,6.464.08,3.97,3.97.08,3.943.08v5.311l-3.943.08-3.97.08-.08,3.943-.08,3.97h-5.311l-.08-3.97-.08-3.943-3.943-.08-3.97-.08v-5.311l3.97-.08,3.943-.08.08-3.97.08-3.943h5.311Z" transform="translate(-83.678 233.993)" fill="#fff"/>
    <path id="Path_12023" data-name="Path 12023" d="M239.795-185.318c-.349.536-.376.912-.134,2.334a31.89,31.89,0,0,1,0,8.154,26.525,26.525,0,0,1-4.184,10.246c-1.341,1.77-.671,3.594,1.18,3.111,1.019-.241,3.406-4.292,4.694-7.859a26.061,26.061,0,0,0,1.529-9.737c0-3.916-.322-6.008-1.019-6.571A1.418,1.418,0,0,0,239.795-185.318Z" transform="translate(-174.616 216.519)" fill="#fff"/>
    <path id="Path_12024" data-name="Path 12024" d="M24.179-124.336c-1.556.456-2.924.59-7.779.7l-5.9.161v2.414l6.3.08c4.613.054,6.6-.027,7.376-.268a19.451,19.451,0,0,1,4.426-.349c3.3,0,3.38.027,4.828.858a8.461,8.461,0,0,1,3.621,3.406c.8,1.395.912,1.448,6.035,3.514,4.962,2.038,5.955,2.655,7,4.318.456.778.724,2.79.349,2.79-.215,0-10.273-4.131-12.124-4.989-1.636-.751-2.521-.8-3.111-.215a1.624,1.624,0,0,0-.215,1.878,14.683,14.683,0,0,0,3.433,1.717,13.077,13.077,0,0,1,1.609.671,13.078,13.078,0,0,0,1.609.671,13.078,13.078,0,0,1,1.609.671,13.078,13.078,0,0,0,1.609.671,6.033,6.033,0,0,1,.992.4,57.281,57.281,0,0,0,5.5,2.2c.885.215,1.583-.563,2.092-2.307a7.1,7.1,0,0,0-2.307-7.618,20.161,20.161,0,0,0-5.9-3.272,4.044,4.044,0,0,1-.939-.4,20.775,20.775,0,0,0-2.173-.912c-1.609-.59-2.065-.912-2.655-1.824C36.41-123.987,30.054-126.053,24.179-124.336Z" transform="translate(-10.5 171.872)" fill="#fff"/>
    <path id="Path_12025" data-name="Path 12025" d="M220.322-89.663A2.03,2.03,0,0,0,220-88.456a1.286,1.286,0,0,0,2.092,1.127,1.611,1.611,0,0,0,.563-2.28A2.159,2.159,0,0,0,220.322-89.663Z" transform="translate(-163.807 146.292)" fill="#fff"/>
    <path id="Path_12026" data-name="Path 12026" d="M62.536-70.675c-.429.08-1.636.376-2.682.671-1.019.3-2.119.59-2.414.671-1.529.429-2.012,2.119-.8,2.924.59.4.751.376,2.2-.134a29.081,29.081,0,0,1,5.847-1.368c.992,0,2.494.8,2.655,1.448.322,1.207.161,1.717-.563,1.985-1.153.429-4.667,1.9-5.633,2.334a6.033,6.033,0,0,1-.992.4,12.71,12.71,0,0,0-1.314.51c-3,1.395-2.87,1.368-9.549,1.368-6.169,0-10.863-.4-12.016-1.046-.483-.268-5.686-2.763-10.407-4.989-3.7-1.743-5.525-2.065-11.4-1.958l-4.962.08v2.414l4.292.161c4.667.188,7.43.59,9.12,1.314.59.268,3.38,1.583,6.169,2.924,6.3,3.058,5.874,2.87,7.7,3.353,1.234.349,3.165.429,10.514.429a83.573,83.573,0,0,0,9.5-.268c.241-.134,2.146-.939,4.211-1.743,7.537-3,7.805-3.165,8.342-4.587a4.876,4.876,0,0,0-.4-4.211C68.812-70.272,66.237-71.184,62.536-70.675Z" transform="translate(-10.5 132.266)" fill="#fff"/>
  </g>
</svg>
