<svg xmlns="http://www.w3.org/2000/svg" width="80.004" height="80.03" viewBox="0 0 80.004 80.03">
  <g id="_4" data-name="4" transform="translate(0 0)">
    <path id="Path_12027" data-name="Path 12027" d="M152.811-307.613c-.946.568-1.46,1.514-1.892,3.406-.432,2-1.027,2.216-2.865,1.054-2.73-1.7-4.027-1.432-6.784,1.405a13.77,13.77,0,0,0-2.216,2.757c-.432,1.081-.108,2.378.919,4,1.162,1.838.946,2.378-1.135,2.865-3.406.784-3.838,1.46-3.838,5.865,0,3.162,0,3.216.811,4.189a2.9,2.9,0,0,0,1.838,1.162c1.757.3,2.622.649,2.973,1.216.27.459.216.7-.595,1.811-1.892,2.7-1.676,3.865,1.27,6.892l2.189,2.243h1.784a3.953,3.953,0,0,0,2.973-.838c1.676-1.216,2.162-.973,2.757,1.405a5.731,5.731,0,0,0,1.3,2.676l.811.811h3.649c3.595,0,3.622,0,4.406-.757.73-.7,1.054-1.514,1.541-3.784.243-1.243,1.135-1.351,2.7-.3a4,4,0,0,0,2.7.919c1.514,0,2-.27,4-2.162,1.541-1.432,2.622-3.162,2.622-4.108A8.921,8.921,0,0,0,173-278.5a1.154,1.154,0,0,1,.405-1.757,9.587,9.587,0,0,1,1.919-.514,3.793,3.793,0,0,0,2.243-1.135c.784-.838.811-.946.919-4.027.135-4.595-.378-5.406-3.865-6.189-1.919-.459-2.27-1.027-1.432-2.433a7.606,7.606,0,0,1,.757-1.081,6.081,6.081,0,0,0,.541-1.162c.541-1.541,0-2.649-2.433-5.081-1.7-1.7-2.27-2.108-3.189-2.243a4.873,4.873,0,0,0-3.784,1.189c-1.324,1.027-2.189.622-2.541-1.189-.324-1.811-.946-2.946-1.838-3.487C159.6-308.262,153.839-308.262,152.811-307.613Zm6.243,5a9.119,9.119,0,0,0,.649,2.351,12.019,12.019,0,0,0,4.406,1.919,6.907,6.907,0,0,0,2.378-1.081l1.7-1.054,1.243,1.27a7.44,7.44,0,0,1,1.243,1.46,10.78,10.78,0,0,1-.946,1.676c-1.3,2.027-1.27,2.568.351,5.838a1.869,1.869,0,0,0,1.27,1.135c.459.081,1.378.324,2.108.514l1.27.324v3.865l-1.676.351c-2.622.514-2.811.649-3.324,2.162a4.584,4.584,0,0,1-.7,1.514c-.595.378-.243,2.3.7,3.757a9.407,9.407,0,0,1,.946,1.7,8.389,8.389,0,0,1-1.243,1.46l-1.27,1.27-1.541-1.054a5.938,5.938,0,0,0-2.3-1.054,11.525,11.525,0,0,0-4.622,1.838,9.281,9.281,0,0,0-.649,2.27l-.351,1.838h-3.946l-.162-1.027c-.459-2.7-.73-3.108-2.568-4.027-2.324-1.135-3.3-1.135-5.054.054a10.13,10.13,0,0,1-1.622.946,6.861,6.861,0,0,1-1.568-1.351L142.46-275.1l.568-.595a18,18,0,0,0,1.27-1.865l.73-1.27-.7-1.487a9,9,0,0,1-.676-1.865c-.027-1.054-.946-1.487-4.108-2.027l-1.027-.162v-3.892l1.568-.351c3.162-.676,2.865-.432,4.243-3.595l.676-1.568-.514-1a21.145,21.145,0,0,0-1.216-1.946l-.649-.946,1.351-1.405,1.378-1.405,1.676,1.081c1.892,1.189,2.649,1.3,4.108.541a13.894,13.894,0,0,1,1.784-.811c.838-.324,1.189-1.054,1.595-3.352l.27-1.541H158.7Z" transform="translate(-101.755 308.1)" fill="#fff"/>
    <path id="Path_12028" data-name="Path 12028" d="M184.6-264.4c-3.324,1.243-4.73,2.784-6.406,6.838-.622,1.541-.351,4.892.595,6.946a10.623,10.623,0,0,0,9.19,5.946,11.5,11.5,0,0,0,7.676-3.487,13.867,13.867,0,0,0,1.514-2.46,7.465,7.465,0,0,0,.865-4.216c0-2.811-.3-3.351-1.865-3.351-1.432,0-1.784.541-1.784,2.676,0,2.946-.892,4.811-2.946,6.081a6.422,6.422,0,0,1-8.811-1.946,4.816,4.816,0,0,1-.892-3.135,5.415,5.415,0,0,1,1.514-4.676,6.465,6.465,0,0,1,5.243-2.135c2.378-.027,2.919-.324,2.919-1.568a1.566,1.566,0,0,0-1-1.757C189.521-265.106,186.061-264.971,184.6-264.4Z" transform="translate(-133.032 276.593)" fill="#fff"/>
    <path id="Path_12029" data-name="Path 12029" d="M15.7-271.443a5.8,5.8,0,0,0-3.243,2.7c-.405.865-.459,3.243-.459,25.569,0,24.19,0,24.677.541,25.7a5.6,5.6,0,0,0,1.676,1.811l1.135.757H88.706l1.162-.811c2.243-1.595,2.135-.7,2.135-17.974,0-8.406-.108-15.406-.216-15.568a1.8,1.8,0,0,0-2.811-.162c-.459.378-.487,1.46-.487,15.19,0,13.974-.027,14.811-.487,15.217-.459.432-3.351.459-36.055.459-34.082,0-35.569-.027-35.974-.487-.432-.459-.459-2.514-.459-24.136,0-23.433,0-23.65.541-24.244l.568-.595H43.055l.405-.595a1.783,1.783,0,0,0-.108-2.378l-.514-.676-13.055-.054C20.325-271.741,16.46-271.659,15.7-271.443Z" transform="translate(-12 281.552)" fill="#fff"/>
    <path id="Path_12030" data-name="Path 12030" d="M49.781-117.623a1.769,1.769,0,0,0-.27,3.189,13.515,13.515,0,0,0,3.46.3c3.622,0,4.216-.27,4.081-1.973-.054-.892-.216-1.189-.757-1.46C55.511-117.974,50.835-118,49.781-117.623Z" transform="translate(-38.727 169.301)" fill="#fff"/>
    <path id="Path_12031" data-name="Path 12031" d="M99.323-117.776a1.928,1.928,0,0,0-1.351,1.865c0,1.811-1.243,1.73,23.325,1.73,14.568,0,22.3-.081,22.622-.27a1.733,1.733,0,0,0-.324-3.216C142.73-117.965,100.134-118.073,99.323-117.776Z" transform="translate(-74.727 169.345)" fill="#fff"/>
    <path id="Path_12032" data-name="Path 12032" d="M109.649-49.432c-.595.487-.649.757-.73,3.379l-.108,2.865h-1.973c-1.757,0-2.054.081-2.405.595A2.376,2.376,0,0,0,104-41.432a2.376,2.376,0,0,0,.432,1.162l.405.595h28.6l.405-.595a2.376,2.376,0,0,0,.432-1.162,2.376,2.376,0,0,0-.432-1.162c-.351-.514-.649-.595-2.406-.595H129.46l-.108-2.865c-.081-2.622-.135-2.892-.73-3.379a1.68,1.68,0,0,0-2.406.027c-.541.514-.595.838-.595,3.379v2.838H112.649v-2.838c0-2.541-.054-2.865-.595-3.379A1.68,1.68,0,0,0,109.649-49.432Z" transform="translate(-79.134 119.705)" fill="#fff"/>
  </g>
</svg>
