<svg xmlns="http://www.w3.org/2000/svg" width="80.013" height="79.975" viewBox="0 0 80.013 79.975">
  <g id="_5" data-name="5" transform="translate(0 0)">
    <path id="Path_12033" data-name="Path 12033" d="M64.092-307.144A9.577,9.577,0,0,0,58.843-300c-.3,1.678.108,2.652,1.136,2.652.92,0,1.136-.271,1.461-2,.893-4.275,3.545-6.115,8.9-6.115,1.867,0,2.354-.352,2.219-1.542l-.081-.758-3.382-.081C65.851-307.9,65.635-307.875,64.092-307.144Z" transform="translate(-46.137 307.922)" fill="#fff"/>
    <path id="Path_12034" data-name="Path 12034" d="M119.306-307.394c-.379.731-.352,1,.162,1.488.352.352,1.136.433,4.275.433,4.248,0,4.6-.135,4.437-1.542l-.081-.758-4.248-.081C119.874-307.908,119.577-307.881,119.306-307.394Z" transform="translate(-90.122 307.927)" fill="#fff"/>
    <path id="Path_12035" data-name="Path 12035" d="M178.653-307.593a10.581,10.581,0,0,0-3.6,2.516,10.85,10.85,0,0,0-2.273,5.547c-.054,1.6.189,2.029,1.272,2.029.893,0,1.163-.352,1.353-1.759a6.579,6.579,0,0,1,1.975-4.14c1.7-1.786,2.57-2.029,7.63-2.165a26.39,26.39,0,0,0,4.816-.379,1.423,1.423,0,0,0,0-1.786C189.286-308.27,180.033-308.135,178.653-307.593Z" transform="translate(-129.31 308.073)" fill="#fff"/>
    <path id="Path_12036" data-name="Path 12036" d="M251.5-307.367a1.16,1.16,0,0,0-.027,1.218c.244.568.46.649,1.894.649,1.786,0,2.273-.352,2.138-1.542-.081-.731-.135-.758-1.894-.839C251.985-307.963,251.769-307.909,251.5-307.367Z" transform="translate(-186.598 307.956)" fill="#fff"/>
    <path id="Path_12037" data-name="Path 12037" d="M76.566-292.594c-2.083,1.055-3.572,4.113-2.679,5.466.6.92,2.273.758,2.273-.216a4.2,4.2,0,0,1,1.191-2.489c.271-.244.514-.487.541-.487.027-.027,2.219-.135,4.87-.216,5.276-.189,5.574-.271,5.2-1.732L87.795-293H82.573C78.487-293,77.215-292.919,76.566-292.594Z" transform="translate(-56.987 297.078)" fill="#fff"/>
    <path id="Path_12038" data-name="Path 12038" d="M135.569-292.4a1,1,0,0,0,.135,1.245c.379.568.622.649,2.138.649,1.921,0,2.408-.325,2.273-1.542-.081-.758-.108-.758-2.165-.839C136.056-292.964,135.84-292.91,135.569-292.4Z" transform="translate(-102.056 297.015)" fill="#fff"/>
    <path id="Path_12039" data-name="Path 12039" d="M189.9-292.125a4.668,4.668,0,0,0-2.219,3.274c-.271,1.407-.081,2.083.6,2.3a1.322,1.322,0,0,0,1.921-1.163c.352-2.138,1.488-2.787,4.924-2.787,2.3,0,2.625-.189,2.516-1.38l-.081-.92-3.274-.081C191.035-292.964,191.035-292.937,189.9-292.125Z" transform="translate(-140.097 297.015)" fill="#fff"/>
    <path id="Path_12040" data-name="Path 12040" d="M234.183-292.469a1.258,1.258,0,0,0,.271,1.569c.325.352,1.109.433,4.14.433,4.113,0,4.465-.135,4.3-1.542l-.081-.758-4.221-.081C234.914-292.9,234.346-292.848,234.183-292.469Z" transform="translate(-173.991 296.98)" fill="#fff"/>
    <path id="Path_12041" data-name="Path 12041" d="M20.491-264.465c-.46.46-.541.893-.541,2.76a11.807,11.807,0,0,0,.325,3.085c.3.866.108,7.576-.6,21.619-.216,4.167-1.055,22.783-1.082,23.594,0,.216-.352.352-.785.352a1.66,1.66,0,0,0-1.082.352,25.9,25.9,0,0,0-.46,5.006l-.189,4.654H14.43a6.79,6.79,0,0,0-2,.216c-.244.162-.325,1-.271,3.193l.081,2.949h79.82v-6.223l-1.948-.081-1.975-.081v-41.615l1.028-.189c3-.514,2.9-.46,2.976-1.515.054-.785-.027-1.055-.487-1.3a1.845,1.845,0,0,0-1.191-.162c-.6.135-2.868.433-8.686,1.109-1.786.216-4.275.514-5.547.676-3.22.406-9.064,1.028-9.118.974-.135-.108-.6-7.143-.676-9.957-.054-2.246.027-3.274.271-3.518.216-.216.325-1.245.325-2.949,0-3.707.487-3.49-8.117-3.49s-8.117-.216-8.117,3.517c0,1.7.108,2.733.3,2.868.325.189.244,5.006-.189,12.717l-.189,3-3.274.325c-1.786.189-4.113.46-5.168.6-1.028.135-2.76.352-3.815.46l-1.948.216-.162-1.245c-.081-.676-.3-4.14-.433-7.711-.162-3.572-.352-6.764-.433-7.089a1.015,1.015,0,0,1,.271-1.028c.676-.676.622-5.574-.054-6.169-.433-.406-1.38-.46-7.576-.46C21.383-265.006,21-264.979,20.491-264.465Zm12.988,2.841v.676H22.655V-262.3H33.478Zm30.846,0v.676H53.5V-262.3H64.324Zm-31.549,4.113c.081.433.271,3.68.433,7.224.162,3.572.352,7.116.433,7.9l.189,1.407-1.6.162c-.893.108-2.273.3-3.085.433s-2.435.325-3.6.433c-1.84.162-2.165.271-2.543.839a1.1,1.1,0,0,0-.108,1.353c.3.676.379.676,2.056.541l1.759-.135v24.3H24.008a8.15,8.15,0,0,1-2.706-.216c.027-.731.893-19.942,1.082-23.459.108-2.381.379-8.2.568-12.934l.352-8.577h9.308Zm30.846.135c.081.487.189,2.787.271,5.087s.244,4.924.325,5.844c.189,1.651.162,1.651-.6,1.84-.406.108-2.354.379-4.275.6-1.948.216-4.086.46-4.735.568l-1.191.162.189-2.814c.081-1.542.244-4.762.325-7.143s.189-4.492.244-4.681c.081-.243,1.272-.325,4.708-.325h4.6ZM85.7-223.743v20.7H79.206v-6.6c0-5.763-.054-6.629-.433-6.764a46.122,46.122,0,0,0-4.924-.162c-3.788,0-4.546.081-4.979.46-.433.406-.487.974-.487,6.764v6.3H67.03v-6.44c0-4.654-.081-6.521-.325-6.764-.46-.46-9.714-.46-10.174,0-.244.244-.325,2.111-.325,6.764v6.44H29.42v-34.634l.622-.108c.325-.081,1.272-.189,2.083-.3,3.6-.379,8.415-.947,10.417-1.218,1.191-.135,3.815-.46,5.817-.676,2-.244,4.573-.541,5.682-.676,1.109-.162,3.626-.46,5.547-.676,1.948-.216,4.492-.541,5.682-.676,1.191-.162,3.68-.46,5.547-.676s4.41-.514,5.682-.676c1.84-.244,4.843-.6,8.875-1.055C85.618-244.443,85.7-240.14,85.7-223.743ZM64.324-208.591v5.547H58.912v-11.094h5.412Zm12.176,0v5.547H71.088v-11.094H76.5Zm-49.786,1.759v3.788H18.867v-2.381c0-1.3.081-3,.162-3.788l.189-1.407h7.495ZM89.758-199.8v.812H14.538v-1.623h75.22Z" transform="translate(-12.141 276.661)" fill="#fff"/>
    <path id="Path_12042" data-name="Path 12042" d="M269.622-163.631c-.6.244-.622.406-.622,3.058,0,3.112.189,3.545,1.542,3.382l.758-.081.081-2.976c.054-2.57,0-3-.406-3.3C270.461-163.956,270.434-163.956,269.622-163.631Z" transform="translate(-199.5 202.885)" fill="#fff"/>
    <path id="Path_12043" data-name="Path 12043" d="M96.978-130.754c-.271.054-.487.216-.487.3a5.6,5.6,0,0,1-.162.758,1.127,1.127,0,0,0,.3,1.028c.379.379,1.326.433,7.6.433a54.531,54.531,0,0,0,7.711-.271,1.319,1.319,0,0,0,.081-2c-.352-.379-1.407-.433-7.495-.406C100.631-130.889,97.222-130.835,96.978-130.754Z" transform="translate(-73.53 178.855)" fill="#fff"/>
    <path id="Path_12044" data-name="Path 12044" d="M182.269-122.3c-.433,1.136-.325,4.762.162,5.466.379.541.622.6,3.058.6a6.9,6.9,0,0,0,2.949-.325c.216-.216.325-1.326.325-3.22,0-2.381-.081-2.922-.433-3.058a20.239,20.239,0,0,0-3.112-.162C182.566-123,182.512-123,182.269-122.3Zm3.788,2.679c0,.541-.135.676-.676.676s-.676-.135-.676-.676.135-.676.676-.676S186.057-120.159,186.057-119.618Z" transform="translate(-136.038 173.076)" fill="#fff"/>
    <path id="Path_12045" data-name="Path 12045" d="M228.325-122.675a6.82,6.82,0,0,0-.325,2.922c0,3.409.108,3.518,3.436,3.518,3.22,0,3.328-.108,3.328-3.545a6.655,6.655,0,0,0-.325-2.9C234.007-123.108,228.758-123.108,228.325-122.675Zm3.734,3.058c0,.541-.135.676-.676.676s-.676-.135-.676-.676.135-.676.676-.676S232.059-120.159,232.059-119.618Z" transform="translate(-169.594 173.076)" fill="#fff"/>
    <path id="Path_12046" data-name="Path 12046" d="M96.978-115.754c-.271.054-.487.216-.487.3a5.6,5.6,0,0,1-.162.758,1.127,1.127,0,0,0,.3,1.028c.379.379,1.326.433,7.6.433a54.531,54.531,0,0,0,7.711-.271,1.319,1.319,0,0,0,.081-2c-.352-.379-1.407-.433-7.495-.406C100.631-115.889,97.222-115.835,96.978-115.754Z" transform="translate(-73.53 167.914)" fill="#fff"/>
    <path id="Path_12047" data-name="Path 12047" d="M96.978-100.754c-.271.054-.487.216-.487.3a5.6,5.6,0,0,1-.162.758,1.127,1.127,0,0,0,.3,1.028c.379.379,1.326.433,7.6.433a54.532,54.532,0,0,0,7.711-.271,1.319,1.319,0,0,0,.081-2c-.352-.379-1.407-.433-7.495-.406C100.631-100.889,97.222-100.835,96.978-100.754Z" transform="translate(-73.53 156.972)" fill="#fff"/>
  </g>
</svg>
