<svg xmlns="http://www.w3.org/2000/svg" width="89.65" height="106.771" viewBox="0 0 89.65 106.771">
  <g id="_1_1_" data-name="1 (1)" transform="translate(-17.65 1765.752)" opacity="0.1">
    <path id="Path_12221" data-name="Path 12221" d="M73.856-1765.623c-.6.2-.95.429-1.028.671l-.067.2-1.736.024c-.962.012-1.808,0-1.905-.03a.489.489,0,0,1-.23-.169c-.048-.1-.127-.115-.508-.115-.532,0-.738-.067-.786-.26a.886.886,0,0,0-.617-.405,4.256,4.256,0,0,0-.853.581,2.679,2.679,0,0,1-1.373.744,3.313,3.313,0,0,1-1.627.109,3.118,3.118,0,0,0-1.264.036,23.706,23.706,0,0,1-3.931.06l-3.659-.036-.683.556-.689.562-.435,1.034c-.242.569-.46,1.046-.484,1.071s-.6.2-1.282.387l-1.228.345-.768.587c-.417.321-1.421,1.173-2.226,1.9l-1.464,1.312-.393-.036a1.874,1.874,0,0,0-.4-.012c0,.012.042.23.085.484a1.459,1.459,0,0,1-.024.9,2.826,2.826,0,0,1-.145.472,6.076,6.076,0,0,1-.768.091,2.355,2.355,0,0,0-1.04.212c-.29.145-.3.145-.5.042l-.194-.1-.5.266c-.46.242-.5.272-.454.417.1.387.127.369-.823.593a5.29,5.29,0,0,1-1.421.193,9.672,9.672,0,0,0-1.355.133l-.81.139-.157.224c-.109.151-.206.23-.308.23-.085.006-.569.042-1.083.079l-.931.079-.224-.236c-.248-.272-.339-.266-.641.006-.151.133-.194.242-.26.617a4.618,4.618,0,0,1-.411,1.167c-.327.708-.327.72-.26,1l.073.284-.562.865-.562.865-.2-.036c-.2-.036-.206-.024-.562.52-.29.454-.351.593-.321.714a2.191,2.191,0,0,1-.06,1.1c-.1.266-.133.29-.647.526l-.538.248v.659a2.393,2.393,0,0,1-.091.883,2,2,0,0,0-.1.635,3.067,3.067,0,0,1-.085.708,4.571,4.571,0,0,0-.127.81c-.054.629-.1.744-.393,1.064a1,1,0,0,0-.284.544,4.569,4.569,0,0,0,.157,1.917,15.115,15.115,0,0,1,.49,2.945,9.137,9.137,0,0,1-.369,2.111c-.1.375-.109.484-.048.623a.371.371,0,0,1,0,.339c-.067.145-.06.175.085.284l.157.127-.139.181c-.073.1-.236.29-.363.436l-.236.26.121.169a1.581,1.581,0,0,0,.218.248c.067.054.091.193.091.544a7.528,7.528,0,0,0,.151,1.209c.181.9.187.968.03.968-.067,0-.181.1-.272.224-.157.23-.157.23-.121,1.228l.036,1,.52,2.1.514,2.1.683.774.683.774.351.937c.2.544.671,1.578,1.125,2.48.689,1.373.774,1.573.774,1.851v.308l.314.085.314.085.224.574c.121.315.272.7.339.847l.121.272-.169.575a3.538,3.538,0,0,0-.175.974,2.017,2.017,0,0,1-.091.617,1.907,1.907,0,0,0-.024,1.058.386.386,0,0,1-.036.369c-.085.169-.085.224-.006.508.048.169.133.538.187.816l.1.5-.2.315c-.109.175-.351.544-.538.828s-.508.829-.708,1.222l-.369.7.06.484.054.484-.23.417c-.224.387-.254.417-.532.49a.82.82,0,0,0-.635.81c0,.375-.157.508-.671.556l-.4.042-.091.3a1.226,1.226,0,0,0-.067.448c.03.133.006.169-.139.218-.127.048-.236.175-.411.5l-.236.429.036.617c.036.563.03.629-.079.726a2.211,2.211,0,0,0-.363,1.125,2.01,2.01,0,0,1-.454,1.191c-.242.369-.327.448-.568.532a1.527,1.527,0,0,0-.49.321,1.245,1.245,0,0,1-.46.3c-.242.073-.254.085-.357.466-.067.236-.139.393-.187.393s-.085.006-.085.012-.03.327-.06.708a2.294,2.294,0,0,0,.006.8c.079.157-.018.321-.248.417-.145.06-.242.187-.423.55-.224.442-.254.472-.532.563-.248.085-.308.133-.333.278l-.036.169-.484-.03c-.429-.03-.5-.018-.671.1a.522.522,0,0,1-.405.109c-.206-.024-.224-.012-.454.357-.212.333-.266.381-.429.387a2.365,2.365,0,0,0-.52.1c-.3.1-.333.121-.393.345a2.607,2.607,0,0,1-1.167,1.113.91.91,0,0,0-.5.435,1.984,1.984,0,0,0-.242.405c0,.036-.1.121-.218.194-.187.121-.206.157-.175.308.024.1.018.175-.012.175a.427.427,0,0,0-.163.079c-.1.079-.091.109.23.448l.339.363.774-.163a3.117,3.117,0,0,0,.962-.3c.157-.109.206-.121.321-.06a.781.781,0,0,0,.417.03.7.7,0,0,1,.55.115,1.665,1.665,0,0,0,.333.157c.036,0,.121-.139.194-.3.1-.224.163-.3.254-.3A5.914,5.914,0,0,1,24-1683.124c.575.5.617.514,1.077.339.127-.054.163-.1.139-.187-.03-.109-.018-.109.109-.042a5.135,5.135,0,0,1,.95,1.058c.1.157.3.405.417.556a3.145,3.145,0,0,1,.381.611c.145.339.151.345.538.448.357.1.393.121.466.327a1.8,1.8,0,0,0,.242.429,3.661,3.661,0,0,1,.3.472c.127.248.127.272.036.381a1.393,1.393,0,0,0-.073.919,4.336,4.336,0,0,0,.81,1.028.426.426,0,0,1,.079.29,6.555,6.555,0,0,0,.224,1.584,1,1,0,0,0,.308.308c.224.139.23.157.3.647a1.324,1.324,0,0,1,.006.623,6.016,6.016,0,0,0,.073,1.669,2.4,2.4,0,0,0,.248.508,1.976,1.976,0,0,1,.224.514,9.017,9.017,0,0,0,.877,1.808.864.864,0,0,1,.194.611,1.182,1.182,0,0,0,.1.5,1.31,1.31,0,0,1,.133.369,1.1,1.1,0,0,0,.254.46.484.484,0,0,1,.169.514.536.536,0,0,0,.1.49.75.75,0,0,0,.248.242c.06.024.115.133.139.278a1.035,1.035,0,0,0,.677.72.643.643,0,0,1,.369.29,2.923,2.923,0,0,0,1.179.78.553.553,0,0,1,.314.254,1.206,1.206,0,0,0,.7.581,2.529,2.529,0,0,1,1.361.931c.194.272.242.3.738.448a1.757,1.757,0,0,0,1.264.067,1.077,1.077,0,0,1,.5-.054,2.439,2.439,0,0,0,1.246-.054,1.276,1.276,0,0,1,.6-.109,1.815,1.815,0,0,1,1.548.925c.145.224.242.3.381.327.1.018.321.054.478.085a1.286,1.286,0,0,0,.417.018,1.259,1.259,0,0,1,.484.145c.314.151.375.206.484.466a.881.881,0,0,0,.943.526.927.927,0,0,0,.417-.067c.048-.048.121-.036.26.036a.557.557,0,0,0,.387.06c.1-.018.266-.042.357-.048.206-.012.49-.405.55-.75.133-.762.163-.853.266-.823a.281.281,0,0,0,.224-.1c.109-.121.121-.224.121-.962.006-1.149.036-1.246.387-1.373a1.523,1.523,0,0,0,.774-.653c.091-.139.169-.26.181-.272s.048.006.091.042a1.279,1.279,0,0,0,.744.151.813.813,0,0,0,.363-.175c.133-.121.151-.187.151-.556,0-.327.024-.436.109-.52.109-.091.115-.091.181.054a.463.463,0,0,0,.212.206,11.13,11.13,0,0,0,1.56-.006c.78-.03,2.486-.048,3.792-.036l2.371.018.024-.181c.018-.1.06-.9.1-1.784s.109-2.3.157-3.145.085-1.687.067-1.863c-.036-.321-.036-.327.169-.411a1.174,1.174,0,0,1,.26-.085c.091,0,.236.478.339,1.089a4.953,4.953,0,0,0,.181.792c.085.194.127.224.411.284s.339.048.514-.067a1.776,1.776,0,0,0,.5-.9.876.876,0,0,1,.345-.689c.278-.181.321-.151.532.381a6.153,6.153,0,0,0,.345.72l.175.321h.369a1.152,1.152,0,0,0,.659-.163c.321-.181.387-.308.46-.877.03-.266.067-.314.405-.593.29-.242.411-.3.587-.3.121,0,.345-.018.5-.036.26-.036.3-.024.46.145a1.16,1.16,0,0,0,.333.254,2.612,2.612,0,0,0,1.083.006c.121-.048.163-.036.187.036s.1.085.387.054c.187-.018.375-.036.405-.042a1.74,1.74,0,0,1,.587.23,4.578,4.578,0,0,0,1.578.321,3.115,3.115,0,0,0,.829-.121c.387-.127.387-.127.665-.006a2.119,2.119,0,0,0,1.663-.012c.4-.115.774-.224.835-.254.085-.036.284.127.968.8.472.46,1.058,1.028,1.3,1.264l.441.417,1.07.036c.587.018,1.984.042,3.1.042a7.666,7.666,0,0,0,2.141-.079.5.5,0,0,1,.248-.091c.181,0,1-.847.968-1-.012-.06-.036-.187-.06-.278a.337.337,0,0,0-.23-.248c-.151-.067-.23-.163-.351-.448l-.157-.363.4-.121a8.953,8.953,0,0,1,1.548-.321,4.424,4.424,0,0,0,.756-.187,4.011,4.011,0,0,1,.7-.212,4.275,4.275,0,0,0,.853-.333l.429-.236h1.754l.357-.248a4.635,4.635,0,0,0,.387-.3,1.571,1.571,0,0,1,.919-.272c.314-.006.441-.036.544-.127a3.252,3.252,0,0,1,1-.448.448.448,0,0,0,.224-.085,1.3,1.3,0,0,1,.375-.121l.254-.036-.163.351a.936.936,0,0,1-.314.429,1.7,1.7,0,0,0-.3.194l-.151.127.2.357c.151.272.194.405.163.532a.229.229,0,0,0,.054.242.656.656,0,0,1,.048.72,2.652,2.652,0,0,0-.157.393c-.036.163-.024.175.417.375a1.5,1.5,0,0,1,.49.3.211.211,0,0,0,.175.091c.079,0,.163.024.181.061a.321.321,0,0,0,.218.06c.109,0,.175.03.175.085,0,.115.254.163.762.151a2.086,2.086,0,0,1,.593.061.549.549,0,0,0,.454-.024,2.438,2.438,0,0,1,.611-.085,2.636,2.636,0,0,0,.484-.024.654.654,0,0,1,.314.054c.1.054.175.06.2.024a.191.191,0,0,1,.157-.06,1.526,1.526,0,0,0,.5-.3c.284-.224.435-.3.587-.3a.939.939,0,0,0,.357-.091,1.163,1.163,0,0,1,.429-.091c.242,0,.29-.018.321-.139.115-.429-.1-.738-.5-.72a.775.775,0,0,1-.369-.073c-.139-.079-.133-.085.333-.393a2.985,2.985,0,0,0,.617-.526c.151-.224.175-.236.4-.145.145.054.175.036.327-.169l.163-.23.236.169a.773.773,0,0,0,.841.145.772.772,0,0,1,.29-.1.519.519,0,0,0,.472-.351.889.889,0,0,1,.774-.568,1.218,1.218,0,0,0,.466-.133c.145-.091.157-.133.157-.526v-.423l-.405-.194a2.306,2.306,0,0,0-1.077-.224c-.629-.036-1.016-.121-.986-.224a.454.454,0,0,0-.03-.175,2.588,2.588,0,0,1,.1-.756l.151-.623-.224-.248c-.2-.212-.224-.272-.206-.514.006-.151.018-.315.018-.363a.607.607,0,0,0-.036-.218c-.06-.187.484-.81.671-.768a2.827,2.827,0,0,0,1.119-.5.848.848,0,0,0,.139-.333.618.618,0,0,1,.127-.3c.151-.121.109-.242-.236-.659a3.751,3.751,0,0,1-.792-1.56,6.631,6.631,0,0,0-1.083-1.953l-.883-1.343-.3-1.052a23.331,23.331,0,0,1-.526-2.431l-.23-1.373-1.391-1.439-1.4-1.445-.145-.575-.145-.574-.659-.683c-.4-.417-.647-.72-.617-.762s.085-.665.139-1.4c.1-1.264.1-1.331-.006-1.421s-.109-.206-.073-1.573a6.162,6.162,0,0,0-.073-1.869,1,1,0,0,0-.381-.635c-.278-.236-.278-.236-.81-.236a1.763,1.763,0,0,0-1.149.314l-.617.315-1.058.012a4.52,4.52,0,0,0-1.464.139l-.405.133-.593-.212a6.34,6.34,0,0,1-1.6-.708c-.024-.048-.127-.26-.236-.478-.411-.865-.593-1.173-.738-1.246a.423.423,0,0,1-.181-.175,1.628,1.628,0,0,0-.369-.3c-.278-.175-.393-.314-.81-.98a4.669,4.669,0,0,1-1.04-2.982l-.139-1.367.611-.9a7.93,7.93,0,0,0,.877-1.6,2.7,2.7,0,0,0,.206-1.911l-.115-.435.169-.321.169-.327.006-1.542c.006-.847.03-1.645.06-1.772a9.826,9.826,0,0,0-.206-1.959,6.2,6.2,0,0,0-.623-.52l-.587-.448-.847-.169-.853-.169-.708.139c-.393.079-.913.188-1.161.248a3.77,3.77,0,0,1-1.978-.06l-.792-.169-.732-.659-.732-.659-2.056-.907-2.062-.907-.3-.7-.3-.7.175-.786a15.042,15.042,0,0,0,.266-1.82,7,7,0,0,1,.538-2.359c.242-.726.575-1.675.732-2.1l.29-.78.448-.369c.242-.206.835-.8,1.3-1.312a14.261,14.261,0,0,1,1.222-1.21c.206-.145.823-.659,1.379-1.131a7.2,7.2,0,0,0,1.548-1.615c.3-.417.641-.925.762-1.137.194-.345.3-.448,1.179-1.1l.968-.726,1.01-2.691c.55-1.488,1.022-2.728,1.046-2.77s.363-.429.762-.871a11.364,11.364,0,0,0,.744-.865c.012-.042-.157-.1-.423-.151a2.967,2.967,0,0,1-.762-.254,4.713,4.713,0,0,0-.847-.321,2.061,2.061,0,0,1-1.276-.762.417.417,0,0,0-.357-.272c-.121-.024-.29-.06-.375-.085a2.432,2.432,0,0,1-.816-1.064,2.1,2.1,0,0,0-.611-.774,4.837,4.837,0,0,1-1.131-1.572,2.145,2.145,0,0,1-.308-1.99c.079-.151.067-.212-.157-.78s-.236-.641-.169-.817a.591.591,0,0,0-.036-.478c-.121-.314-.212-.375-.393-.272-.163.085-.163.054.024-.665.133-.52.139-.581.048-.677a.232.232,0,0,1-.06-.194c.036-.091-.327-.46-.454-.46a.564.564,0,0,1-.224-.187.7.7,0,0,0-.363-.224c-.26-.054-.369-.206-.26-.375s.1-.187-.1-.411a.466.466,0,0,0-.4-.193,3.7,3.7,0,0,1-.738-.157,2.5,2.5,0,0,0-.98-.139c-.448.024-.46.018-.448-.115a1.4,1.4,0,0,1,.175-.375c.1-.145.139-.266.109-.3a3.4,3.4,0,0,0-1.2-.187,9.047,9.047,0,0,1-1.155-.121A2.44,2.44,0,0,0,73.856-1765.623Zm1.421.581a8.924,8.924,0,0,0,1.137.121,1.222,1.222,0,0,1,.405.036,1.087,1.087,0,0,1-.157.236l-.151.2.2.151c.532.393.635.423,1.119.381a2.254,2.254,0,0,1,1.016.127l.562.163.1.314c.1.327.411.641.647.653.067.006.157.1.224.218.073.151.139.212.242.206s.133.03.133.127a.324.324,0,0,0,.067.194c.048.048.042.157-.006.4-.109.478-.133.5-.345.345a.472.472,0,0,0-.726.115c-.157.23-.145.284.091.333.133.03.163.073.175.236.036.5.067.865.085.949.018.061-.1.127-.369.218-.526.181-.6.175-.829-.048l-.2-.194-.272.266c-.266.26-.339.435-.212.514.048.03.042.067-.006.127s-.163.073-.478.048c-.532-.054-.671-.012-.81.23a3.627,3.627,0,0,1-.441.538.824.824,0,0,0-.29.974c.079.381.024.429-.327.272l-.3-.133-.042-.574a4.993,4.993,0,0,0-.067-.659c-.054-.163-.187.048-.266.417-.073.345-.085.363-.339.46s-.314.1-1.028-.006-.768-.121-.877-.278l-.121-.169-.3.163c-.163.091-.3.2-.3.242a2.527,2.527,0,0,0,.3.514,13.272,13.272,0,0,1,.913,1.591c0,.03-.06.061-.133.073-.8.085-.823.085-1.01-.054-.133-.1-.169-.157-.121-.212s.024-.139-.048-.29c-.1-.206-.1-.23,0-.393s.091-.181.006-.3a.307.307,0,0,0-.206-.133.751.751,0,0,1-.26-.067c-.121-.054-.2-.03-.514.163s-.4.212-.526.157a.23.23,0,0,1-.151-.218c0-.218-.145-.23-.411-.036-.3.218-.435.405-.435.617,0,.121-.03.169-.109.169-.175,0-.254.339-.157.7.079.308.067.387-.054.387a1.216,1.216,0,0,0-.308.206c-.224.193-.242.2-.411.115-.115-.06-.2-.073-.248-.03a.73.73,0,0,1-.284.1c-.194.036-.242.012-.593-.3-.26-.236-.417-.333-.5-.308a.283.283,0,0,1-.248-.115.461.461,0,0,0-.218-.145c-.042,0-.151-.115-.236-.26a1.794,1.794,0,0,0-.4-.429c-.212-.151-.272-.169-.417-.115a.83.83,0,0,1-.448.012.664.664,0,0,0-.448.03c-.206.109-.345.036-.4-.2-.067-.3-.175-.339-.357-.115-.139.175-.157.181-.157.073a.539.539,0,0,0-.109-.272.572.572,0,0,1-.133-.6,1.111,1.111,0,0,0-.06-.689,1.248,1.248,0,0,1-.012-.95,2.525,2.525,0,0,0,.067-.9,1.192,1.192,0,0,1,.157-.726c.157-.175.212-.568.272-2.086.03-.768.054-1.4.06-1.409a.42.42,0,0,1,.139-.012,7.371,7.371,0,0,0,.877-.194l.744-.187.677-.532c.653-.508.677-.52.75-.4.145.278.423.411.913.448a1.593,1.593,0,0,1,.556.109,2.509,2.509,0,0,0,.5.212,1.075,1.075,0,0,0,.7.067c.163-.03.986-.061,1.826-.067a10.484,10.484,0,0,0,1.6-.061.9.9,0,0,0,.151-.3c.091-.266.3-.423.774-.568C74.455-1765.181,74.431-1765.181,75.277-1765.042ZM63.52-1763.6a29.027,29.027,0,0,1-.1,2.909.736.736,0,0,0-.03.236.419.419,0,0,1-.127.23c-.151.163-.187.375-.169,1.089a1.032,1.032,0,0,1-.085.574,1.458,1.458,0,0,0,.018,1.077,1.083,1.083,0,0,1,.054.641.915.915,0,0,0-.024.351.175.175,0,0,1-.079.2.418.418,0,0,0-.145.254c-.054.26-.175.284-.448.1a.943.943,0,0,0-.327-.157,1.239,1.239,0,0,1-.363-.145,2.082,2.082,0,0,0-.556-.187.635.635,0,0,1-.472-.242.425.425,0,0,0-.387-.194.686.686,0,0,1-.429-.157c-.157-.109-.254-.139-.3-.1-.109.091-.623-.1-.986-.375a1.084,1.084,0,0,0-.756-.272,6.107,6.107,0,0,1-.768-.115,2.751,2.751,0,0,0-.575-.085,1.3,1.3,0,0,1-.484-.121c-.544-.278-1.306-.048-2.226.659a2.08,2.08,0,0,1-1.228.29c-.1-.018-.363-.079-.593-.127-.435-.091-.581-.079-.581.054a.287.287,0,0,1-.1.175,16.625,16.625,0,0,0-.351,3.617l.036.593h-.187c-.115,0-.206.036-.224.091-.054.139-.514.121-.647-.03a.571.571,0,0,0-.653-.036.336.336,0,0,1-.242.036,3.639,3.639,0,0,0-.52-.151c-.429-.1-.435-.1-.708.03a.694.694,0,0,1-.333.1.8.8,0,0,1-.133-.266c-.224-.7-.429-.883-.974-.865-.272.006-.381-.012-.435-.085a.672.672,0,0,0-.708-.067.574.574,0,0,1-.266.1c-.266,0-.272-.06-.091-.786a6.314,6.314,0,0,0,.181-.9c0-.151.018-.193.091-.163a9.868,9.868,0,0,0,1.633-1.349c.841-.762,1.869-1.645,2.28-1.959l.744-.568,1.324-.369c.732-.206,1.343-.393,1.367-.417s.248-.532.49-1.125l.448-1.077.562-.46.556-.453,3.586.036a23.035,23.035,0,0,0,3.852-.048,2.475,2.475,0,0,1,.907-.054A3.158,3.158,0,0,1,63.52-1763.6Zm17.109,2.849c.024,0,.06.073.079.163a.7.7,0,0,0,.248.321.409.409,0,0,1,.206.272,3.21,3.21,0,0,0,.218.708c.194.508.218.6.151.726a2.657,2.657,0,0,0,.411,2.286,5.263,5.263,0,0,0,1.2,1.724,2.577,2.577,0,0,1,.569.689,7.215,7.215,0,0,0,.466.762c.272.387.314.429.671.55a1.37,1.37,0,0,1,.6.369,3.039,3.039,0,0,0,1.373.75,2.933,2.933,0,0,1,1.022.435c.115.085.1.109-.333.581l-.46.49-1.016,2.728-1.022,2.728-.937.708c-.9.671-.95.72-1.246,1.216a8.729,8.729,0,0,1-2.038,2.462l-.859.738-.375-.272a4.462,4.462,0,0,0-1.536-.659,1.892,1.892,0,0,1-.484-.151,3.584,3.584,0,0,1-.907-.683.566.566,0,0,1,.115-.212,3.545,3.545,0,0,0,.484-1.228c-.042-.067-.321-.079-1.445-.067l-1.4.024-.236-.157a1.756,1.756,0,0,0-1.1-.339,1.551,1.551,0,0,1-.593-.091.714.714,0,0,0-.435-.054c-.26.036-.272.03-.617-.327-.429-.448-.484-.526-.575-.817a2.782,2.782,0,0,0-.448-.647c-.206-.23-.484-.556-.617-.726s-.29-.351-.351-.411a2.391,2.391,0,0,0-.647-.526c-.085-.024-.121-.091-.121-.212,0-.145.036-.182.212-.242a.667.667,0,0,0,.308-.212.194.194,0,0,1,.212-.109c.242.067.9-.314.9-.52a.363.363,0,0,0-.121-.218c-.206-.187-.206-.321-.006-.55.23-.254.23-.327.036-.5a.43.43,0,0,1-.151-.212,1.021,1.021,0,0,0-.218-.333c-.115-.139-.194-.278-.175-.314.042-.073-.091-.314-.314-.55a1.023,1.023,0,0,1-.2-.508,1.438,1.438,0,0,0-.242-.617.55.55,0,0,1-.151-.526.483.483,0,0,0-.079-.442l-.121-.169.145-.169c.254-.3.139-.562-.187-.417-.115.054-.151.048-.181-.03a.178.178,0,0,1,.266-.206c.145.079.181.067.52-.206a1.625,1.625,0,0,1,.375-.236.515.515,0,0,0,.224-.193c.091-.139.091-.169-.006-.448l-.1-.3.163-.151a.448.448,0,0,0,.163-.314.573.573,0,0,1,.127-.308l.133-.133.175.145c.236.2.441.187.847-.024.369-.2.635-.2.532-.006a.489.489,0,0,0,.036.435.7.7,0,0,1,.036.29c-.012.188.018.248.218.405a.771.771,0,0,0,.653.193c.23,0,.514-.006.629-.018a2.736,2.736,0,0,1,.272-.03c.036-.006.1-.091.145-.194.079-.181.073-.218-.151-.671a7.967,7.967,0,0,0-.611-1c-.375-.526-.405-.726-.085-.5a3.488,3.488,0,0,0,2.056.224c.327-.121.308-.127.308.054,0,.127.067.188.448.375s.472.212.6.157c.187-.085.266-.5.157-.859l-.073-.242.478-.514c.508-.55.635-.6,1.022-.46.121.048.206.036.387-.061.387-.193.448-.278.339-.484-.079-.151-.079-.175.006-.242s.127-.048.3.073l.218.157.49-.151c.266-.085.55-.175.629-.206a.35.35,0,0,0,.175-.411,3.9,3.9,0,0,1-.054-1.083c.018-.091.067-.127.121-.109A.525.525,0,0,0,80.63-1760.748Zm-24.669,2.994a1.93,1.93,0,0,0,.544.121c.212.018.508.06.659.091s.423.073.611.091a1.124,1.124,0,0,1,.659.272,2.605,2.605,0,0,0,1.131.448.964.964,0,0,1,.29.079,1.24,1.24,0,0,0,.327.1.931.931,0,0,1,.393.212.858.858,0,0,0,.429.218,2.871,2.871,0,0,1,.569.194,2.117,2.117,0,0,0,.387.145,1.548,1.548,0,0,1,.357.188c.212.139.333.175.441.151a.732.732,0,0,0,.393-.538c0-.212.163-.1.212.145a.344.344,0,0,0,.381.272.18.18,0,0,1,.194.085c.073.139.441.193.671.1a.577.577,0,0,1,.429-.018.574.574,0,0,0,.381-.006c.121-.054.163-.042.321.127.248.26.587.593.738.726.23.2.115.417-.254.49a.269.269,0,0,0-.2.175,1.623,1.623,0,0,1-.314.411l-.272.284.1.193a.488.488,0,0,1,.079.212c-.012.006-.163.091-.339.175-.266.133-.351.151-.526.1s-.242-.03-.484.121c-.308.2-.333.3-.151.659.127.254.163.544.06.544-.03,0-.06-.048-.06-.115a.257.257,0,0,0-.085-.181c-.115-.1-.272-.018-.623.3a.889.889,0,0,1-.375.236c-.175,0-.381.284-.308.423a.615.615,0,0,1,.06.266c0,.139-.018.151-.175.121s-.194-.006-.278.121c-.06.085-.127.139-.163.121s-.175.067-.321.188c-.23.181-.29.206-.393.151a.219.219,0,0,0-.187-.024c-.036.018-.139-.036-.236-.127-.145-.139-.194-.157-.345-.109s-.169.085-.163.333a.8.8,0,0,0,.351.756c.181.091.278.188.278.266s-.327.1-.429.048c-.073-.036-.145-.018-.242.06-.212.163-.327.1-.175-.1.26-.333.048-.641-.448-.659-.357-.006-.448-.067-.526-.333-.212-.69-.756-.466-.689.278.012.133.042.411.067.617l.036.381h-.417a1.145,1.145,0,0,1-.532-.085.745.745,0,0,0-.75-.036.745.745,0,0,1-.345.139,1.752,1.752,0,0,0-.5.2l-.3.169-.357-.115c-.55-.182-.714-.139-1.288.339-.266.218-.284.224-.429.133a.947.947,0,0,1-.272-.314.342.342,0,0,0-.345-.236c-.194-.018-.242-.048-.3-.2-.048-.133-.115-.187-.308-.242-.611-.163-.708-.254-.708-.677a2.631,2.631,0,0,0-.635-1.167c-.085-.054-.151-.133-.151-.175a.541.541,0,0,0-.115-.218.272.272,0,0,1-.067-.272.5.5,0,0,0-.073-.387c-.109-.218-.145-.248-.278-.212-.163.042-.284-.085-.411-.423-.036-.1-.091-.23-.115-.29-.042-.1-.018-.109.272-.1.254.012.333-.006.405-.1a.342.342,0,0,1,.278-.115H51.2l.012-1.149c.006-.635.024-1.2.042-1.27.03-.121.079-.568.133-1.282a2.17,2.17,0,0,1,.1-.538c.073-.157.085-.157.411-.109a5,5,0,0,0,1.585-.03A1.68,1.68,0,0,0,54-1757.2a2.5,2.5,0,0,1,1-.55A1.064,1.064,0,0,1,55.961-1757.754ZM67.409-1754a1.571,1.571,0,0,0,.441.272c.048,0,.067.03.048.067s.012.121.079.193a.762.762,0,0,1,.2.563.325.325,0,0,0,.151.26c.151.121.163.145.1.351s-.054.248.1.49c.3.484.314.526.314.816a.561.561,0,0,0,.242.532c.181.181.242.29.242.442a.483.483,0,0,0,.181.369.562.562,0,0,1,.181.272.367.367,0,0,0,.121.212c.157.145.151.169-.054.411-.175.193-.175.212-.091.381a2.579,2.579,0,0,0,.187.284c.115.121.109.133-.175.248-.2.085-.224.085-.321-.024-.169-.187-.314-.151-.357.085a.4.4,0,0,1-.387.375.5.5,0,0,0-.242.109,1.475,1.475,0,0,0-.018.49c.036.411.042.423.212.441s.272.1.623.454a2.806,2.806,0,0,1,.581.677,1.9,1.9,0,0,0,.4.442,1,1,0,0,1,.369.5,1.861,1.861,0,0,0,.3.526c.133.157.333.405.435.55a.71.71,0,0,0,.786.321.513.513,0,0,1,.411.061,1.445,1.445,0,0,0,.629.109,1.223,1.223,0,0,1,.913.248,1.28,1.28,0,0,0,.816.206,9.5,9.5,0,0,0,1.3-.018c.393-.036.726-.054.738-.048a2.173,2.173,0,0,1-.411.859c-.266.284-.236.478.121.816a2.874,2.874,0,0,0,1.4.726,4.432,4.432,0,0,1,1.53.683l.175.139-.387.284a13.471,13.471,0,0,0-1.246,1.222,17.733,17.733,0,0,1-1.361,1.361l-.5.417-.448,1.24c-.248.683-.466,1.246-.478,1.246a2.9,2.9,0,0,1-.345-.266,4.69,4.69,0,0,0-.7-.5,1.053,1.053,0,0,0-.786-.218,1.156,1.156,0,0,1-.877-.278,7.042,7.042,0,0,1-.7-.454,1.1,1.1,0,0,0-.266-.163.459.459,0,0,1-.175-.115,8.81,8.81,0,0,0-2.1-.677,12.221,12.221,0,0,1-1.191-.272c-1.089-.3-1.47-.345-1.826-.206a2.476,2.476,0,0,1-1.633-.145,1.855,1.855,0,0,0-.435-.157,1.9,1.9,0,0,1-.508-.308,4.87,4.87,0,0,0-.816-.5,4.493,4.493,0,0,1-1.191-.871c-.139-.139-.145-.169-.109-.6a.891.891,0,0,1,.357-.8,4.688,4.688,0,0,0,.52-.647,1.872,1.872,0,0,1,.351-.429c.133-.1.145-.133.085-.242a.606.606,0,0,0-.314-.206.643.643,0,0,1-.339-.212c-.091-.133-.079-.151.218-.429.375-.357.4-.514.091-.617a2.091,2.091,0,0,0-.575-.079,1.051,1.051,0,0,1-.357-.042,2.535,2.535,0,0,1,.054-.254c.06-.254-.024-.387-.175-.29a.659.659,0,0,1-.6-.03,3.54,3.54,0,0,1,.581-1.911.913.913,0,0,1,.375-.145c.242-.042.26-.054.224-.194a2.11,2.11,0,0,0-.151-.375c-.067-.121-.194-.381-.29-.587-.194-.387-.514-.72-.665-.659a2,2,0,0,1-.532-.061,1.307,1.307,0,0,0-1.01.085c-.036.036-.1.03-.194-.03a2.3,2.3,0,0,0-.429-.193,3.416,3.416,0,0,1-.538-.26l-.242-.145.532-.018.532-.018-.036-.466a3.241,3.241,0,0,0-.1-.623,1.017,1.017,0,0,1-.036-.363l.024-.206.1.23c.181.4.623.714.738.526.036-.061.254-.03.333.042.018.018-.067.1-.181.2-.242.193-.218.248.224.544.321.218.417.224.466.042.024-.115.073-.133.339-.139.423,0,.575-.151.478-.448s-.278-.532-.435-.556a.168.168,0,0,1-.151-.157c-.018-.121-.006-.133.091-.085a1.859,1.859,0,0,0,.423.1.527.527,0,0,0,.532-.127c.163-.121.236-.145.284-.1.127.127.218.079.3-.139.1-.266.169-.248.278.067s.224.387.514.363a.713.713,0,0,0,.6-.472l.115-.218-.321-.308c-.2-.2-.351-.3-.417-.284s-.109-.012-.109-.091c0-.061.03-.115.073-.115a1.284,1.284,0,0,0,.357-.278c.266-.26.284-.272.327-.151a.512.512,0,0,0,.187.23c.194.127.254.067.393-.381.109-.339.1-.351-.024-.568-.109-.194-.115-.242-.048-.327s.139-.091.272-.06a2,2,0,0,0,1.119-.4l.242-.181-.115-.194-.115-.2.3-.32a1.471,1.471,0,0,1,.387-.315.774.774,0,0,0,.278-.236,1.334,1.334,0,0,1,.242-.242A1.961,1.961,0,0,1,67.409-1754Zm-23.006.151a.774.774,0,0,0,.871.091.247.247,0,0,1,.405.133c.042.115.085.139.163.1a1.8,1.8,0,0,1,.762-.06c.109.024.194.157.375.55.212.478.333.641.466.617a1.812,1.812,0,0,1,.405.762.961.961,0,0,0,.441.587,1.765,1.765,0,0,1,.508,1.155c.03.308.024.345-.091.381-.091.03-.163.145-.23.369l-.1.327.175.363.181.357-.46.49c-.508.55-.617.593-.919.333-.351-.29-.581-.061-.411.417a12.631,12.631,0,0,1,.242,1.506.1.1,0,0,1-.091.109c-.048,0-.151.121-.224.266a1.315,1.315,0,0,1-.351.411.362.362,0,0,0-.212.4.435.435,0,0,1-.157.393.847.847,0,0,0-.351.635.988.988,0,0,1-.345.7.383.383,0,0,0-.145.254,1.857,1.857,0,0,1-.441.8l-.175.224.3.26.29.26-.139.1a.235.235,0,0,0-.1.29.583.583,0,0,1-.073.393,1.254,1.254,0,0,0-.091.575,1.164,1.164,0,0,1-.206.81c-.067.073-.194.085-.683.054a2.243,2.243,0,0,1-1.137-.29l-.538-.254-.484.139a6.933,6.933,0,0,1-2.093.157l-1.6.018-.284-.284c-.278-.272-.29-.278-.423-.181a.915.915,0,0,1-.8.218,6.274,6.274,0,0,0-.865-.054l-.562-.006-.393-.3a7.72,7.72,0,0,0-.677-.466c-.157-.091-.4-.254-.538-.357-.623-.478-1.409-.5-1.409-.048,0,.224-.1.224-.236-.006s-.284-.272-.411-.145c-.091.091-.381-.018-.538-.193a.636.636,0,0,0-.321-.151,1.667,1.667,0,0,1-.95-.484,1.231,1.231,0,0,0-.435-.3.427.427,0,0,1-.236-.109,3.246,3.246,0,0,1,.079-1.228,2.837,2.837,0,0,0,.109-.732l.018-.532.448-.218c.441-.218.454-.224.629-.635a2.052,2.052,0,0,0,.181-.992c0-.508.024-.6.145-.78s.175-.194.3-.169a.4.4,0,0,0,.23-.006c.03-.024.393-.556.8-1.179l.744-1.137-.079-.315c-.073-.314-.073-.32.206-.913a5.664,5.664,0,0,0,.345-.943l.067-.357.163.121c.157.115.181.115,1.458.018l1.3-.1.218-.242c.206-.23.254-.248.847-.357a3.807,3.807,0,0,1,1.052-.085,3.706,3.706,0,0,0,1.264-.151l.841-.187.169.163.163.157.345-.52a1.471,1.471,0,0,0,.321-.629c-.054-.187.151-.272.369-.151.175.1.187.1.593-.091a2.354,2.354,0,0,1,1.077-.248c.369-.03.677-.054.7-.054A.891.891,0,0,1,44.4-1753.854Zm4.312,1.324a.4.4,0,0,1,.2.157c.054.127.133.115.339-.067.23-.187.448-.175.423.024a.6.6,0,0,0,.1.308.413.413,0,0,1,.091.284.392.392,0,0,0,.139.308c.091.1.206.236.248.284a.273.273,0,0,0,.194.1c.157,0,.2.091.115.248-.054.109-.042.157.06.3a.635.635,0,0,1,.127.23c0,.036.1.139.212.23a2.033,2.033,0,0,1,.641,1.216,2.505,2.505,0,0,0,.091.442,1.391,1.391,0,0,0,.623.3c.194,0,.308.067.308.175,0,.157.127.248.345.248a.387.387,0,0,1,.272.1,9.941,9.941,0,0,0,.726.732,3.136,3.136,0,0,1,.417.532c.206.321.224.375.151.484a.5.5,0,0,1-.345.157,1.526,1.526,0,0,0-.478.151c-.187.1-.333.115-1.155.115-.7,0-.968.018-1.04.085-.175.139-.187.46-.042.853a.9.9,0,0,1-.042.919c-.048.042-.369.212-.7.381l-.617.3.018.448c.018.466.163.865.339.931a1.171,1.171,0,0,1,.224.478,1.6,1.6,0,0,0,.4.72l.266.284-.187.157c-.218.181-.314.193-.665.066a1.729,1.729,0,0,0-.448-.091,2.029,2.029,0,0,0-1.046.6,1.715,1.715,0,0,0-.079.562v.417l-.339.369c-.339.381-.363.454-.236.774.024.06-.03.121-.175.188a2.288,2.288,0,0,0-.411.284.45.45,0,0,1-.508.139c-.435-.073-.6-.018-.6.206a2.007,2.007,0,0,1-.254.883c-.012.03.054.115.145.2l.163.151h-.151a.3.3,0,0,0-.236.127c-.073.1-.109.115-.254.06-.091-.036-.163-.091-.163-.127a5.123,5.123,0,0,0-.81-.847,2.6,2.6,0,0,1-.351-.242,1.335,1.335,0,0,0-.417-.242c-.054,0-.127-.067-.163-.151s-.1-.151-.133-.151-.06-.073-.06-.157.024-.139.06-.115c.073.042.423-.151.423-.236a.361.361,0,0,0-.091-.157c-.085-.091-.06-.139.242-.52.5-.629.569-.8.587-1.3a1.629,1.629,0,0,1,.121-.653.954.954,0,0,0,.109-.351.233.233,0,0,1,.06-.169c.036-.018.06-.145.06-.272,0-.2-.03-.248-.212-.363-.236-.145-.254-.193-.121-.3a.255.255,0,0,0,.091-.151.864.864,0,0,1,.175-.3.512.512,0,0,0,.145-.333.191.191,0,0,1,.085-.193,1.2,1.2,0,0,0,.381-.774c0-.218.169-.49.3-.49.079,0,.242-.405.242-.6a.222.222,0,0,1,.151-.23.8.8,0,0,0,.272-.315c.067-.133.157-.242.206-.242a.288.288,0,0,0,.169-.109c.085-.091.085-.181-.018-.889a6.382,6.382,0,0,0-.175-.925c-.073-.163.006-.175.109-.012a.177.177,0,0,0,.224.091c.085-.018.212-.042.29-.061a3.593,3.593,0,0,0,.7-.635c.514-.556.556-.617.472-.714a2.3,2.3,0,0,1-.224-.369.53.53,0,0,1,.157-.762l.212-.181-.091-.484a2.305,2.305,0,0,0-.538-1.246c-.218-.115-.405-.308-.405-.429a1.746,1.746,0,0,0-.181-.472c-.1-.2-.181-.375-.181-.393C47.79-1752.692,48.316-1752.68,48.715-1752.529Zm14.721,2.558c.169.157.175.242.036.363-.212.175-.321.175-.387,0-.036-.091-.091-.212-.121-.272-.042-.085-.024-.115.079-.163C63.248-1750.122,63.278-1750.116,63.436-1749.971Zm-5.9,1.923a.062.062,0,0,1,.054.067,1.272,1.272,0,0,0,.448.538.57.57,0,0,1,.23.115,1.186,1.186,0,0,0,.393.181,1.369,1.369,0,0,1,.429.218c.206.175.327.188.435.06a.35.35,0,0,1,.236-.091c.085,0,.212-.006.278-.012a3.185,3.185,0,0,1,.556.036c.472.054.6.139.75.52a2.765,2.765,0,0,0,.218.417l.139.206-.175.085c-.411.206-.611.593-.919,1.814-.139.55-.139.556-.024.689a.821.821,0,0,0,.647.26c.115-.036.121-.018.091.145-.06.3.115.405.629.381.23-.006.417.006.417.036a1.308,1.308,0,0,1-.272.248c-.387.284-.405.436-.091.738a.974.974,0,0,0,.339.242c.048,0,.085.024.085.061a3.471,3.471,0,0,1-.72,1,1.326,1.326,0,0,0-.454,1.1.7.7,0,0,0,.121.623c.091.133.187.242.218.242a1.113,1.113,0,0,1,.29.224,1.761,1.761,0,0,0,.823.562,3.5,3.5,0,0,1,.792.46,3.214,3.214,0,0,0,.659.4,4.551,4.551,0,0,1,.6.236,1.734,1.734,0,0,0,.871.175,2.889,2.889,0,0,0,.732-.091c.345-.127.7-.079,1.748.218a6.181,6.181,0,0,0,1.034.236,7.957,7.957,0,0,1,2.068.641.687.687,0,0,0,.236.145,1.073,1.073,0,0,1,.284.169,8.511,8.511,0,0,0,.732.484c.532.321.925.417,1.1.266.115-.091.6.151,1.01.5.163.139.369.3.454.369l.163.115-.278.817a5.284,5.284,0,0,0-.363,1.814,15.6,15.6,0,0,1-.266,1.839c-.1.466-.187.889-.187.938a9.022,9.022,0,0,0,.369.962c.327.756.4.877.562.943.1.048,1.052.466,2.111.938l1.929.847.7.623c.381.345.744.659.8.7a6.329,6.329,0,0,0,.962.26,4.94,4.94,0,0,0,2.214.085c.169-.054.635-.163,1.046-.242l.744-.145.726.145a1.953,1.953,0,0,1,1.173.5,2.19,2.19,0,0,1,.454.411c0,.03.042.339.085.671a4.536,4.536,0,0,1,.012,1.282,6.8,6.8,0,0,0-.024,1.2,3.913,3.913,0,0,1-.206,1.978l-.181.351.127.466a2.177,2.177,0,0,1-.133,1.736,7.338,7.338,0,0,1-.423.913l-.157.248-.611-.266a8.132,8.132,0,0,0-2.062-.665,3.806,3.806,0,0,1-.841-.224,2.387,2.387,0,0,0-.968-.145c-.381-.012-.762-.024-.847-.024s-.423-.036-.756-.073a1.739,1.739,0,0,0-1,.073c-.429.139-.448.139-1.778-.061a5.858,5.858,0,0,0-1.814-.048,7.014,7.014,0,0,1-1.966-.006,2.158,2.158,0,0,0-.52-.06,10.109,10.109,0,0,1-1.179-.151,10.069,10.069,0,0,0-1.173-.151,3.691,3.691,0,0,1-1.331-.266c-.145-.1-.224-.1-.768-.042a4.508,4.508,0,0,0-.647.1,7.048,7.048,0,0,1-1.119.272,4.885,4.885,0,0,1-.7-.145,2.583,2.583,0,0,0-.671-.115c-.121.03-.127.018-.091-.182a.319.319,0,0,0-.121-.375c-.115-.121-.2-.157-.314-.133l-.157.03.036-.351c.03-.254.018-.369-.042-.417-.042-.036-.091-.048-.109-.03a.665.665,0,0,1-.278-.03c-.224-.067-.248-.091-.472-.6-.127-.29-.248-.55-.272-.581a1.53,1.53,0,0,0-.363-.163,2.218,2.218,0,0,1-.369-.163,2.234,2.234,0,0,1-.145-.5,2.731,2.731,0,0,0-.49-1.071,3.443,3.443,0,0,0-.448-.623,1.159,1.159,0,0,0-.3.242l-.242.242v-.351a1.04,1.04,0,0,0-.085-.466,1.578,1.578,0,0,1-.115-.514,2.111,2.111,0,0,0-1-1.73,2.181,2.181,0,0,0-1.077-.363,4.543,4.543,0,0,1-.823-.115,7.578,7.578,0,0,0-1-.151,8.376,8.376,0,0,1-1.149-.218,3.975,3.975,0,0,0-1.379-.187,2.13,2.13,0,0,1-.95-.127,1.105,1.105,0,0,0-.786-.079,1.419,1.419,0,0,1-.677.012,4.825,4.825,0,0,0-.714-.067,2.939,2.939,0,0,1-1.324-.381l-.224-.133.3-1.058c.163-.581.345-1.21.4-1.4.1-.327.1-.351-.006-.6a2.28,2.28,0,0,1,.054-1.4,3.248,3.248,0,0,0,.127-.442,1.061,1.061,0,0,1,.236-.405,2.93,2.93,0,0,0,.593-1.131c.163-.448.212-.52.369-.568a2.518,2.518,0,0,0,.943-.925,1.381,1.381,0,0,0-.157-1.56,2.545,2.545,0,0,1-.3-.587c-.073-.236-.157-.327-.714-.756-.532-.405-.629-.508-.581-.593s.006-.181-.163-.429a.835.835,0,0,0-.732-.453.788.788,0,0,1-.3-.073.474.474,0,0,0-.375.006c-.212.067-.284.054-.865-.145-.617-.218-.968-.441-.968-.623a1.5,1.5,0,0,1,.3-.417c.29-.314.3-.345.3-.683,0-.629.03-.7.441-.913l.363-.193.339.109a1.035,1.035,0,0,0,.816.024,2,2,0,0,0,.581-.568,1.38,1.38,0,0,0-.327-.381,1.352,1.352,0,0,1-.46-.75,1.134,1.134,0,0,0-.321-.6c-.163-.139-.187-.2-.212-.544l-.024-.387.611-.29a2.351,2.351,0,0,0,.708-.435,1.442,1.442,0,0,0,.03-1.137.544.544,0,0,1-.067-.442c.048-.127.085-.145.2-.109a4.115,4.115,0,0,0,.835.042,2.372,2.372,0,0,0,1.077-.163,1.758,1.758,0,0,1,.526-.157.6.6,0,0,0,.544-.454c.03-.169,0-.266-.157-.526a3.543,3.543,0,0,0-.381-.514c-.1-.109-.175-.206-.157-.218s.151-.121.308-.248c.375-.3.538-.339.919-.206a.826.826,0,0,0,.9-.073.625.625,0,0,1,.448-.145.413.413,0,0,0,.351-.121.446.446,0,0,1,.26-.127A.482.482,0,0,0,57.533-1748.048Zm-28.274,6.961a1,1,0,0,1,.308.26,1.239,1.239,0,0,0,.659.381,2.824,2.824,0,0,1,.568.236,4.026,4.026,0,0,0,.417.236c.23.115.339.145.387.1s.1-.024.194.079c.181.224.351.248.544.079a.518.518,0,0,0,.175-.29c.006-.115.042-.151.194-.163s.3.054.635.278c.248.163.532.345.641.411a7.435,7.435,0,0,1,.653.5l.466.375.375-.036a4.261,4.261,0,0,1,.9.036,1.259,1.259,0,0,0,1.077-.163c.091-.079.115-.067.23.091.212.3.5.375,1.476.369a11.771,11.771,0,0,0,2.7-.23l.448-.127.49.248a2.122,2.122,0,0,0,1.052.278l.556.036-.218.242c-.157.169-.212.278-.187.381s0,.145-.079.145c-.157,0-.236.127-.248.411a.461.461,0,0,0,.109.387.919.919,0,0,1,.157.248c.042.109.079.127.345.188a.938.938,0,0,1,.333.188c.314.266.538.448.714.581a1.1,1.1,0,0,1,.278.351c.121.236.351.351,1.1.575a1.237,1.237,0,0,1,.441.212c.1.109.1.121-.121.284-.369.284-.49.708-.266.943a.453.453,0,0,1,.121.194c0,.036-.042.006-.091-.067a1.587,1.587,0,0,0-.986-.411.545.545,0,0,0-.562.193c-.266.242-.278.3-.127.563.091.163.127.181.284.151.1-.024.278-.054.393-.073.206-.036.206-.03.115.079a.949.949,0,0,0-.157.732.253.253,0,0,1-.042.284.681.681,0,0,0-.1.314.885.885,0,0,1-.327.587c-.06.024-.1-.036-.127-.206-.024-.145-.073-.236-.127-.236s-.085-.067-.085-.181c0-.139.042-.193.206-.272.248-.121.423-.3.387-.405a4.172,4.172,0,0,0-1.258-.327c-.248-.042-.351.048-.5.442-.091.23-.091.266-.006.333.048.042.157.145.236.23l.145.145-.127.139c-.1.115-.194.139-.466.139h-.339l-.556.538c-.575.55-.635.659-.472.9a2,2,0,0,1,.187.393,1.54,1.54,0,0,0,.181.363.953.953,0,0,1,.151.381,1.419,1.419,0,0,0,.175.453l.121.175-.151.224a1.982,1.982,0,0,0-.224.472.709.709,0,0,1-.157.308c-.067.054-.06.127.024.448a.918.918,0,0,0,.4.617c.163.127.333.218.381.2.127-.054-.1.4-.321.617a1.433,1.433,0,0,0-.278.484c-.115.357-.23.429-.768.49-.3.03-.387.067-.5.206a2.666,2.666,0,0,1-1.246.556.111.111,0,0,0-.151.085.572.572,0,0,1-.248.224c-.187.1-.218.1-.351.018a.6.6,0,0,0-.8.3.27.27,0,0,0,.024.224,1.367,1.367,0,0,1,.091.435,1.682,1.682,0,0,0,.278.962.483.483,0,0,1,.127.181,2.156,2.156,0,0,1-.218.405c-.181.3-.242.357-.393.357-.181,0-.417.181-.417.32a3.051,3.051,0,0,0,.278.593c.254.472.266.52.187.659a2.8,2.8,0,0,0-.169.466.76.76,0,0,1-.121.321c-.018,0-.357-.133-.744-.3-.629-.272-.72-.29-.865-.23-.236.1-.248.133-.194.46a2.857,2.857,0,0,1-.036,1.2,4.038,4.038,0,0,0-.06,1.385.533.533,0,0,1-.054.381,1.547,1.547,0,0,0-.067.956c.06.405-.012.508-.363.49a1.06,1.06,0,0,0-.5.121l-.236.121-.266-.266a1.217,1.217,0,0,0-.333-.266c-.042,0-.139.115-.224.254-.151.26-.623.762-.665.708-.012-.012-.1-.254-.2-.538-.169-.5-.181-.514-.429-.593-.212-.067-.26-.109-.26-.23a14.832,14.832,0,0,0-.774-1.675,25.885,25.885,0,0,1-1.161-2.57l-.393-1.046-.665-.756-.665-.75-.5-2.014a9.335,9.335,0,0,1-.514-2.855l-.012-.847.284-.018.284-.018v-.284a8.143,8.143,0,0,0-.151-1.064,12.256,12.256,0,0,1-.187-1.452c-.03-.538-.06-.7-.151-.8-.115-.121-.115-.127.006-.236a3.4,3.4,0,0,0,.544-.968.213.213,0,0,0-.127-.151c-.073-.042-.109-.109-.091-.157a.446.446,0,0,0-.06-.278.538.538,0,0,1-.067-.314c.018-.067.1-.442.194-.823a5.986,5.986,0,0,0,.175-2.359,20.923,20.923,0,0,0-.484-2.371,3.7,3.7,0,0,1-.163-1.058c0-.478.012-.526.194-.762a2.383,2.383,0,0,0,.532-1.427C28.884-1741.268,28.854-1741.238,29.259-1741.087Zm19.722,4.354c.157.067.532.206.823.3.484.157.55.163.7.091.127-.067.194-.073.284-.018a1.046,1.046,0,0,0,.363.079.476.476,0,0,1,.411.218.525.525,0,0,1,.145.29c-.018.048-.036.127-.048.175s.236.284.641.6c.556.423.677.544.738.738a2.714,2.714,0,0,0,.314.587,1.133,1.133,0,0,1,.175,1.264,1.73,1.73,0,0,1-.823.81c-.278.1-.29.115-.472.611a3.471,3.471,0,0,1-.683,1.288.6.6,0,0,0-.187.308,2.064,2.064,0,0,1-.121.46,5.772,5.772,0,0,0-.175.817,1.081,1.081,0,0,0,.06.744.563.563,0,0,1,.03.544c-.151.478-.7,2.528-.7,2.613a2.122,2.122,0,0,0,.756.508c.1.036.048.061-.212.115s-.339.091-.351.2c-.018.127-.054.139-.357.139a2.725,2.725,0,0,1-.665-.1c-.435-.139-.52-.085-.55.351-.012.254.006.357.073.411.163.139.109.188-.2.188a.548.548,0,0,0-.454.151c-.23.212-.5.206-.587-.018-.194-.49-.248-.556-.46-.556a.715.715,0,0,0-.46.206,1.294,1.294,0,0,1-1.282.145,1.4,1.4,0,0,0-.526-.085.636.636,0,0,1-.321-.036c-.109-.048-.169-.048-.23,0a.644.644,0,0,1-.381.036c-.29-.036-.308-.03-.466.175a.914.914,0,0,0-.163.278.591.591,0,0,1-.3.308c-.03,0-.079-.054-.1-.127a1.141,1.141,0,0,0-.369-.333c-.357-.23-.472-.387-.429-.6.073-.375-.538-.357-.889.03-.115.127-.4.175-.4.073,0-.03.079-.085.181-.127a.669.669,0,0,0,.266-.212c.073-.1.169-.145.466-.175a2.251,2.251,0,0,0,.6-.157.479.479,0,0,0,.3-.4c.067-.272.079-.278.187-.175.163.151.248.067.206-.218a.459.459,0,0,1,.03-.32,3.484,3.484,0,0,0,.218-.369c.187-.375.127-.574-.169-.574a.482.482,0,0,1-.387-.2c-.23-.242-.278-.442-.163-.623.054-.079.079-.169.06-.2-.054-.085.1-.423.3-.659l.163-.2-.187-.308a.8.8,0,0,1-.163-.393,2.589,2.589,0,0,0-.3-.726l-.333-.653c0-.006.2-.193.448-.411.417-.375.472-.405.8-.441a.791.791,0,0,0,.587-.254.876.876,0,0,0,.224-.3,1.376,1.376,0,0,0-.363-.575c-.085-.024.042-.351.139-.351a3.87,3.87,0,0,1,.393.1c.23.067.3.109.224.127-.218.042-.254.121-.224.466a1.38,1.38,0,0,1-.079.617c-.1.266-.1.284,0,.357a.2.2,0,0,0,.206.03.432.432,0,0,1,.254-.024c.254.048.677-.127.726-.3a1.123,1.123,0,0,1,.139-.3.335.335,0,0,0,.06-.254.349.349,0,0,1,.06-.248.653.653,0,0,0,.06-.478c-.036-.321-.036-.327.224-.611s.26-.284.145-.375c-.091-.067-.23-.085-.587-.061-.49.03-.544.006-.363-.151.206-.187.847-.042,1.131.254.206.218.308.224.5.048s.175-.2-.012-.423c-.218-.26-.194-.387.151-.7a.881.881,0,0,0,.3-.4.543.543,0,0,0-.363-.46c-.109-.048-.181-.121-.181-.187s-.024-.115-.06-.115-.006-.054.06-.121c.163-.163.151-.272-.06-.435l-.175-.139.127-.381c.109-.308.157-.375.266-.375.079,0,.157.024.175.06.067.109.308.061.46-.1a2.1,2.1,0,0,1,.786-.508A1.545,1.545,0,0,1,48.981-1736.732Zm4.149,13.36a.7.7,0,0,0,.575-.024c.23-.1.242-.1.683.06a2.782,2.782,0,0,0,.568.157l.514-.042a3.921,3.921,0,0,1,1.4.206,9.07,9.07,0,0,0,1.3.248,3.409,3.409,0,0,1,.653.1,8.261,8.261,0,0,0,.943.145,1.721,1.721,0,0,1,1.258.526,1.7,1.7,0,0,1,.49,1.276c0,.29.03.423.109.514s.1.224.1.635c0,.5.006.52.151.556s.133.048-.151.193a1.164,1.164,0,0,0-.478.442,1.756,1.756,0,0,1-.375.429.8.8,0,0,0-.236.266,2.364,2.364,0,0,1-.55.448c-.49.327-.532.345-.7.272-.1-.036-.194-.054-.218-.03s-.073.006-.115-.024a.611.611,0,0,0-.611.1.643.643,0,0,0-.079.308.855.855,0,0,1-.054.308,1.523,1.523,0,0,0-.091.206c-.042.133-.314.145-.363.018-.024-.067-.121-.091-.339-.091-.29,0-.3.006-.3.175,0,.121-.036.182-.115.206s-.127.109-.163.381c-.054.442.006.544.3.52l.218-.018v.26a1.158,1.158,0,0,0,.091.435c.085.157.079.181-.03.321a.564.564,0,0,0-.121.266c0,.181-.091.175-.327-.018l-.23-.187-.1.127-.1.133-.333-.121c-.181-.067-.339-.121-.351-.121s.036-.073.1-.157c.1-.127.109-.182.06-.242a.217.217,0,0,0-.151-.085,6.468,6.468,0,0,1-.829-.453,4.895,4.895,0,0,0-.883-.454.613.613,0,0,0-.429.411c0,.121.3.435.411.435s-.121.175-.671.478a2,2,0,0,0-.508.351,1.944,1.944,0,0,0,.036.508l.079.417h.327c.3,0,.333.012.417.181s.085.2.012.308-.073.169.024.484c.151.484.145.52-.06.629-.224.115-.308.079-.544-.212a2.413,2.413,0,0,0-.841-.629c-.169-.054-.647.339-1.022.847s-.411.593-.466.883c-.03.157-.073.23-.145.23-.127.006-.314.139-.314.236a.069.069,0,0,1-.073.067.7.7,0,0,0-.272.193l-.2.194-.23-.224-.23-.224H49.03l-.544-.006-.224-.315c-.417-.587-.877-1.276-1.324-2.008-.242-.393-.593-.925-.786-1.173-.3-.405-.333-.478-.3-.641a3.411,3.411,0,0,0,.079-.478l.03-.29-.81-.393c-.744-.357-.823-.411-.943-.641a2.684,2.684,0,0,1-.194-.8c-.067-.52-.073-.544-.224-.562s-.363-.339-.441-.708c-.042-.224.012-.314.206-.339.127-.018.157-.067.187-.3a2.85,2.85,0,0,1,.181-.593,1.856,1.856,0,0,0,.139-.562c.006-.248-.03-.3-.3-.381-.1-.036-.06-.06.163-.115a.877.877,0,0,0,.454-.278c.272-.327.381-.5.381-.653a.906.906,0,0,1,.181-.393c.157-.23.169-.278.121-.5-.1-.429-.091-.453.2-.453a1.442,1.442,0,0,1,.5.115.636.636,0,0,0,.417.06.4.4,0,0,1,.23-.018c.133.085.526-.054.72-.248a.8.8,0,0,1,.278-.212c.042,0,.1.1.133.224.1.345.218.484.478.532.236.036.647-.091.689-.212.012-.042.194-.085.405-.1.472-.042.562-.163.393-.538-.091-.212-.115-.375-.048-.442a.371.371,0,0,1,.187.042,3.3,3.3,0,0,0,.671.1c.5.03.5.03.6-.133C51.134-1723.439,52.193-1723.59,53.13-1723.372Zm-10.989.8c.048.224.1.29.387.484a1.257,1.257,0,0,1,.387.363.319.319,0,0,0,.363.23.712.712,0,0,0,.623-.429c.054-.278.187-.351.5-.272.26.067.272.079.314.333a.589.589,0,0,1-.133.55,1.106,1.106,0,0,0-.181.429c0,.188-.417.617-.581.6-.206-.024-.248,0-.357.206a.351.351,0,0,0-.036.393.46.46,0,0,0,.2.224c.1.03.115.073.091.206-.067.308-.369.871-.484.883-.163.024-.175.042-.206.472a1.236,1.236,0,0,0,.2.877c.181.381.26.484.345.466s.1.024.1.321a1.228,1.228,0,0,0,.26.78,1.041,1.041,0,0,0,.708.641c.248.109.562.248.7.314l.242.115-.024.333a1.788,1.788,0,0,1-.067.423c-.036.067.079.26.381.665.242.314.7,1.016,1.028,1.548a16.191,16.191,0,0,0,.9,1.361,4.553,4.553,0,0,1,.369.508c.1.194.169.212.744.212l.544.006.26.242.254.242-.3.393-.3.393.109.284a2.836,2.836,0,0,0,1.155,1.161c.556.375.641.514.659,1.058.018.375.012.393-.163.472-.381.163-.5.29-.5.508,0,.5.562,1.113,1.409,1.536a7.641,7.641,0,0,0,1.615.659c.145,0,.224.121.115.188-.048.03-.411.194-.81.363-.883.375-1.119.574-1.119.931a2.3,2.3,0,0,0,.357,1.089.945.945,0,0,1,.181.29c.06.157.06.163-.1.127s-.157-.036-.115.169l.036.206-.314.018c-.55.024-1.246.52-1.27.9a1.629,1.629,0,0,0,.067.55.693.693,0,0,1-.127.611,3.091,3.091,0,0,0-.23.581c-.054.224-.042.248.206.508a2.69,2.69,0,0,1,.514.913c.357.883.363.877-.417.853a4.8,4.8,0,0,1-1.179-.157,1.714,1.714,0,0,0-.8-.1c-.236.048-.266.036-.46-.169a6.833,6.833,0,0,1-.611-1.046,2.77,2.77,0,0,0-1.6-1.645l-.562-.284-.175.2a1.287,1.287,0,0,0-.248.393c-.054.175-.109.212-.466.321a2.872,2.872,0,0,0-1.191.774c-.339.321-.351.351-.236.526a1.115,1.115,0,0,1,.109.46c.012.284,0,.314-.218.49a1.441,1.441,0,0,0-.333.375,6.111,6.111,0,0,1-.919,1.107l-.321.339.1.206a1.142,1.142,0,0,1,.1.429,6.163,6.163,0,0,1-.441,1.578.705.705,0,0,0-.121.2.2.2,0,0,1-.194.109,1.5,1.5,0,0,0-.8.478,3.7,3.7,0,0,0-.5,1.077l-.06.254-.23-.1c-.121-.048-.381-.169-.568-.266a2.479,2.479,0,0,0-.4-.175,1.835,1.835,0,0,0-.327.375,4.491,4.491,0,0,1-1.494,1.312c-.339.206-.653.381-.683.387s-.085-.061-.109-.145c-.036-.133-.024-.175.1-.23.187-.085.181-.218-.006-.393a.467.467,0,0,1-.151-.266.228.228,0,0,0-.06-.163c-.036-.018-.048-.1-.036-.169.1-.5.1-.484-.272-.919-.266-.314-.357-.472-.357-.611,0-.26-.163-.387-.677-.508a4,4,0,0,1-1.137-.4,2.966,2.966,0,0,0-.423-.224,1.551,1.551,0,0,1-.448-.278c-.091-.1-.181-.127-.441-.127-.3,0-.321-.012-.321-.151,0-.109-.085-.212-.333-.4-.321-.242-.333-.26-.333-.532,0-.3.085-.466.556-1.107.151-.212.387-.556.52-.774.2-.333.266-.393.393-.375.187.018.224-.036.454-.581.151-.369.175-.472.121-.593s-.042-.181.1-.4a1.922,1.922,0,0,0,.254-.714,1.6,1.6,0,0,1,.127-.472c.224-.073.284-.193.3-.629a1.163,1.163,0,0,0-.1-.689c-.163-.321-.181-.448-.254-1.627a7.585,7.585,0,0,0-.187-1.421c-.169-.568-.187-.587-.435-.5-.411.151-.526.073-.526-.369a7.6,7.6,0,0,1,1.143-2.153l.671-1.034-.181-.877c-.169-.81-.175-.889-.091-1.052s.079-.206,0-.429a1.144,1.144,0,0,1,.006-.883,1.513,1.513,0,0,0,.091-.611,3.066,3.066,0,0,1,.169-.992,5.967,5.967,0,0,0,.187-.732,1.73,1.73,0,0,0-.157-.423l-.151-.321.417-.429.423-.423.248.23.248.236.272-.163a.7.7,0,0,1,.5-.127.558.558,0,0,0,.454-.127c.284-.187.327-.363.212-.81-.1-.357-.06-.72.073-.8a.943.943,0,0,0,.012-.623,5.039,5.039,0,0,1,.163-1.379,1.963,1.963,0,0,0,.012-.7,2.944,2.944,0,0,1-.042-.466c.012-.006.375.139.81.327a3.974,3.974,0,0,0,.883.308,1.189,1.189,0,0,0,.187-.478,3.662,3.662,0,0,1,.224-.665l.109-.23-.278-.514c-.248-.466-.266-.514-.157-.514.23,0,.3-.067.617-.55.345-.52.363-.665.1-.925a2.339,2.339,0,0,1-.3-1.185c-.018-.242-.006-.272.121-.29a.355.355,0,0,1,.248.073c.1.085.133.091.345.012a5.11,5.11,0,0,0,.569-.248c.181-.091.381-.187.435-.218.079-.042.1-.018.121.115.018.175.06.181.5.085a1.042,1.042,0,0,0,.435-.242.742.742,0,0,1,.242-.194C42.056-1722.828,42.1-1722.713,42.141-1722.574Zm20.817,3.659a1.735,1.735,0,0,1,.254.556,2.626,2.626,0,0,0,.1.5c.1.345.1.345.508.532s.411.193.6.647c.26.587.381.738.635.786.187.03.212.06.212.218a.659.659,0,0,1-.06.284.22.22,0,0,0,.042.242c.091.133.187.145.5.06.1-.024.1.024.03.345-.042.181-.03.2.187.272a1.125,1.125,0,0,0,.308.067,2.526,2.526,0,0,1,.568.109,4.291,4.291,0,0,0,.774.121,3.74,3.74,0,0,0,1.04-.212,4.025,4.025,0,0,1,.665-.121c.532-.06.611-.06.762.036a5.785,5.785,0,0,0,1.591.3,5.6,5.6,0,0,1,.75.091,20.506,20.506,0,0,0,2.576.3c.248-.006.919-.024,1.482-.054a6.277,6.277,0,0,1,1.542.048,4.142,4.142,0,0,0,1.881.073,3.082,3.082,0,0,1,1.373-.036c.556.036,1.191.067,1.415.067a1.622,1.622,0,0,1,.726.139,2.853,2.853,0,0,0,.683.188,7.305,7.305,0,0,1,1.978.593c.472.2.7.327.671.369s-.2.29-.387.556l-.345.484.163,1.542.163,1.542.26.514c.145.284.5.889.78,1.349.466.744.556.853.835,1.016.429.242.441.321.1.538a.974.974,0,0,1-.659.181,2.01,2.01,0,0,0-.623.1.441.441,0,0,1-.478-.006l-.23-.1-.448.23a3.788,3.788,0,0,0-.617.369.674.674,0,0,1-.272.139,1.562,1.562,0,0,0-.4.145.854.854,0,0,1-.411.109,1,1,0,0,1-.339-.327.9.9,0,0,0-.454-.363c-.266-.079-.175-.157-.919.756a2.557,2.557,0,0,1-.78.768,6.548,6.548,0,0,0-.732.411c-.266.175-.5.29-.532.26a.276.276,0,0,0-.187-.024c-.1.024-.29.272-.714.949l-.581.919.054.327a.8.8,0,0,1,.006.369,3.233,3.233,0,0,1-.877.175.555.555,0,0,0-.381.188.655.655,0,0,1-.333.182c-.308.006-.411.06-.544.272-.109.181-.157.212-.29.188a5.057,5.057,0,0,1-.992-.236c-.109-.054-.109-.067.012-.194a.481.481,0,0,0,.127-.29.357.357,0,0,1,.181-.29c.29-.206.333-.339.151-.46-.121-.079-.175-.085-.23-.03-.1.1-.133.085-.212-.079-.06-.127-.1-.145-.278-.115s-.242,0-.49-.23c-.266-.26-.272-.272-.206-.466.06-.175.054-.218-.06-.339a.492.492,0,0,1-.127-.266c0-.067-.024-.145-.06-.163a.174.174,0,0,1-.06-.133.527.527,0,0,0-.423-.442c-.115,0-.175-.036-.2-.115-.048-.181-.381-.224-.587-.073-.169.121-.169.121-.321,0a.264.264,0,0,1-.121-.327.414.414,0,0,0-.042-.3c-.067-.079-.1-.079-.254.006-.175.091-.194.091-.3-.024s-.121-.121.036-.224a.339.339,0,0,0,.042-.538c-.127-.115-.671-.3-.671-.23,0,.024-.06-.048-.133-.157-.109-.182-.151-.2-.314-.169s-.218.006-.405-.182c-.212-.206-.242-.218-.411-.157s-.187.054-.187-.036a.6.6,0,0,0-.4-.466c-.2-.091-.278-.1-.792-.03-.49.067-.581.067-.671-.012a.221.221,0,0,0-.181-.067,1.928,1.928,0,0,1-.556-.1c-.544-.157-.744-.133-.865.1-.079.145-.067.193.091.5.254.5.212.556-.4.556-.375,0-.526.024-.581.091a.767.767,0,0,0,.024.587c.042.091.024.1-.157.048-.272-.085-.272-.085-.393.121a.291.291,0,0,1-.278.182c-.121,0-.181.036-.206.121-.018.067-.048.121-.067.121a16.186,16.186,0,0,1-1.361-.986c-.321-.266-.454-.266-.435.006l.012.182-.466.024a1.34,1.34,0,0,0-.562.1c-.091.073-.091.1.048.26.254.3.169.417-.1.133a2.328,2.328,0,0,0-1.125-.538,5.027,5.027,0,0,1-.732-.212,2.534,2.534,0,0,0-.369-.121.909.909,0,0,0-.187.363c-.145.393-.187.411-.526.272-.278-.115-.381-.042-.387.3a1.585,1.585,0,0,1-.079.454c-.06.163-.109.206-.26.218s-.2-.006-.212-.115a.132.132,0,0,0-.145-.127.343.343,0,0,1-.339-.345c-.012-.145-.048-.194-.163-.212a2.978,2.978,0,0,1-.5-.175c-.3-.139-.339-.175-.284-.266a.337.337,0,0,0-.224-.49c-.248-.091-.284-.163-.212-.417.054-.193.024-.363-.06-.363-.03,0-.073-.06-.091-.139-.054-.169-.454-.587-.562-.587-.048,0,.079-.085.284-.193.46-.236.46-.339-.006-.5a.974.974,0,0,1-.72-.647l-.06-.236-.369.018c-.254.012-.375-.006-.393-.061s.042-.073.187-.073c.2,0,.236-.03.429-.333a1.343,1.343,0,0,0,.212-.478.262.262,0,0,1,.06-.187,1.249,1.249,0,0,0,.206-.321,1.721,1.721,0,0,1,.278-.405,1.046,1.046,0,0,0,.218-.29c.085-.157.079-.175-.091-.351l-.181-.181.151-.054c.194-.079.308-.079.357,0s.212.079.212-.006a.879.879,0,0,1,.224-.272c.26-.248.236-.29-.254-.46-.339-.109-.339-.109-.5.012a.569.569,0,0,1-.284.121,1.115,1.115,0,0,0-.369.121,1.14,1.14,0,0,1-.816.067l-.145-.042.187-.079c.29-.121.333-.29.194-.738-.115-.357-.115-.4-.024-.55s.085-.182-.1-.5-.194-.333-.441-.333-.26-.018-.333-.212c-.1-.272-.048-.333.411-.556a3.72,3.72,0,0,0,.974-.677c0-.091-.278-.3-.441-.339-.2-.054-.266-.139-.133-.187a1.853,1.853,0,0,1,.683.345c.744.484.786.514.689.611a.251.251,0,0,0-.073.151,1.6,1.6,0,0,0,.744.441.825.825,0,0,1,.3.1c.169.1.181.1.26-.006s.091-.1.3.054l.218.163.181-.194a1.021,1.021,0,0,0,.218-.333.263.263,0,0,1,.121-.175c.115-.042.109-.46-.006-.677a1.12,1.12,0,0,1-.091-.423c0-.3-.085-.387-.345-.387-.157,0-.2-.024-.2-.115a.139.139,0,0,1,.133-.139c.085-.012.151-.085.194-.218l.067-.193.127.127c.109.109.163.121.393.073s.278-.079.435-.381a1.676,1.676,0,0,0,.163-.429c0-.115.121-.175.339-.175.091,0,.145.036.145.091a.146.146,0,0,0,.091.127,6.4,6.4,0,0,0,1.609-1.04,4.311,4.311,0,0,1,1.058-1.1,1.266,1.266,0,0,0,.466-.435,1.415,1.415,0,0,1,.224-.3A2.611,2.611,0,0,1,62.958-1718.915Zm-10.16,7.638a1.884,1.884,0,0,1,.411.423c.06.1.157.182.212.182a.308.308,0,0,1,.187.079,1.291,1.291,0,0,0,1.27.218c.284-.145.405-.145.23-.006-.109.091-.127.145-.091.327.03.145.085.242.157.26.109.036.109.048-.036.224a2.478,2.478,0,0,0-.272.417.66.66,0,0,1-.242.266c-.1.03-.121.091-.121.29,0,.351-.181.623-.405.6a.51.51,0,0,0-.29.079c-.157.121-.133.49.048.683.115.127.169.139.423.109.194-.03.284-.018.284.03a1.464,1.464,0,0,0,.568.635l.187.079-.2.042c-.248.048-.278.121-.2.429a.393.393,0,0,0,.3.333.8.8,0,0,1,.466.786.56.56,0,0,0,.29.617l.163.042-.127.157c-.157.2-.109.254.429.508.339.163.417.224.417.339,0,.091.036.139.109.139a.781.781,0,0,1,.345.248c.345.357.508.423.835.363.363-.067.429-.018.284.206a.464.464,0,0,0-.085.3,1.42,1.42,0,0,1-.121.532l-.151.405.139.1c.121.1.127.115.054.266a1.3,1.3,0,0,1-.369.351c-.478.308-.478.308-.278.472a.3.3,0,0,1,.157.278c-.012.1.024.163.139.212a.711.711,0,0,0,.236.073.251.251,0,0,1,.157.091.165.165,0,0,0,.169.06c.067-.024.079.012.048.188a.364.364,0,0,0,.03.3c.121.151.024.157-.345.024-.611-.212-.95-.133-.78.182.109.188.115.405.018.442a.807.807,0,0,1-.321-.079c-.278-.115-.544-.067-.6.115-.024.091-.073.1-.29.067-.345-.061-.466-.115-.429-.206.018-.042-.024-.139-.085-.218-.1-.121-.163-.139-.478-.127a1.777,1.777,0,0,1-.508-.048.231.231,0,0,0-.278.067l-.127.121-.278-.187c-.3-.206-.52-.478-.52-.641,0-.327-.484-.689-.689-.514-.067.054-.1.024-.157-.145a.763.763,0,0,0-.163-.29,1.909,1.909,0,0,1-.381-.889c0-.23.139-.339.7-.556.847-.327,1.173-.532,1.312-.823.151-.308.121-.351-.29-.417a8.088,8.088,0,0,1-2.5-1.2c-.29-.272-.454-.556-.405-.7a.585.585,0,0,1,.26-.23c.339-.163.435-.387.381-.859a1.209,1.209,0,0,0-.7-1.137,3.365,3.365,0,0,1-1.119-1.028c-.079-.182-.067-.206.29-.647a1.864,1.864,0,0,0,.369-.6c0-.109.042-.151.181-.175a.253.253,0,0,0,.218-.194.166.166,0,0,1,.187-.151c.157,0,.26-.182.351-.6a3.356,3.356,0,0,1,1.07-1.33A2.117,2.117,0,0,1,52.8-1711.277Zm14.914,6.084a1.948,1.948,0,0,0,1.131.091c.466-.061.562-.054.72.024a.262.262,0,0,1,.181.254.446.446,0,0,0,.1.266c.079.085.127.091.3.036s.23-.042.333.048a.367.367,0,0,1,.121.212c0,.175.133.242.3.151.218-.121.218-.121.339.218.151.423.224.466.393.242.139-.194.26-.236.327-.127.024.036-.03.121-.115.188-.23.181-.2.363.1.641a2.7,2.7,0,0,0,.321.266.894.894,0,0,1,.2.193c.145.163.145.163.03.254a.362.362,0,0,1-.278.054.464.464,0,0,0-.278.03.381.381,0,0,1-.3.006.562.562,0,0,0-.587.139c-.054.079-.024.139.133.278a.581.581,0,0,1,.194.32.489.489,0,0,0,.054.224c.042.066.024.109-.073.151s-.145.163-.194.369l-.06.3-.575.03-.575.03-.018.175c-.018.157-.036.169-.212.133-.109-.024-.3-.054-.417-.079-.169-.024-.23-.067-.236-.145-.012-.2-.024-.23-.091-.3-.048-.048-.157-.036-.393.042l-.327.109-.03.484a1.885,1.885,0,0,1-.139.677c-.115.212-.054.3.163.266.1-.012.109.012.079.163a.356.356,0,0,0,.048.29.6.6,0,0,1,.024.574c-.085.169-.024.315.194.442a.665.665,0,0,1,.236.254.349.349,0,0,0,.163.181,3.011,3.011,0,0,1,.357.151.55.55,0,0,1,.345.405c.073.23.115.284.224.284.187.006.212.1.091.333-.127.248-.073.314.266.3.441-.024.611.048.611.254,0,.1.03.175.06.175.109,0,.187.3.121.423-.054.1-.012.194.206.526a2.905,2.905,0,0,1,.345.714,1.419,1.419,0,0,0,.121.357c.1.1.06.218-.067.218-.169,0-.157.139.085.992.175.623.236.744.448.968.284.29.29.321.23,1.046a2.055,2.055,0,0,0,.6,1.778,2.3,2.3,0,0,1,.756,1.935c0,.617.073.78.351.78h.145l-.157.206a2.074,2.074,0,0,0-.218.369c-.048.127-.085.145-.212.115s-.2,0-.339.133c-.175.169-.175.169-.363.061-.23-.139-.321-.1-.478.206-.115.23-.139.242-.4.242a.5.5,0,0,0-.569.514c0,.206-.073.278-.151.145a.108.108,0,0,0-.127-.03c-.127.048-.1-.054.067-.26a2.155,2.155,0,0,0,.333-1.022.85.85,0,0,0-.091-.314.814.814,0,0,1-.091-.284,2.551,2.551,0,0,0-.242-.6,1.621,1.621,0,0,1-.212-.574c.06-.194-.1-.236-.641-.175-.278.03-.671.06-.877.06a2.2,2.2,0,0,0-.562.067c-.181.067-.212.054-.405-.133a2.266,2.266,0,0,1-.345-.435,1.01,1.01,0,0,0-.266-.314c-.121-.079-.139-.145-.139-.448v-.357l-.423-.29c-.369-.254-.423-.308-.423-.478,0-.284-.405-.647-.925-.816a2.139,2.139,0,0,1-.726-.405,5,5,0,0,0-.478-.369c-.224-.133-.194.169-.381-3.55-.018-.266-.06-.9-.1-1.391a2.681,2.681,0,0,0-.339-1.452,3.809,3.809,0,0,0-.538-.816,1.774,1.774,0,0,1-.441-.817,3.211,3.211,0,0,1-.157-2.226c.2-1.155.181-1.367-.163-1.869a1.584,1.584,0,0,0-.327-.393c-.048-.018-.085-.115-.085-.224a.437.437,0,0,0-.073-.266c-.109-.109.5-.091.641.018s.218.067.218-.151c0-.169.006-.169.714.339a5.938,5.938,0,0,0,.847.544.243.243,0,0,0,.314-.193c0-.061.073-.085.23-.085.26,0,.381-.085.333-.236-.03-.079-.018-.085.048-.024.121.121.242.1.429-.085l.169-.157-.127-.2c-.067-.115-.109-.23-.085-.266a1.206,1.206,0,0,1,.484-.061c.417,0,.454-.012.562-.169.194-.266.206-.4.073-.574a1.063,1.063,0,0,1-.163-.345c-.03-.169-.024-.193.079-.163C67.058-1705.374,67.379-1705.283,67.712-1705.192Zm21.5.671c.067.127.206.405.308.617.218.441.224.435-.272.677a1.9,1.9,0,0,0-.5.441l-.26.321v.768a10.108,10.108,0,0,0,.1,1.355,21.171,21.171,0,0,1,.248,2.5,4.223,4.223,0,0,1-.212,1.663,6.893,6.893,0,0,0-.333,2.135,4,4,0,0,1-.012.708c-.048.442-.073.454-.52.29a6.8,6.8,0,0,0-1.663-.284,4.635,4.635,0,0,1-.847-.151,1.815,1.815,0,0,0-.375-.1,4.216,4.216,0,0,1-.786-.272c-.7-.314-.792-.333-1.173-.23-.175.048-.853.206-1.5.345s-1.258.284-1.355.321c-.206.073-.187.042-.792,1.8a14.763,14.763,0,0,1-1.415,3.447c-.23.236-.405.29-1.137.333-.375.024-.441.054-.441.23,0,.091-.018.109-.067.06-.1-.1-.236-.024-.236.133s-.121.3-.732.931a2.965,2.965,0,0,0-.472.6c-.073.169-.1.181-.375.169l-.3-.006v-.544a4.062,4.062,0,0,0-.085-.859c-.085-.314-.157-.423-.768-1.2a1.823,1.823,0,0,1-.484-1.621,4.621,4.621,0,0,0,.018-.732,1.124,1.124,0,0,0-.284-.405,1.511,1.511,0,0,1-.417-.883c-.145-.556-.157-.629-.073-.714a.552.552,0,0,0,.006-.6.841.841,0,0,1-.091-.284,1.844,1.844,0,0,0-.363-.738.575.575,0,0,1-.139-.4.818.818,0,0,0-.1-.417,1.226,1.226,0,0,1-.127-.429c0-.169-.079-.26-.242-.266a1.9,1.9,0,0,1-.314-.054c-.187-.042-.23-.079-.23-.187,0-.254-.109-.454-.248-.454-.091,0-.151-.067-.218-.23s-.157-.254-.4-.375a2.44,2.44,0,0,1-.562-.4c-.242-.242-.248-.26-.218-.587a1.552,1.552,0,0,0-.018-.448,1.242,1.242,0,0,1-.115-.381,1.162,1.162,0,0,0-.109-.284.14.14,0,0,1-.012-.145,1.329,1.329,0,0,0,.03-.417c-.006-.254.012-.357.079-.381.109-.042.157.006.157.175a.149.149,0,0,0,.139.169c.073.012.357.073.629.127a2.119,2.119,0,0,0,.55.067.409.409,0,0,0,.091-.218c.036-.182.042-.182.448-.187.8-.018.774-.012.792-.175.048-.472.079-.556.194-.526.212.054.272-.042.187-.3-.042-.127-.109-.357-.151-.508l-.079-.272.187-.006c.272-.012.411-.012.562-.012a.7.7,0,0,0,.345-.157.61.61,0,0,1,.333-.139.422.422,0,0,0,.272-.127l.151-.145.06.163c.054.127.1.157.278.157s.218.018.254.182a.477.477,0,0,0,.085.218.211.211,0,0,1,.054.157.43.43,0,0,0,.1.242c.091.1.091.127.006.308l-.091.193.3.3a2.587,2.587,0,0,0,.538.4c.127.054.212.115.194.139s.03.079.109.127a.223.223,0,0,1,.121.272c-.024.169-.03.169-.272.115a.464.464,0,0,0-.3,0c-.024.024.048.2.163.381.23.375.387.466,1.089.623.665.151.8.133.943-.115.091-.151.169-.212.278-.212a.847.847,0,0,0,.568-.284.485.485,0,0,1,.242-.133,1.8,1.8,0,0,0,.417-.054c.181-.042.411-.079.514-.091.26-.018.369-.266.284-.635-.079-.351-.048-.429.454-1.131.345-.49.411-.556.472-.472s.085.079.187-.079c.127-.194.175-.236.768-.647a1.434,1.434,0,0,1,.587-.284c.187,0,.278-.091.937-.956a2.474,2.474,0,0,1,.52-.556,1.376,1.376,0,0,1,.429.363c.375.405.568.46.919.248a1.412,1.412,0,0,1,.411-.157.643.643,0,0,0,.3-.133,2.3,2.3,0,0,1,.762-.46.471.471,0,0,1,.5,0c.236.091.26.091.435-.012a.9.9,0,0,1,.538-.1.952.952,0,0,0,.641-.151,1.69,1.69,0,0,1,.75-.26C89.042-1704.745,89.139-1704.648,89.212-1704.521Zm-29.163.647a4.013,4.013,0,0,0,.587.157,2.547,2.547,0,0,1,1.155.641,1.821,1.821,0,0,0,.411.266,1.2,1.2,0,0,1,.526.847c0,.127-.067.659-.151,1.179l-.145.95.175.708c.272,1.071.308,1.149.677,1.548a2.728,2.728,0,0,1,.768,1.887c.036.393.079.816.091.937.024.206-.091.411-.23.411a1.029,1.029,0,0,0-.339.393c0,.03-.121.109-.272.169s-.272.139-.272.169-.042.036-.091.018a.489.489,0,0,0-.3.061c-.218.1-.23.2-.048.405.067.079.067.109.006.157a1.749,1.749,0,0,1-.683.194,3.292,3.292,0,0,0-.659.151c-.756.224-.768.224-.756-.145a.909.909,0,0,0-.03-.351,3.493,3.493,0,0,0-.448-.254,1.321,1.321,0,0,1-.587-.5,1.054,1.054,0,0,0-.345-.351,1.632,1.632,0,0,0-1,.1c-.085.054-.139.067-.169.024s-.115-.067-.212-.067c-.151,0-.2-.042-.314-.29a.716.716,0,0,0-.363-.387.8.8,0,0,1-.29-.23c-.067-.121-.054-.121.314-.091.52.048.641-.042.538-.393-.036-.133-.1-.242-.121-.242-.1,0-.181-.351-.133-.526a.488.488,0,0,0,.012-.26,2.887,2.887,0,0,0-.308-.484,1.362,1.362,0,0,1-.242-.532c0-.187.091-.212.327-.079a.356.356,0,0,0,.393.048.521.521,0,0,0,.278-.587c-.048-.151-.018-.151.393.006a.815.815,0,0,0,.816-.03c.109-.079.109-.091-.042-.284a.5.5,0,0,1-.127-.387c.03-.212-.175-.526-.339-.508a.416.416,0,0,1-.411-.266c-.091-.181-.091-.193.048-.284a1.151,1.151,0,0,0,.218-.181,3.818,3.818,0,0,0,.441-.569.667.667,0,0,0-.175-.193l-.181-.151.121-.339a2.375,2.375,0,0,0,.115-.484.2.2,0,0,1,.151-.2.369.369,0,0,0,.151-.079,1.486,1.486,0,0,0-.272-.466c-.115-.091-.115-.206,0-.514.048-.151.115-.23.163-.218a.493.493,0,0,0,.677-.393C59.6-1703.989,59.686-1704.013,60.049-1703.874Zm30.366,1.04c.357.151.937.381,1.3.508l.647.236.441-.151a3.528,3.528,0,0,1,1.548-.151c.98,0,1.137-.018,1.27-.109.085-.061.357-.212.593-.333a1.513,1.513,0,0,1,.792-.218c.405,0,.575.121.677.49a1.569,1.569,0,0,1-.006.883c-.048.048-.048.121,0,.272a4.593,4.593,0,0,1,.012,1.137c-.042.865-.042.949.067,1.107s.109.206.024,1.337a11.645,11.645,0,0,1-.157,1.331,1.736,1.736,0,0,0-.06.194c0,.012.321.375.714.8l.72.768.139.562.133.563,1.379,1.415a10.5,10.5,0,0,1,1.415,1.591c.018.091.115.665.218,1.282a24.521,24.521,0,0,0,.853,3.4c.036.073.454.714.925,1.433a7.993,7.993,0,0,1,.968,1.7,5.391,5.391,0,0,0,.768,1.639c.218.26.224.3.169.5-.073.266-.484.52-.665.411a.835.835,0,0,0-.387-.042.7.7,0,0,0-.526.254c-.236.23-.3.442-.133.442.06,0,.012.091-.157.29-.236.284-.242.3-.163.5a1.774,1.774,0,0,1,.018.871c-.03.085.085.272.3.514.139.151.139.157.042.532l-.1.381-.151-.26a1.36,1.36,0,0,0-.266-.339.358.358,0,0,1-.109-.26.65.65,0,0,0-.073-.3c-.06-.091-.054-.145.012-.272s.067-.169-.091-.333-.212-.181-.556-.181a1.271,1.271,0,0,0-.617.121,4.01,4.01,0,0,1-.635.218,1.288,1.288,0,0,0-.448.169.578.578,0,0,0,.03.351c.073.248.115.29.308.357.26.085.478.308.962.992.187.266.454.6.587.756s.3.351.369.441c.1.133.187.175.435.206.3.03.314.024.351-.121a.626.626,0,0,1,.145-.248c.1-.091.133-.085.405.036a1.53,1.53,0,0,0,.78.115c.774-.018,1.427.248.768.308a.944.944,0,0,0-.6.284,1.3,1.3,0,0,0-.345.417l-.042.163-.091-.133c-.127-.194-.224-.175-.357.073-.109.212-.224.266-.3.151a2.686,2.686,0,0,0-.732-.423.83.83,0,0,0-.242.242c-.109.151-.212.23-.272.206a.858.858,0,0,0-.689.387,2.675,2.675,0,0,1-.6.526,1.421,1.421,0,0,0-.635.641c-.187.363-.175.417.079.544l.163.091-.333.224a1.462,1.462,0,0,1-.448.224.291.291,0,0,0-.187.091.436.436,0,0,1-.478.036.206.206,0,0,0-.212.012,4.862,4.862,0,0,1-1.246.169c-.78-.018-1.034-.042-1.077-.109a.56.56,0,0,0-.272-.109.356.356,0,0,1-.3-.187.2.2,0,0,0-.224-.133c-.411.024-.544-.194-.308-.5.157-.2.151-.278-.036-.4a.23.23,0,0,1-.121-.3c.03-.133.012-.218-.054-.272-.1-.085-.121-.278-.03-.333.036-.018.06-.115.06-.212a.258.258,0,0,1,.127-.248c.1-.048.121-.1.091-.242a.628.628,0,0,1,.03-.321c.06-.127.091-.139.242-.085.218.079.357.03.327-.115-.012-.06-.036-.218-.048-.357-.024-.224-.012-.26.151-.357a.5.5,0,0,1,.3-.073.245.245,0,0,0,.242-.1.445.445,0,0,1,.381-.145,1.527,1.527,0,0,0,.472-.1,1.413,1.413,0,0,1,.405-.091.332.332,0,0,0,.218-.061,2.868,2.868,0,0,0-.847-1.21.527.527,0,0,0-.218.157,4.012,4.012,0,0,1-1.427.841c-.581.254-.81.387-.859.49s-.115.145-.266.145a.646.646,0,0,0-.321.091.43.43,0,0,1-.206.091,4.494,4.494,0,0,0-.7.272,2.172,2.172,0,0,1-.913.272,2,2,0,0,0-1.119.466,2.459,2.459,0,0,1-.308.236c-.212.133-.29.145-1.058.145h-.829l-.466.242a4.241,4.241,0,0,1-.871.333,3.275,3.275,0,0,0-.581.188,4.152,4.152,0,0,1-1.2.254,1.241,1.241,0,0,0-.369.054,1.471,1.471,0,0,1-.3.067,2.236,2.236,0,0,0-.448.127,2.417,2.417,0,0,1-.865.127c-.4,0-.5.018-.5.091a2.414,2.414,0,0,0,.3.55,5.255,5.255,0,0,1,.435.823c.091.266.169.375.278.417l.151.061-.187.193c-.369.381-.5.393-3.611.357l-2.782-.03-1.27-1.228c-1.143-1.113-1.294-1.234-1.518-1.27a.809.809,0,0,0-.381.03,5.72,5.72,0,0,1-.8.248,1.754,1.754,0,0,1-1.494-.054l-.23-.115-.5.145a3.828,3.828,0,0,1-.816.145,3.07,3.07,0,0,1-1.185-.266.743.743,0,0,0-.3-.127,1.328,1.328,0,0,1-.351-.139c-.121-.079-.187-.085-.417-.018s-.29.054-.387-.03-.169-.091-.689-.03l-.575.073-.314-.278c-.266-.236-.345-.278-.5-.248-.677.115-.726.115-.871-.042-.121-.127-.133-.169-.073-.284a.367.367,0,0,0,.042-.212.12.12,0,0,1,.018-.127,1.451,1.451,0,0,0,.079-.49,1.423,1.423,0,0,1,.1-.532.418.418,0,0,0,.048-.272c-.024-.175-.018-.187.139-.151.206.048.236-.006.266-.405.012-.175.048-.327.085-.339a1.1,1.1,0,0,0,.236-.157,2.566,2.566,0,0,1,.5-.29,1.938,1.938,0,0,0,.466-.278c.194-.194.333-.248.448-.187.145.079.405-.036.6-.266s.212-.423.036-.544l-.139-.091.139-.145a.528.528,0,0,0,.133-.284.548.548,0,0,1,.127-.3c.1-.133.121-.23.1-.55-.018-.339-.006-.387.091-.405.157-.024.175-.048.181-.272.012-.187-.012-.212-.369-.387l-.381-.193.3-.314a2.062,2.062,0,0,0,.308-.369c0-.03.1-.085.23-.121.29-.1.617-.3.617-.375,0-.115-.206-.224-.417-.23h-.206l.163-.151a1.783,1.783,0,0,1,.448-.272c.435-.194.617-.4.617-.689a.708.708,0,0,1,.091-.363.68.68,0,0,0,.091-.339c0-.272.091-.363.339-.363.308,0,.49-.1.556-.3.067-.187.073-.187.248-.091.242.121.3.115.441-.061.091-.115.151-.145.266-.115.187.048.417-.145.544-.46a1.06,1.06,0,0,1,.49-.55.84.84,0,0,0,.284-.339,2.058,2.058,0,0,1,.345-.478c.115-.1.369-.369.562-.587a1.577,1.577,0,0,1,.466-.405c.067,0,.121-.067.145-.175.036-.157.073-.187.3-.224a.793.793,0,0,1,.333.006.133.133,0,0,0,.139-.018.984.984,0,0,1,.284-.1.99.99,0,0,0,.411-.236c.357-.327.575-.841,1.5-3.514a13.131,13.131,0,0,1,.665-1.7,1.709,1.709,0,0,1,.5-.145c.224-.036.913-.194,1.536-.345l1.131-.272.593.272a5.511,5.511,0,0,0,.835.308,4.888,4.888,0,0,1,.514.127,5.325,5.325,0,0,0,.847.145,6.319,6.319,0,0,1,1.585.272c.254.109.744.127.8.036a6.151,6.151,0,0,0,.067-.956,8.251,8.251,0,0,1,.339-2.492,3.9,3.9,0,0,0,.206-1.724,20.709,20.709,0,0,0-.242-2.57,8.784,8.784,0,0,1-.1-1.228v-.659l.224-.266a1.58,1.58,0,0,1,.7-.508C89.75-1703.112,90.058-1702.985,90.415-1702.834Zm-57.606,1.458a10.441,10.441,0,0,1,.157,1.488c.06,1.016.079,1.161.218,1.433a1.293,1.293,0,0,1,.151.6c0,.272-.018.314-.169.393s-.175.151-.272.617a3.151,3.151,0,0,1-.26.78.924.924,0,0,0-.139.52,1.414,1.414,0,0,1-.1.52c-.085.212-.133.254-.29.272-.175.018-.23.079-.556.629a8.751,8.751,0,0,1-.581.877,5.663,5.663,0,0,0-.381.556.786.786,0,0,0-.127.647c.042.339.048.357.369.574.236.163.327.266.327.363,0,.3.048.333.454.333.308,0,.393.024.49.127a1.337,1.337,0,0,0,.381.254,1.358,1.358,0,0,1,.363.224,3.455,3.455,0,0,0,1.294.429c.4.067.429.091.405.314a1.616,1.616,0,0,0,.369.538l.375.423-.06.3c-.03.163-.036.308-.006.327a.283.283,0,0,1,.048.182.718.718,0,0,0,.06.266c.036.06.036.127.006.145a4,4,0,0,0,.23,1.337,4.58,4.58,0,0,0,.617,1.458,4.2,4.2,0,0,1,.387.847c.018.133.048.3.067.381.03.133.018.139-.2.115a3.328,3.328,0,0,1-1.222-.429,3.344,3.344,0,0,1-.314-.417c-.218-.339-.441-.429-.962-.4l-.333.018.018.635c.012.351.036.683.048.738.042.145-.26.163-.52.03a1.014,1.014,0,0,0-.829.006.838.838,0,0,1-.351.073.434.434,0,0,0-.363.157c-.139.145-.151.151-.327.06a.35.35,0,0,0-.321-.042.967.967,0,0,0-.532.441c-.03.1-.115.151-.423.23a3.606,3.606,0,0,0-.647.23,1.243,1.243,0,0,1-.345.133,2.44,2.44,0,0,0-.611.75c-.054.085-.1.085-.393.018-.314-.073-.339-.091-.532-.436a3.346,3.346,0,0,0-.369-.544c-.091-.1-.272-.333-.4-.514-.7-1.01-1.137-1.33-1.814-1.33-.321,0-.393.018-.393.1s-.121-.006-.363-.212a4.7,4.7,0,0,0-2.292-1.064.9.9,0,0,0-.3.236c-.169.193-.181.2-.345.115a.469.469,0,0,0-.4-.03.442.442,0,0,1-.417-.054c-.248-.151-.272-.145-.562.091a1.509,1.509,0,0,1-.659.29l-.4.091-.067-.145c-.06-.133-.036-.163.357-.417.441-.284.514-.411.29-.484-.121-.036-.115-.048.109-.163a4.96,4.96,0,0,0,1.294-1.2c0-.157.26-.248.575-.2l.26.036.224-.369c.187-.3.26-.369.387-.369a.6.6,0,0,0,.308-.121c.127-.1.248-.121.823-.121.732,0,.786-.024.823-.327.012-.139.06-.193.23-.248s.248-.139.472-.568c.2-.375.308-.52.46-.587a1.383,1.383,0,0,0,.423-.46l.224-.363-.127-.139c-.109-.115-.127-.193-.109-.52l.018-.381.26-.054c.284-.054.308-.115.133-.375s-.151-.315.079-.429a2.281,2.281,0,0,0,.405-.3,2.018,2.018,0,0,1,.514-.327c.266-.115.345-.193.647-.659a2.784,2.784,0,0,0,.593-1.343,1.646,1.646,0,0,1,.345-1.095l.218-.236-.073-.442c-.1-.623.012-1.149.254-1.216a.934.934,0,0,0,.333-.333c.163-.242.194-.339.163-.484-.036-.175-.03-.182.254-.224a1,1,0,0,0,.774-.5c.187-.242.218-.314.187-.5-.042-.284,0-.333.387-.441l.333-.1L31.9-1701a3.153,3.153,0,0,1,.393-.641.264.264,0,0,0,.163-.03C32.676-1701.751,32.706-1701.727,32.809-1701.376Zm20.412,2.4c-.018.187.327.6.732.9.363.26.5.29.623.127.067-.085.151-.1.49-.085.387.024.405.03.405.169s.06.175.333.3a1.892,1.892,0,0,0,.472.145c.187,0,.242.048.5.417s.314.6.224.774c-.054.1-.03.169.115.387.206.315.218.417.048.417a.8.8,0,0,1-.575-.351c-.26-.3-.387-.242-.327.151a1.29,1.29,0,0,0,.653,1.089.28.28,0,0,1,.2.357,1.6,1.6,0,0,0,.29.653.425.425,0,0,1,.067.272v.236l-.393.042a1.05,1.05,0,0,0-.423.091,1.305,1.305,0,0,0,.067.429c.091.351.091.393-.006.587l-.1.212-.151-.218a.624.624,0,0,0-.393-.284c-.357-.1-.448-.048-.327.175.145.284.121.411-.091.46a.472.472,0,0,0-.254.145c-.06.079-.169.1-.441.1a.843.843,0,0,1-.677-.23c-.308-.224-.321-.23-.466-.127a.351.351,0,0,1-.242.067.281.281,0,0,0-.224.073c-.127.1-.145.1-.5-.012a1.136,1.136,0,0,1-.81-.647c-.115-.182-.278-.411-.357-.508-.139-.163-.145-.212-.109-.556.024-.242.018-.387-.024-.417s-.048-.073,0-.163a3.318,3.318,0,0,0-.7-2.214l-.242-.26.224-.466a1.278,1.278,0,0,0,.2-.8c-.012-.182-.03-.345-.036-.363a.532.532,0,0,1,.079-.357,1.481,1.481,0,0,1,.883-.435c.4-.012.641-.079.623-.169-.012-.054.018-.067.079-.042a.468.468,0,0,0,.29-.085C53.2-1699.151,53.233-1699.145,53.221-1698.981Zm-7.191,2.129a3.777,3.777,0,0,1,.72.472,6.158,6.158,0,0,1,.611,1.046,4.22,4.22,0,0,0,.665,1.083c.248.236.26.236.641.224a2.479,2.479,0,0,1,.8.1,6.01,6.01,0,0,0,1.028.163c.587.036.617.048.556.157-.067.127.03.472.133.472.03,0,.054.085.054.181a.722.722,0,0,0,.133.363c.115.157.121.212.073.466a.742.742,0,0,0,.109.635,1.119,1.119,0,0,1,.121.871,1.864,1.864,0,0,1-.641.1,1.518,1.518,0,0,0-.671.115,4.69,4.69,0,0,0-.393,1.548,3.212,3.212,0,0,1-.067.617,2.707,2.707,0,0,0-.024.641c.042.351.054.375.254.472s.206.115.169.3c-.048.2-.133.345-.212.345a1.435,1.435,0,0,1-.206-.448c-.218-.6-.29-.623-1.167-.369s-.925.357-1.016,1.887l-.048.744h-.157a1.042,1.042,0,0,1-.708-.453c-.194-.242-.5-.429-.569-.351a2.652,2.652,0,0,0-.139.623,6.748,6.748,0,0,1-.46,1.808c-.115.248-.254.6-.314.78a1.157,1.157,0,0,1-.206.4,1.283,1.283,0,0,0-.206.49l-.1.423-.321.03c-.339.036-.49.157-.49.381a.659.659,0,0,0,.472.514c.46.139.544.429.157.556-.115.036-.206.1-.206.139a4.388,4.388,0,0,0,.369.641l.363.568-.2.157a4.861,4.861,0,0,0-.375.327l-.175.169.03.98c.024.9.018.956-.054.7-.1-.351-.272-.472-.448-.314a.412.412,0,0,0-.115.26c0,.23-.085.321-.278.3a2,2,0,0,0-1.47.556.318.318,0,0,0-.03.393.8.8,0,0,1-.073.81c-.212.46-.3.544-.575.544a.372.372,0,0,0-.351.157.754.754,0,0,0-.018.931,1.065,1.065,0,0,1,.145.514,1.661,1.661,0,0,1-.641.653.531.531,0,0,0-.194.272.827.827,0,0,1-.157.3.306.306,0,0,0-.085.308.235.235,0,0,1-.048.254c-.079.06-.115.054-.212-.067a.771.771,0,0,0-.314-.206c-.175-.06-.212-.1-.242-.308-.042-.333-.169-.5-.429-.574a.546.546,0,0,0-.653.278.205.205,0,0,1-.206.151.573.573,0,0,0-.435.375c-.036.127-.133.139-.29.018a.2.2,0,0,0-.224-.03.7.7,0,0,1-.3.06,1.039,1.039,0,0,0-.689.29.39.39,0,0,0,.29.617.387.387,0,0,1,.248.121c.1.109.1.151.036.345s-.073.224.085.345.157.151.1.266c-.036.073-.1.133-.133.133a.849.849,0,0,0-.248.272c-.109.151-.218.272-.254.272a1.855,1.855,0,0,0-.327.127,1.216,1.216,0,0,0-.454,1.524c.127.357.073.478-.242.532-.278.042-.405.151-.405.333,0,.127-.03.145-.242.145-.163,0-.26-.03-.278-.091a.24.24,0,0,0-.218-.091c-.187,0-.472-.23-.472-.387,0-.067.054-.079.23-.054a.442.442,0,0,0,.423-.133c.236-.193.242-.3.042-.429a.249.249,0,0,0-.308-.03,1.091,1.091,0,0,1-.8-.018.951.951,0,0,1-.085-.423.756.756,0,0,0-.242-.6,1.039,1.039,0,0,1-.224-.393,1.73,1.73,0,0,0-.121-.435,1.131,1.131,0,0,1-.085-.478.893.893,0,0,0-.314-.7,1,1,0,0,1-.206-.393,3.95,3.95,0,0,0-.272-.629,4.313,4.313,0,0,1-.3-.708,1.23,1.23,0,0,0-.157-.381,1.02,1.02,0,0,1-.181-.278,5.01,5.01,0,0,1-.187-1.8,5.083,5.083,0,0,0-.139-1.318.777.777,0,0,0-.278-.26.669.669,0,0,1-.272-.272c-.012-.066-.067-.49-.121-.937l-.1-.816-.3-.3a1.645,1.645,0,0,1-.417-.653l-.121-.357.139-.278c.169-.339.157-.436-.073-.762a4.48,4.48,0,0,1-.3-.562,1,1,0,0,1,.127-1.107.525.525,0,0,0,.175-.248c.018-.145.611-.417.9-.417a.364.364,0,0,0,.242-.085.362.362,0,0,1,.194-.109.739.739,0,0,0,.321-.29c.224-.32.345-.357.587-.181l.175.127.242-.206a1.187,1.187,0,0,1,.81-.29.364.364,0,0,0,.187-.06c.085-.067.575.115.653.242.06.091.218.085.218-.012,0-.042.121-.109.272-.151.314-.085.393-.206.242-.375a1.126,1.126,0,0,1-.133-.6l-.036-.49h.187a.6.6,0,0,1,.581.327,1.586,1.586,0,0,0,1.01.768c.6.212,1.016.23,1.173.054.1-.115.109-.163.042-.556a2.942,2.942,0,0,0-.441-1.064,5.6,5.6,0,0,1-.514-1.173,3.3,3.3,0,0,1-.133-.562c.006-.006.345-.212.744-.448a6.247,6.247,0,0,0,1.73-1.439l.145-.2.587.3c.429.224.6.278.641.23a1.858,1.858,0,0,0,.163-.466,2.214,2.214,0,0,1,.5-1,.829.829,0,0,1,.7-.393c.187,0,.224-.024.284-.194a.95.95,0,0,1,.151-.284,10.239,10.239,0,0,0,.49-1.609.782.782,0,0,0-.054-.4c-.091-.212-.091-.218.145-.514.133-.163.357-.429.5-.593s.327-.411.417-.544a1.494,1.494,0,0,1,.405-.4l.248-.151-.036-.393a1.493,1.493,0,0,0-.115-.508c-.073-.109-.042-.157.327-.5a1.787,1.787,0,0,1,.647-.448c.508-.127.816-.3.816-.435a1.392,1.392,0,0,1,.224-.466C45.492-1697.125,45.74-1697,46.03-1696.852Zm18.2,4.324c.1,2.147.036,1.917.72,2.431a4.164,4.164,0,0,0,.968.575c.6.218.738.339.738.641.006.248.018.266.411.526.441.3.544.508.345.72-.085.1-.073.127.175.333a2.124,2.124,0,0,1,.441.52.939.939,0,0,0,.212.3.856.856,0,0,1,.212.157.335.335,0,0,0,.351.115,10.293,10.293,0,0,1,1.028-.073l.847-.03.194.333a2.446,2.446,0,0,1,.26.623,1.9,1.9,0,0,0,.151.429,1.172,1.172,0,0,1-.236,1.052c-.085.067-.145.151-.127.175a.216.216,0,0,1-.036.169c-.06.1-.048.151.1.339a1.242,1.242,0,0,0,.284.284.243.243,0,0,1,.109.206c0,.169-.187.321-.683.538a1.016,1.016,0,0,0-.381.236c-.018.048-.139.1-.272.127s-.236.073-.236.121a.842.842,0,0,0,.441.4c.042,0-.012.054-.121.115a.575.575,0,0,0-.224.236.736.736,0,0,1-.212.242c-.26.187-.556.647-.472.732a.263.263,0,0,0,.163.067,1.413,1.413,0,0,1,.357.121l.266.121-.169.181a.341.341,0,0,0-.127.375c.085.423.073.5-.1.581-.187.085-.2.139-.1.327.06.109.042.151-.121.3-.23.218-.236.3-.024.472l.163.127-.133.127c-.1.109-.151.121-.266.067-.157-.073-.435.048-.708.308a1.768,1.768,0,0,1-.46.278,2.114,2.114,0,0,0-.423.236,1.452,1.452,0,0,1-.3.2c-.1.048-.175.121-.163.169a.621.621,0,0,1-.327.538c-.187.115-.2.133-.133.278s.054.175-.1.314c-.121.109-.151.169-.1.218a1.646,1.646,0,0,1,.012.877,1.512,1.512,0,0,0-.139.5,1.273,1.273,0,0,0,.042.188c.036.145-.012.2-.5.587l-.538.435-.036.405c-.024.32-.06.429-.163.514-.284.23-.405.127-.665-.526a4.3,4.3,0,0,0-.381-.714c-.218-.333-.242-.351-.423-.314a2.515,2.515,0,0,0-.6.314,1.216,1.216,0,0,0-.623.956c-.054.248-.218.635-.278.635a2.619,2.619,0,0,1-.212-.9,3.962,3.962,0,0,0-.236-.817l-.206-.5-.327.012a1.544,1.544,0,0,0-.581.133c-.29.151-.369.157-.369.036a1.6,1.6,0,0,0-.175-.411,2.875,2.875,0,0,1-.242-.659c-.091-.429-.121-.442-1.083-.387-1.391.073-1.669.109-1.8.218-.1.085-.242.109-.671.115-.514.012-.556.006-.587-.109s-.079-.127-.4-.127c-.284,0-.375-.024-.423-.1a.166.166,0,0,1,.042-.218c.085-.1.079-.139-.109-.526a2.3,2.3,0,0,0-.369-.569,4.089,4.089,0,0,1-.454-.665c-.224-.393-.321-.514-.4-.5-.06.012-.109-.012-.109-.054s-.067-.121-.151-.175c-.133-.091-.145-.127-.115-.357a1,1,0,0,1,.091-.314.623.623,0,0,0-.036-.575.259.259,0,0,0-.212-.042c-.1.024-.121,0-.121-.133a1.419,1.419,0,0,0-.06-.363c-.048-.163-.036-.23.03-.308.085-.091.085-.121-.024-.248-.085-.109-.1-.169-.054-.254.067-.133-.073-.327-.308-.411-.133-.054-.139-.067-.042-.169s.1-.218.073-.8c-.018-.381-.048-.817-.067-.968-.03-.272-.024-.284.3-.587a1.153,1.153,0,0,1,.974-.387l.242-.018.036-.3a2.024,2.024,0,0,1,.212-.683c.006-.012.067.006.133.042.1.054.139.024.278-.182a1.42,1.42,0,0,0,.157-.3c0-.085.139-.067.3.048.139.091.151.091.224-.012a.4.4,0,0,0,.085-.193.834.834,0,0,1,.139-.29c.1-.157.163-.206.254-.182a2.57,2.57,0,0,0,.375.03c.23,0,.254.012.321.212.036.115.109.212.151.212a4.875,4.875,0,0,0,.744-.387,3.93,3.93,0,0,1,.877-.411c.236-.024.272,0,.151.121-.054.054-.054.091,0,.145.1.1.091.157-.042.2s-.429.3-.429.387a1.018,1.018,0,0,0,.218.308c.163.181.206.26.157.321a.655.655,0,0,0,.127.671.453.453,0,0,0,.387.079c.163-.018.278,0,.333.061a.725.725,0,0,0,.714.012c.145-.091.175-.151.194-.4a1.342,1.342,0,0,0-.109-.6l-.127-.3.175.024a2.2,2.2,0,0,1,.4.133c.194.1.242.1.381.024.206-.1.242-.206.272-.714a.951.951,0,0,1,.115-.514c.127-.145.115-.182-.1-.411l-.194-.2.109-.187a.456.456,0,0,0,.079-.266c-.067-.157.206-.151.345.006l.127.151.151-.157c.121-.127.133-.175.073-.26a2.708,2.708,0,0,1-.169-.333c-.091-.206-.121-.23-.266-.2a.308.308,0,0,1-.29-.091c-.151-.139-.218-.145-.314-.024a.35.35,0,0,1-.236.091.385.385,0,0,0-.23.067c-.048.048-.085.006-.139-.157a.433.433,0,0,0-.3-.314,1.789,1.789,0,0,1-.387-.236.617.617,0,0,0-.29-.145.925.925,0,0,1-.375-.23,1.867,1.867,0,0,0-.448-.308.748.748,0,0,1-.266-.163.26.26,0,0,0-.187-.085c-.145,0-.3-.151-.435-.411a.838.838,0,0,0-.435-.357l-.333-.151.175-.1c.1-.061.4-.218.659-.357.5-.26.925-.659.925-.859,0-.121-.218-.429-.3-.429a.566.566,0,0,0-.206.151.515.515,0,0,1-.23.151c-.085-.006-.381-.23-.345-.266.012-.006.175-.054.357-.1.3-.073.333-.1.351-.254.024-.218.212-.29.671-.272s.508-.024.478-.381c-.024-.242-.006-.314.1-.417a.447.447,0,0,1,.23-.121c.054,0,.115-.066.139-.151.048-.187.091-.187.387,0,.242.151.26.236.1.435-.073.1.321.5.5.5a3.356,3.356,0,0,0,.623-.187,2.658,2.658,0,0,1,.708-.181.9.9,0,0,0,.333-.067,1.237,1.237,0,0,1,.4-.109l.272-.03-.006-.278c0-.26.012-.284.242-.417a1.656,1.656,0,0,1,.454-.175c.206-.036.236-.073.363-.393.042-.1.1-.151.121-.121A12.156,12.156,0,0,1,64.234-1692.528Zm-5.014-1.137.206.314-.369.333c-.272.248-.375.387-.393.52s-.048.188-.169.2a3.567,3.567,0,0,0-.466.085c-.3.067-.321.079-.321.26s-.018.193-.284.26c-.163.036-.339.085-.405.109-.1.042-.1.036-.006-.157a.984.984,0,0,0,.079-.55c-.03-.393-.006-.417.381-.417.266,0,.278-.012.314-.472.024-.278.006-.351-.121-.5s-.139-.175-.036-.175a.454.454,0,0,1,.26.151c.109.115.157.133.224.085a.246.246,0,0,0,.079-.157c0-.115.218-.194.55-.194C59.009-1693.98,59.027-1693.968,59.22-1693.665Zm-6.592,2.407a2.184,2.184,0,0,1,.435.169c.151.091.175.091.3-.024a.36.36,0,0,1,.248-.1.314.314,0,0,0,.23-.079c.109-.1.133-.091.472.145.321.23.369.242.538.188a.474.474,0,0,1,.411.024c.254.109.333.085.333-.091,0-.085.079-.151.266-.23s.272-.157.3-.284l.042-.169.127.2c.091.139.163.188.236.169s.115-.006.115.024.127.121.29.2a1.829,1.829,0,0,1,.429.3l.145.157.194-.121c.266-.163.321-.151.145.036a2.06,2.06,0,0,1-.538.351,5.188,5.188,0,0,0-.544.3.694.694,0,0,1-.333.1c-.266,0-.345.1-.242.3a1,1,0,0,0,.6.49.477.477,0,0,1,.345.333.69.69,0,0,0,.514.454.542.542,0,0,1,.248.121.555.555,0,0,0,.242.121,1.041,1.041,0,0,1,.339.236,1.571,1.571,0,0,0,.472.3.846.846,0,0,1,.327.188.6.6,0,0,0,.272.151c.169.036.242.163.242.423,0,.206.109.272.29.175.109-.054.181-.061.236-.018s.121.03.248-.06.194-.1.242-.054c.121.121.079.169-.109.127-.157-.03-.181-.018-.181.1a.616.616,0,0,0,.073.248c.06.1.06.151-.024.284-.091.157-.091.175.018.393.067.127.145.23.181.23s.042.036-.012.1a1.081,1.081,0,0,0-.085.514c-.006.5-.079.6-.3.454a.706.706,0,0,0-.327-.1.406.406,0,0,1-.236-.067.248.248,0,0,0-.224-.03c-.212.054-.236.351-.048.683.163.29.169.732.012.689a1.708,1.708,0,0,0-.218-.03.437.437,0,0,1-.23-.115c-.133-.127-.181-.127-.308-.006-.109.109-.272.073-.272-.067a.582.582,0,0,1,.091-.236c.085-.133.079-.151-.151-.411a2.352,2.352,0,0,1-.242-.308.6.6,0,0,1,.181-.1.382.382,0,0,0,.278-.454.2.2,0,0,1,.054-.212c.145-.121.1-.242-.1-.327-.351-.145-.635-.079-1.318.32l-.635.363-.085-.175c-.085-.169-.109-.181-.429-.181a.966.966,0,0,1-.466-.091c-.157-.109-.2-.073-.5.387-.169.26-.218.3-.308.248-.187-.1-.357-.067-.429.073a.4.4,0,0,0-.06.157.367.367,0,0,1-.048.121c-.054.1-.06.1-.169-.006-.181-.157-.242-.127-.284.145a2.15,2.15,0,0,1-.157.484,1.074,1.074,0,0,0-.121.387c0,.127-.03.151-.163.151a1.306,1.306,0,0,0-.968.442,1.293,1.293,0,0,1-.339.278,1.358,1.358,0,0,1-.127-.218,1.623,1.623,0,0,0-.762-.744c-.278-.133-.308-.163-.3-.327.018-.29.012-.3-.206-.448a.536.536,0,0,1-.248-.363,1.637,1.637,0,0,0-.139-.4c-.079-.133-.085-.181-.024-.2a1.22,1.22,0,0,0,.254-.387c.127-.248.218-.357.3-.357.121,0,.3-.212.3-.357a1.575,1.575,0,0,0-.278-.423,3.073,3.073,0,0,1-.369-.538.537.537,0,0,0-.242-.26l-.157-.06.042-.829a5.327,5.327,0,0,1,.339-1.826c.036-.061.218-.091.665-.109l.617-.024.085-.206a1.411,1.411,0,0,0-.067-1.1c-.218-.478-.187-.5.169-.121A1.174,1.174,0,0,0,52.628-1691.258Zm-3.163,4.185a2.786,2.786,0,0,1,.2.472c.151.448.212.544.363.544a.892.892,0,0,0,.484-.478c0-.06.054-.036.181.085.218.212.23.29.03.381a.991.991,0,0,0-.3.369,1.022,1.022,0,0,1-.284.375c-.218.115-.236.188-.1.411a1.976,1.976,0,0,1,.181.5.664.664,0,0,0,.272.448.4.4,0,0,1,.206.411c0,.254,0,.26.387.448.6.3.81.653.683,1.125-.042.145-.018.181.163.29a.467.467,0,0,1,.218.6.372.372,0,0,0,.006.248c.079.127.067.466-.024.52a.8.8,0,0,0-.175.206c-.1.151-.1.163.03.284a1.172,1.172,0,0,0,.3.188c.115.042.151.091.127.175a.37.37,0,0,0,.042.248c.054.1.048.133-.03.163-.121.048-.115.139.012.278a.786.786,0,0,1,.109.466c.012.429.048.49.278.49.169,0,.175.006.091.133a1.831,1.831,0,0,0-.121.55c-.036.387-.03.411.1.46a.831.831,0,0,1,.278.242.425.425,0,0,0,.254.188c.085,0,.175.115.327.411a1.813,1.813,0,0,0,.363.52,1.237,1.237,0,0,1,.314.405c.139.278.145.321.067.405s-.085.115,0,.339c.145.369.187.4.514.4.224,0,.327.03.4.115.091.1.194.121.8.133.871.012.823.018.95-.121.091-.1.242-.121.986-.157,1.451-.079,1.288-.109,1.367.248a2.28,2.28,0,0,0,.23.581,1.217,1.217,0,0,1,.157.484,3.947,3.947,0,0,0,.067.563,9.578,9.578,0,0,1-.03,1.869c-.054.835-.127,2.214-.163,3.06s-.073,1.548-.079,1.548-1.554.018-3.453.03l-3.441.024-.036-.151a.407.407,0,0,0-.206-.236c-.145-.067-.2-.067-.393.024a1.083,1.083,0,0,0-.732,1.052c0,.32,0,.32-.163.29a3.263,3.263,0,0,1-.411-.121c-.218-.085-.26-.085-.423.012a1.968,1.968,0,0,0-.423.454.978.978,0,0,1-.544.472c-.5.194-.6.339-.689.913a8.866,8.866,0,0,0-.067.962c0,.387-.018.472-.1.472-.127,0-.363.55-.411.968-.067.484-.085.538-.284.635-.169.091-.194.085-.454-.067l-.272-.163-.175.133c-.194.139-.508.169-.587.054a2.812,2.812,0,0,1-.139-.321c-.085-.212-.151-.266-.6-.5a1.642,1.642,0,0,0-.823-.26c-.562,0-.665-.048-.98-.435a2.457,2.457,0,0,0-1.693-.925,2.185,2.185,0,0,0-1.028.169c-.145.073-.327.073-.968.006a1.242,1.242,0,0,0-.623.061,1.248,1.248,0,0,1-.956-.018,1.024,1.024,0,0,1-.581-.417,3.646,3.646,0,0,0-1.451-.974c-.23-.061-.3-.121-.508-.423s-.278-.363-.472-.4a1.952,1.952,0,0,1-.49-.194c-.218-.127-.248-.169-.169-.212a.3.3,0,0,0,.1-.26c0-.187.018-.212.163-.212a.812.812,0,0,0,.363-.133.351.351,0,0,0,.2-.357,1.366,1.366,0,0,0-.091-.435,1.015,1.015,0,0,1,.006-.829.727.727,0,0,1,.617-.454c.145-.03.23-.109.345-.3a1.413,1.413,0,0,1,.333-.387.368.368,0,0,0,.181-.345c0-.109-.024-.224-.06-.242a.44.44,0,0,1-.06-.266.853.853,0,0,0-.133-.429.781.781,0,0,0-.5-.363c-.157-.061-.169-.073-.085-.157a1.282,1.282,0,0,1,.974-.1.247.247,0,0,0,.321-.006.848.848,0,0,0,.236-.284c.067-.121.127-.175.187-.151.139.054.327-.073.393-.266.079-.212.175-.254.363-.157.1.048.151.133.175.308.048.321.091.387.387.52a.926.926,0,0,1,.327.23.373.373,0,0,0,.49.067.619.619,0,0,0,.23-.544c-.018-.067-.012-.133.018-.151a1.491,1.491,0,0,0,.175-.3c.1-.218.157-.272.278-.272a.2.2,0,0,0,.206-.139.613.613,0,0,1,.163-.224.721.721,0,0,0,.206-.726.676.676,0,0,0-.121-.272.775.775,0,0,1-.121-.611c.048-.115.1-.145.26-.145.278,0,.466-.163.7-.6.278-.52.314-.671.218-.992-.073-.236-.073-.278.018-.351a1.807,1.807,0,0,1,1.016-.321c.23-.012.435-.024.46-.024a.458.458,0,0,0,.127-.163l.079-.157.151.218c.187.278.272.3.423.151.115-.115.121-.187.109-1.155l-.012-1.034.333-.308a2.234,2.234,0,0,0,.375-.411c.018-.066-.048-.212-.181-.381a2.936,2.936,0,0,1-.3-.508c-.091-.23-.091-.236.091-.417a.627.627,0,0,0,.187-.3c-.006-.206-.393-.581-.671-.653-.363-.085-.363-.187,0-.236s.508-.2.611-.659a1.326,1.326,0,0,1,.163-.411,2.978,2.978,0,0,0,.254-.544c.1-.248.284-.726.423-1.064a4.508,4.508,0,0,0,.248-.732,3.458,3.458,0,0,1,.067-.448c.036-.175.079-.387.1-.472.03-.151.03-.151.248.1.46.514.853.641,1.125.369.121-.121.145-.236.212-1.131a8.6,8.6,0,0,1,.139-1.107c.06-.121.212-.193.744-.345C49.362-1687.158,49.393-1687.164,49.465-1687.073Zm53.481,9.483a1.1,1.1,0,0,1,.121.393.673.673,0,0,0,.067.278c.042.091.042.145-.006.206s-.109.036-.284-.2c-.121-.157-.3-.369-.393-.478l-.181-.187.23-.127a2.909,2.909,0,0,1,.278-.127A.628.628,0,0,1,102.946-1677.59Zm.532,1.306a.143.143,0,0,1-.175.048c-.054-.03-.048-.054.042-.091C103.533-1676.4,103.581-1676.386,103.479-1676.284Z" transform="translate(0 0)" fill="#f9a932"/>
  </g>
</svg>
