<svg version="1.1" id="Layer_1" xmlns="http://www.w3.org/2000/svg" xmlns:xlink="http://www.w3.org/1999/xlink" x="0px" y="0px"
	 width="100%" viewBox="0 0 222 227" enable-background="new 0 0 222 227" xml:space="preserve">
<path fill="transparent" opacity="1.000000" stroke="none" 
	d="
M223.000000,84.000000 
	C223.000000,132.333328 223.000000,180.166672 223.000000,228.000000 
	C149.000000,228.000000 75.000000,228.000000 1.000000,228.000000 
	C1.000000,152.333328 1.000000,76.666664 1.000000,1.000000 
	C75.000000,1.000000 149.000000,1.000000 223.000000,1.000000 
	C223.000000,28.500000 223.000000,56.000000 223.000000,84.000000 
M162.262863,18.209288 
	C158.725067,16.762722 155.281982,14.993788 151.634018,13.922276 
	C129.152023,7.318644 106.726807,6.360126 83.480797,11.334532 
	C66.582184,14.950662 52.119816,21.611086 40.294281,33.778469 
	C24.464994,50.065338 18.919043,70.528931 18.015467,92.580276 
	C17.887203,95.710487 17.192202,97.891335 14.755333,100.299507 
	C11.967479,103.054535 9.162390,107.050964 8.798286,110.747688 
	C7.939858,119.463264 7.834205,128.391373 8.717622,137.102341 
	C9.656352,146.358749 16.958099,151.933456 26.361214,152.130432 
	C30.828169,152.224014 35.298706,152.146530 39.651340,152.146530 
	C47.316734,165.892273 44.058334,176.683334 21.495655,186.980225 
	C25.409042,187.657806 28.524950,188.197311 32.145992,188.824265 
	C26.931757,196.646896 19.355572,200.730804 11.273124,204.485535 
	C12.903711,205.811432 14.173755,206.882111 15.487414,207.896286 
	C16.142282,208.401871 16.864941,208.824173 17.577335,209.250015 
	C42.107029,223.913315 67.106087,223.369308 92.351707,211.355728 
	C95.471603,209.871063 98.199684,209.435242 101.749428,209.804947 
	C108.603188,210.518738 115.589523,209.873947 122.516518,210.011978 
	C125.338425,210.068207 128.281982,210.285095 130.938736,211.144424 
	C137.864609,213.384583 144.483856,216.897110 151.544556,218.335938 
	C173.795166,222.870117 194.475098,219.224670 212.959579,204.526733 
	C204.776062,200.832718 197.347763,196.849487 192.253128,189.487091 
	C196.909607,188.950684 200.958939,188.484222 205.561310,187.954041 
	C199.511536,184.060440 194.058868,181.119003 189.264420,177.342041 
	C180.472778,170.416214 177.024475,163.911835 184.617325,152.121796 
	C189.243439,152.121796 193.913589,152.358978 198.550522,152.067596 
	C205.970505,151.601303 212.094757,148.182159 214.221970,140.962067 
	C217.513565,129.789856 216.896423,118.288094 214.397797,106.947891 
	C214.091125,105.556053 213.288254,103.853783 212.173462,103.129860 
	C206.218811,99.263138 205.519730,93.443092 205.647522,87.163315 
	C205.681152,85.510658 205.388184,83.844925 205.173050,82.194603 
	C201.507034,54.071152 189.117188,31.739515 162.262863,18.209288 
z"/>
<path fill="#9E1D22" opacity="1.000000" stroke="none" 
	d="
M162.586334,18.400826 
	C189.117188,31.739515 201.507034,54.071152 205.173050,82.194603 
	C205.388184,83.844925 205.681152,85.510658 205.647522,87.163315 
	C205.519730,93.443092 206.218811,99.263138 212.173462,103.129860 
	C213.288254,103.853783 214.091125,105.556053 214.397797,106.947891 
	C216.896423,118.288094 217.513565,129.789856 214.221970,140.962067 
	C212.094757,148.182159 205.970505,151.601303 198.550522,152.067596 
	C193.913589,152.358978 189.243439,152.121796 184.617325,152.121796 
	C177.024475,163.911835 180.472778,170.416214 189.264420,177.342041 
	C194.058868,181.119003 199.511536,184.060440 205.561310,187.954041 
	C200.958939,188.484222 196.909607,188.950684 192.253128,189.487091 
	C197.347763,196.849487 204.776062,200.832718 212.959579,204.526733 
	C194.475098,219.224670 173.795166,222.870117 151.544556,218.335938 
	C144.483856,216.897110 137.864609,213.384583 130.938736,211.144424 
	C128.281982,210.285095 125.338425,210.068207 122.516518,210.011978 
	C115.589523,209.873947 108.603188,210.518738 101.749428,209.804947 
	C98.199684,209.435242 95.471603,209.871063 92.351707,211.355728 
	C67.106087,223.369308 42.107029,223.913315 17.577335,209.250015 
	C16.864941,208.824173 16.142282,208.401871 15.487414,207.896286 
	C14.173755,206.882111 12.903711,205.811432 11.273124,204.485535 
	C19.355572,200.730804 26.931757,196.646896 32.145992,188.824265 
	C28.524950,188.197311 25.409042,187.657806 21.495655,186.980225 
	C44.058334,176.683334 47.316734,165.892273 39.651340,152.146530 
	C35.298706,152.146530 30.828169,152.224014 26.361214,152.130432 
	C16.958099,151.933456 9.656352,146.358749 8.717622,137.102341 
	C7.834205,128.391373 7.939858,119.463264 8.798286,110.747688 
	C9.162390,107.050964 11.967479,103.054535 14.755333,100.299507 
	C17.192202,97.891335 17.887203,95.710487 18.015467,92.580276 
	C18.919043,70.528931 24.464994,50.065338 40.294281,33.778469 
	C52.119816,21.611086 66.582184,14.950662 83.480797,11.334532 
	C106.726807,6.360126 129.152023,7.318644 151.634018,13.922276 
	C155.281982,14.993788 158.725067,16.762722 162.586334,18.400826 
M87.063728,172.355881 
	C78.731880,170.672440 70.400032,168.989014 62.139774,167.320038 
	C62.139774,167.416290 62.042492,167.782928 62.159668,168.058334 
	C62.417812,168.665131 62.712311,169.282349 63.116886,169.797150 
	C72.562775,181.816193 84.063629,191.142059 98.572899,196.360825 
	C102.680573,197.838318 107.164886,200.175659 111.153893,199.653656 
	C118.090187,198.745972 125.298676,196.929672 131.477173,193.727295 
	C161.256149,178.292633 176.807114,153.640320 177.214828,119.876030 
	C177.399231,104.605515 176.268417,102.864891 161.999100,97.279129 
	C153.144867,93.813110 143.976486,91.358040 133.920563,90.972542 
	C135.948181,94.184700 137.597137,96.796967 139.945435,100.517166 
	C127.967903,96.153282 117.364838,92.803757 107.202988,88.429298 
	C98.696838,84.767578 91.997940,78.392952 86.442558,70.935112 
	C85.431129,69.577301 84.389206,68.242195 82.718918,66.055580 
	C80.441910,89.697426 70.277962,105.821014 46.033649,112.348701 
	C47.031082,121.550774 48.025555,131.047699 49.102200,140.535294 
	C49.728790,146.056915 52.977757,149.924316 57.319111,153.040070 
	C67.718513,160.503555 79.716011,162.824234 92.117485,163.794098 
	C92.869797,163.852936 93.947212,163.654907 94.390831,163.151337 
	C98.376747,158.626556 103.135368,157.382812 109.257195,157.087906 
	C115.427750,156.790649 120.324562,157.887253 124.559128,161.940979 
	C128.625565,165.833786 128.427734,171.743027 124.479691,175.695282 
	C117.818909,182.363190 103.756889,183.125656 96.959885,176.587769 
	C94.203629,173.936584 91.447578,172.714218 87.063728,172.355881 
M76.145683,35.496113 
	C87.055634,31.456650 98.052750,29.385893 109.950142,29.089996 
	C124.651421,28.724369 138.352921,30.714602 151.207901,37.339699 
	C171.000381,47.540173 180.992905,65.098457 186.040359,86.020813 
	C186.913345,89.639473 187.688919,93.281639 188.511948,96.923820 
	C191.317703,96.292374 193.465622,95.808975 196.122467,95.211037 
	C195.403976,89.202240 194.973007,83.408707 193.986115,77.711464 
	C188.851654,48.070866 170.308090,28.271595 141.599243,21.647732 
	C121.320801,16.968981 101.021240,16.953085 80.843910,22.094179 
	C59.226803,27.602121 43.214672,40.029434 34.723999,61.076118 
	C30.149191,72.416153 28.102552,84.269630 28.416847,96.512970 
	C35.148548,96.905403 35.827660,96.333763 37.044399,90.310242 
	C41.850441,66.517731 52.592094,46.892849 76.145683,35.496113 
z"/>
<path fill="#FEFCFC" opacity="1.000000" stroke="none" 
	d="
M87.487244,172.425415 
	C91.447578,172.714218 94.203629,173.936584 96.959885,176.587769 
	C103.756889,183.125656 117.818909,182.363190 124.479691,175.695282 
	C128.427734,171.743027 128.625565,165.833786 124.559128,161.940979 
	C120.324562,157.887253 115.427750,156.790649 109.257195,157.087906 
	C103.135368,157.382812 98.376747,158.626556 94.390831,163.151337 
	C93.947212,163.654907 92.869797,163.852936 92.117485,163.794098 
	C79.716011,162.824234 67.718513,160.503555 57.319111,153.040070 
	C52.977757,149.924316 49.728790,146.056915 49.102200,140.535294 
	C48.025555,131.047699 47.031082,121.550774 46.033649,112.348701 
	C70.277962,105.821014 80.441910,89.697426 82.718918,66.055580 
	C84.389206,68.242195 85.431129,69.577301 86.442558,70.935112 
	C91.997940,78.392952 98.696838,84.767578 107.202988,88.429298 
	C117.364838,92.803757 127.967903,96.153282 139.945435,100.517166 
	C137.597137,96.796967 135.948181,94.184700 133.920563,90.972542 
	C143.976486,91.358040 153.144867,93.813110 161.999100,97.279129 
	C176.268417,102.864891 177.399231,104.605515 177.214828,119.876030 
	C176.807114,153.640320 161.256149,178.292633 131.477173,193.727295 
	C125.298676,196.929672 118.090187,198.745972 111.153893,199.653656 
	C107.164886,200.175659 102.680573,197.838318 98.572899,196.360825 
	C84.063629,191.142059 72.562775,181.816193 63.116886,169.797150 
	C62.712311,169.282349 62.417812,168.665131 62.159668,168.058334 
	C62.042492,167.782928 62.139774,167.416290 62.139774,167.320038 
	C70.400032,168.989014 78.731880,170.672440 87.487244,172.425415 
M87.682243,109.948776 
	C82.963226,109.168259 78.336349,109.929565 76.443642,114.550964 
	C75.211929,117.558426 75.117645,121.791252 76.252579,124.824516 
	C77.824142,129.024765 82.016541,130.683197 86.620911,129.895416 
	C91.213493,129.109650 94.005959,126.162292 94.964691,121.695824 
	C96.004005,116.854012 93.746277,113.098145 87.682243,109.948776 
M129.749435,115.608635 
	C127.936478,120.093651 128.767365,124.128822 132.243484,127.381866 
	C135.262451,130.207092 138.978378,130.946808 142.845078,129.308594 
	C147.259567,127.438271 149.539917,123.992355 149.223251,119.131485 
	C148.922165,114.509804 146.452301,111.130737 142.009888,110.129356 
	C137.239441,109.054039 132.851028,110.250549 129.749435,115.608635 
z"/>
<path fill="#FBF6F6" opacity="1.000000" stroke="none" 
	d="
M75.802887,35.661888 
	C52.592094,46.892849 41.850441,66.517731 37.044399,90.310242 
	C35.827660,96.333763 35.148548,96.905403 28.416847,96.512970 
	C28.102552,84.269630 30.149191,72.416153 34.723999,61.076118 
	C43.214672,40.029434 59.226803,27.602121 80.843910,22.094179 
	C101.021240,16.953085 121.320801,16.968981 141.599243,21.647732 
	C170.308090,28.271595 188.851654,48.070866 193.986115,77.711464 
	C194.973007,83.408707 195.403976,89.202240 196.122467,95.211037 
	C193.465622,95.808975 191.317703,96.292374 188.511948,96.923820 
	C187.688919,93.281639 186.913345,89.639473 186.040359,86.020813 
	C180.992905,65.098457 171.000381,47.540173 151.207901,37.339699 
	C138.352921,30.714602 124.651421,28.724369 109.950142,29.089996 
	C98.052750,29.385893 87.055634,31.456650 75.802887,35.661888 
z"/>
<path fill="#A02025" opacity="1.000000" stroke="none" 
	d="
M88.030975,110.029030 
	C93.746277,113.098145 96.004005,116.854012 94.964691,121.695824 
	C94.005959,126.162292 91.213493,129.109650 86.620911,129.895416 
	C82.016541,130.683197 77.824142,129.024765 76.252579,124.824516 
	C75.117645,121.791252 75.211929,117.558426 76.443642,114.550964 
	C78.336349,109.929565 82.963226,109.168259 88.030975,110.029030 
z"/>
<path fill="#A02025" opacity="1.000000" stroke="none" 
	d="
M129.928970,115.250443 
	C132.851028,110.250549 137.239441,109.054039 142.009888,110.129356 
	C146.452301,111.130737 148.922165,114.509804 149.223251,119.131485 
	C149.539917,123.992355 147.259567,127.438271 142.845078,129.308594 
	C138.978378,130.946808 135.262451,130.207092 132.243484,127.381866 
	C128.767365,124.128822 127.936478,120.093651 129.928970,115.250443 
z"/>
</svg>