<svg xmlns="http://www.w3.org/2000/svg" width="80.035" height="79.996" viewBox="0 0 80.035 79.996">
  <g id="_6" data-name="6" transform="translate(0 0)">
    <path id="Path_12048" data-name="Path 12048" d="M5.2-319.608a10.71,10.71,0,0,0-4.825,4.925,10.992,10.992,0,0,0,.175,6.725,9.234,9.234,0,0,0,4.125,4.325c1.25.6,1.675.675,4.1.675l2.675.025,2.975,2.95,2.95,2.95-.875,1.275a28.868,28.868,0,0,0-3.325,24.449,33.69,33.69,0,0,0,3.325,6.9l.875,1.275-1.55,1.55-1.575,1.55-1.85-.9c-2.85-1.375-4.9-1.175-6.6.65-1.7,1.8-1.75,4.1-.15,7.4l.475,1L3.65-249.411c-3.2,3.175-3.75,4.275-3.65,7.15l.075,2.05,2.05.075c2.8.1,4.05-.5,6.875-3.325l2.1-2.1,1.1,1.1c1.25,1.275,2.5,1.55,3,.65.425-.85.275-1.275-.875-2.45a6.72,6.72,0,0,1-1.125-1.3,48.114,48.114,0,0,1,5.55-5.35,11.233,11.233,0,0,0,1.45,1.325c.75.625,1.525,1.25,1.7,1.425a35.405,35.405,0,0,0,6.2,3.75c1.55.625,2.025.7,4.725.7,2.925,0,3.025-.025,4.375-.8a7.593,7.593,0,0,0,3.75-4.65c.275-.9.325-.925,1.45-.925,3.5,0,9.574-2.1,13.2-4.55l1.3-.875,8.075,8.1c9.349,9.349,9.424,9.4,12.8,9.274l2.05-.075.075-1.975c.125-3.175-.125-3.6-5.05-8.575a55.417,55.417,0,0,0-4.675-4.45,1.125,1.125,0,0,0-1.475,1.175c0,.7.525,1.325,3.975,4.825,3.125,3.15,4.05,4.25,4.4,5.2a2.917,2.917,0,0,1,.3,1.35,2.918,2.918,0,0,1-1.35-.3c-1.05-.375-4.925-4.15-31.723-30.923L13.774-304.358l.9-.95.9-.925L40.448-281.41c20.149,20.1,25,24.824,25.524,24.824a1.558,1.558,0,0,0,1.475-1.275,14.949,14.949,0,0,0-2.475-2.825l-2.45-2.45.925-1.4a26.258,26.258,0,0,0,3.875-8.924,21.43,21.43,0,0,0,.7-6.525,32.448,32.448,0,0,0-.275-4.875c-.15-.6-.475-1.9-.7-2.85a25.763,25.763,0,0,0-3.6-7.9l-.9-1.4,2.975-2.975,2.95-2.95,2.675-.025c2.4,0,2.825-.075,4.075-.675a9.234,9.234,0,0,0,4.125-4.325,10.441,10.441,0,0,0,.15-6.65,8.432,8.432,0,0,0-4.95-5,10.323,10.323,0,0,0-6.725.125,9.234,9.234,0,0,0-4.325,4.125c-.6,1.25-.675,1.675-.675,4.1l-.025,2.675-2.95,2.975-2.95,2.95-1.275-.875A30.138,30.138,0,0,0,45.2-307.758a38.122,38.122,0,0,0-10.249-.075,32.01,32.01,0,0,0-10.674,4.3L23-302.658l-2.95-2.95-2.95-2.975-.025-2.675c0-2.425-.075-2.85-.675-4.1a9.234,9.234,0,0,0-4.325-4.125,7,7,0,0,0-3.575-.575A11.877,11.877,0,0,0,5.2-319.608Zm5.325,2.425a6.8,6.8,0,0,1,3.525,3.225,5.488,5.488,0,0,1,.375,2.85,4.259,4.259,0,0,1-.825,2.925,9.663,9.663,0,0,1-1.75,1.75,4.259,4.259,0,0,1-2.925.825A5.162,5.162,0,0,1,4.2-307.383a5.669,5.669,0,0,1-1.125-6.55,5.532,5.532,0,0,1,3.05-3.05A5.374,5.374,0,0,1,10.524-317.183Zm62.971.075a6.15,6.15,0,0,1,3.9,5.925,6.323,6.323,0,0,1-2.575,4.6c-1.2.85-1.3.875-3.5.875-2.1,0-2.325-.05-3.275-.725a9.663,9.663,0,0,1-1.75-1.75,4.26,4.26,0,0,1-.825-2.925,5.231,5.231,0,0,1,1.775-4.75A5.77,5.77,0,0,1,73.5-317.108ZM63.471-301.783l-2.625,2.7-.95-.925-.95-.925,2.625-2.65,2.65-2.675.95.9.925.9Zm-25.624-3.125c-1.025,4.675-.6,11.749.975,15.474.275.7.3.975.05,1.375-.15.25-.4.475-.55.475a20.555,20.555,0,0,1-2.8-2.575c-2.025-2.05-2.6-2.775-2.825-3.65a50.258,50.258,0,0,1-.125-9.574c.2-1.275-.025-1.125,3-1.8C37.923-305.708,38.023-305.708,37.848-304.908Zm5.95-.375,1.45.275-.175,2.775-.175,2.8.65.35a1.091,1.091,0,0,0,1.25.025c.475-.275.65-.65.875-2.025a22.111,22.111,0,0,0,.275-2.475v-.75l1.8.75c2.875,1.175,3,1.3,2.825,2.675A34.442,34.442,0,0,1,49.2-289.909a35.011,35.011,0,0,1-4.85,7.05l-.8.775-1.675-1.7L40.2-285.459l.875-1c1.95-2.2,4.475-6.5,4.775-8.075a1.239,1.239,0,0,0-.35-1.35c-.75-.75-1.625-.45-2.175.725a29.467,29.467,0,0,1-1.9,3.675c-.35.4-.525,0-1-2.15a33.078,33.078,0,0,1-.25-9.2c.125-.475.3-1.3.4-1.825.125-.85.225-.925.975-.925A13.015,13.015,0,0,1,43.8-305.283Zm-13.949,2.825a28.485,28.485,0,0,0-.175,3.675v2.8l-2.35-2.35c-2.675-2.675-2.725-2.25.325-4.025C29.748-303.583,30.048-303.608,29.848-302.458Zm28.273,4.575c1.1,1.125,1.25,1.575.85,2.6-.125.325-.425,1.25-.65,2.075a42.784,42.784,0,0,1-3.25,7.775c-1.6,2.925-5.7,8.35-6.3,8.35A14.257,14.257,0,0,1,45.7-280.26c0-.175.1-.325.2-.325a25.166,25.166,0,0,0,3.525-4.3,47.251,47.251,0,0,0,4.075-8.2,40.831,40.831,0,0,0,1.575-6.425l.175-1.05.9.8C56.647-299.309,57.522-298.459,58.122-297.884Zm-35.048,6.925a47.328,47.328,0,0,0,2.125,7.5c.825,1.775,1.225,3.15.925,3.225a11.768,11.768,0,0,1-3.4.65c-.55,0-1.025-.125-1.025-.25a7.35,7.35,0,0,0-.475-1.325,42.734,42.734,0,0,1-2.15-6.675c-.225-1.025-.5-2.35-.65-2.925-.35-1.625-.275-2.5.35-3.45l.55-.85,1.825,1.8A10.483,10.483,0,0,1,23.074-290.959Zm39.073-1.575a24.341,24.341,0,0,1,1.425,3.025c.55,1.375.625,1.825.425,2.25-.15.3-.65,1.4-1.125,2.45a50.74,50.74,0,0,1-6.95,10.849c-.375.4-.975,1.075-1.325,1.5l-.65.75-1.6-1.6-1.6-1.6,1.9-2.275a40.021,40.021,0,0,0,5.8-9.025c1.325-2.725,2.75-6.5,2.75-7.3C61.2-294.059,61.4-293.859,62.146-292.534ZM17.8-282.585c.375,1.025.8,2.2.9,2.575l.225.725-1.3-.175c-.725-.075-1.725-.2-2.225-.275l-.95-.15v-1.325a25.936,25.936,0,0,1,1.275-6.75l.3-1,.55,2.25C16.874-285.484,17.424-283.609,17.8-282.585Zm13.9.05a5.37,5.37,0,0,1-2.325,1.2c-.35,0-1.925-3.15-1.925-3.825a1.035,1.035,0,0,0-.225-.575,3.826,3.826,0,0,1-.375-1.1c-.15-.85-.075-.775,2.35,1.625A28.476,28.476,0,0,1,31.7-282.535Zm33.748,2.125c0,2.7-.55,6.475-1,6.925-.15.15-.925.125-2.175-.075-2.425-.375-2.95-.525-2.625-.75a52.215,52.215,0,0,0,4.5-6.95,6.5,6.5,0,0,1,1.125-1.825A10.215,10.215,0,0,1,65.446-280.41Zm-28.7,3.875a41.127,41.127,0,0,1-6.175,2.925,31.082,31.082,0,0,1-9.4,1.7,35.39,35.39,0,0,1-4.55-.025c-.825-.15-.925-.275-1.275-1.475-.2-.725-.425-1.8-.525-2.425l-.175-1.125h4.975a29.711,29.711,0,0,0,6.2-.35,33.944,33.944,0,0,0,6.4-2.35l1.6-.825,1.8,1.75,1.8,1.75Zm4.425,3.3,1.575,1.575-1.85,1.125a51.337,51.337,0,0,1-7.65,3.7,1.421,1.421,0,0,0-.875,1.975c.3.475,2.225.525,3.125.1.325-.15,1.65-.8,2.95-1.425a29.981,29.981,0,0,0,4.875-2.725,4.462,4.462,0,0,1,1.25-.675,8.9,8.9,0,0,1,1.8,1.55l1.55,1.575L46-265.161a55.146,55.146,0,0,1-11.674,5.6,39.514,39.514,0,0,1-6.35,1.475c-.925,0-2.825-1.075-4.275-2.425a4.39,4.39,0,0,0-1.05-.825c-.125,0-.2-.175-.2-.375,0-.275.3-.375,1.3-.375a15.615,15.615,0,0,0,4.95-.85c.475-.225.625-.475.625-1.125,0-1.3-.425-1.425-3.4-.95a36.02,36.02,0,0,1-4.475.425H19.574l-1.3-2.2a19.074,19.074,0,0,1-1.325-2.4c0-.125.65-.15,1.425-.1a41.622,41.622,0,0,0,9.074-.675,31.675,31.675,0,0,0,4.375-1.25c.55-.225,1.225-.475,1.5-.55a53.454,53.454,0,0,0,5.5-2.85C39.248-275.035,39.573-274.835,41.173-273.235Zm18.874,2.025a18.328,18.328,0,0,0,2.7.375h.95l-.6,1.325a23.971,23.971,0,0,1-1.575,2.875l-.975,1.55L58.2-267.46l-2.35-2.35.5-.575c.3-.325.675-.775.875-1a.771.771,0,0,1,.7-.325A21.728,21.728,0,0,0,60.047-271.21Zm-5.925,11.024a43.032,43.032,0,0,1-5.35-1.925c-1.4-.65-1.6-.85-.875-1.075a4.819,4.819,0,0,0,1.15-.775l.75-.65,2.2,2.2C53.2-261.211,54.147-260.211,54.122-260.186Zm-34.348,2.15a7.661,7.661,0,0,1-1.375,1.2,4.392,4.392,0,0,1-1.075-.8l-.9-.775,1.325-1.35,1.3-1.325.95.925.95.925Zm27.2-1.925c1.3.6,3,1.3,3.775,1.55a4.029,4.029,0,0,1,1.45.625,26.8,26.8,0,0,1-4.975,2.1c-1.05.325-1.125.325-3-.6-2.2-1.075-4.325-2.325-4.2-2.45.05-.05,4.45-2.3,4.575-2.35C44.622-261.086,45.7-260.586,46.972-259.961ZM12-258.136a7.428,7.428,0,0,1-1.8,2.175c-2.175,2.175-2.225,2.175-2.75.375-.525-1.825-.2-2.825,1.075-3.375.7-.275.95-.275,2.025.15A6.724,6.724,0,0,1,12-258.136Zm15.449,3.275c3.125,1.525,7.575,2.775,9.924,2.775,1.05,0,1.05,0,.8.725a5.348,5.348,0,0,1-1.025,1.5c-1.225,1.25-2.3,1.65-4.575,1.625a7.007,7.007,0,0,1-3.975-.925,39.5,39.5,0,0,1-7.3-5.025l-.85-.75,1.3-1.275,1.3-1.275,1.25.85A31.508,31.508,0,0,0,27.448-254.861Zm9.624-2.475a14.179,14.179,0,0,0,2.2,1.45l2.025,1.175-1.8.075a24.154,24.154,0,0,1-6.775-1l-1.1-.325,2.1-.6c1.15-.325,2.275-.7,2.475-.8C36.7-257.636,36.9-257.636,37.073-257.336Zm-21.524,1.8.925.825-5.825,5.775c-4.75,4.675-6.025,5.825-6.9,6.1a2.537,2.537,0,0,1-1.2.175c-.1-.1.025-.7.275-1.35.35-.975,1.45-2.2,5.975-6.775,3.025-3.05,5.575-5.55,5.675-5.55A7.317,7.317,0,0,1,15.549-255.536Z" transform="translate(0.067 320.11)" fill="#fff"/>
  </g>
</svg>
