<svg xmlns="http://www.w3.org/2000/svg" width="80" height="80.108" viewBox="0 0 80 80.108">
  <g id="Group_7983" data-name="Group 7983" transform="translate(-1606 -1290)">
    <g id="_1" data-name="1" transform="translate(1606 1290)">
      <path id="Path_11982" data-name="Path 11982" d="M475.289-577.5a15.984,15.984,0,0,0-10.587,6.579,8.813,8.813,0,0,0-1.512,3.236,1.144,1.144,0,0,0,1.648.983,3.091,3.091,0,0,0,.711-1.028,13.15,13.15,0,0,1,6.095-6.155,11.222,11.222,0,0,1,5.823-1.24,9.572,9.572,0,0,1,3.524.393,13.014,13.014,0,0,1,8.2,7.093,14.211,14.211,0,0,1,.3,10.647,32.8,32.8,0,0,1-6.034,10.042c-1.754,2.117-5.732,6.049-6.095,6.049-.333,0-5.4-5.112-6.73-6.806A39.383,39.383,0,0,1,466.548-554a17.873,17.873,0,0,1-2.087-6.791c-.212-2.057-.242-2.148-.756-2.42a1.072,1.072,0,0,0-1.467.333c-.2.287-.227.65-.151,1.906.272,4.961,3.131,10.692,8.242,16.56l.817.938-.439.166c-2.889,1.18-4.28,2.526-4.28,4.159a4.14,4.14,0,0,0,1.331,2.631c2.178,1.815,7.123,2.858,11.615,2.435,3.69-.348,6.412-1.27,7.8-2.677a3.262,3.262,0,0,0,1.1-2.783c-.227-1.376-1.739-2.813-3.66-3.509a3.059,3.059,0,0,1-.953-.454,6.484,6.484,0,0,1,.8-.983,41.429,41.429,0,0,0,5.928-8.59c3.191-6.579,3.085-12.674-.3-17.77a16.24,16.24,0,0,0-9.528-6.428A19.773,19.773,0,0,0,475.289-577.5ZM473.7-540.961c.272.3,1.119,1.044,1.845,1.664,1.951,1.648,1.815,1.664,4.809-1.028l1.3-1.164.968.272c1.815.514,3.312,1.452,3.312,2.042,0,.8-1.664,1.8-4.008,2.39a15.505,15.505,0,0,1-4.613.348,15.236,15.236,0,0,1-4.537-.348c-3.1-.817-4.6-2.087-3.584-3.01a11.442,11.442,0,0,1,3.9-1.694A2.362,2.362,0,0,1,473.7-540.961Z" transform="translate(-412.716 577.589)" fill="#fff"/>
      <path id="Path_11983" data-name="Path 11983" d="M523.293-520.653a7.256,7.256,0,0,0-4.22,3.569,6.785,6.785,0,0,0,4.492,9.573A6.785,6.785,0,0,0,531.913-515a7.071,7.071,0,0,0-4.87-5.671A8.264,8.264,0,0,0,523.293-520.653Zm3.9,2.647a4.384,4.384,0,0,1,1.21,6.987,4.172,4.172,0,0,1-3.191,1.376,4.338,4.338,0,0,1-4.053-2.526,3.334,3.334,0,0,1-.348-1.921,3.461,3.461,0,0,1,.408-2.057,4.38,4.38,0,0,1,3.206-2.329A4.263,4.263,0,0,1,527.195-518.006Z" transform="translate(-460.523 529.453)" fill="#fff"/>
      <path id="Path_11984" data-name="Path 11984" d="M152.073-417.46a19.5,19.5,0,0,0-8.484,3.6,20.184,20.184,0,0,0-6.927,9.3,21.711,21.711,0,0,0-.151,12.931c1.5,5.308,5.021,11.176,10.012,16.7a13.225,13.225,0,0,1,1.225,1.482,10.843,10.843,0,0,1-1.044.378c-2.374.8-4.325,2.193-5.006,3.569a3.616,3.616,0,0,0-.015,2.964c1.376,3.131,8.333,5.278,15.532,4.794,7.078-.469,11.872-2.995,11.872-6.261-.015-1.679-1.346-3.267-3.675-4.371a17.261,17.261,0,0,0-2.1-.847l-.726-.2.832-.923a41.909,41.909,0,0,0,4.4-5.626,1.087,1.087,0,0,0-1.165-1.27c-.544,0-.65.076-1.316.938a87.514,87.514,0,0,1-9.513,10.072l-.635.5-1.331-1.195c-8.817-7.94-14.352-16.409-15.638-23.941A17.316,17.316,0,0,1,153.1-415.222a16.527,16.527,0,0,1,8.8,1.24,17.132,17.132,0,0,1,10.511,14.216,17.686,17.686,0,0,1-.3,5.55,31.76,31.76,0,0,1-3.342,8.741,4.231,4.231,0,0,0-.59,1.422A1.332,1.332,0,0,0,169.3-382.9c.6,0,1.074-.56,2.117-2.571a29.545,29.545,0,0,0,3.282-9.936,27.1,27.1,0,0,0-.242-6.7,19.835,19.835,0,0,0-15.2-15.2A27.2,27.2,0,0,0,152.073-417.46ZM151.044-370.3a34.428,34.428,0,0,0,3.69,3.131,1.032,1.032,0,0,0,.711.076,22.156,22.156,0,0,0,4.053-3.3,4.4,4.4,0,0,1,1.391-1.013,16.718,16.718,0,0,1,3.584,1.165c2.919,1.482,2.949,2.979.061,4.446-4.567,2.3-13.415,2.374-18.315.166-1.24-.56-2.541-1.754-2.541-2.329,0-1.044,2.163-2.5,4.794-3.221C149.683-371.515,149.774-371.484,151.044-370.3Z" transform="translate(-135.603 441.785)" fill="#fff"/>
      <path id="Path_11985" data-name="Path 11985" d="M215.806-344.635c-1.618.333-3.478,1.331-3.766,2.011a1.1,1.1,0,0,0,1.059,1.543,3.409,3.409,0,0,0,1.119-.439,6.191,6.191,0,0,1,8.893,2.677,4.3,4.3,0,0,1,.484,2.526,5.119,5.119,0,0,1-1.543,4.159,6.076,6.076,0,0,1-8.878.212,6.141,6.141,0,0,1-1.739-5.505c.166-1,.166-1.1-.121-1.482a1.271,1.271,0,0,0-1.6-.3,5.018,5.018,0,0,0-.711,2.919,8.573,8.573,0,0,0,6.594,8.333,8.938,8.938,0,0,0,6.533-1.134,9.1,9.1,0,0,0,3.962-7.123,8.8,8.8,0,0,0-4.855-7.683A7.756,7.756,0,0,0,215.806-344.635Z" transform="translate(-197.9 380.017)" fill="#fff"/>
      <path id="Path_11986" data-name="Path 11986" d="M445.8-330.6a1.118,1.118,0,0,0-.318,2c.348.257.529.287,1.558.181,1.346-.121,1.739-.393,1.739-1.18,0-.756-.423-1.074-1.558-1.119A5.265,5.265,0,0,0,445.8-330.6Z" transform="translate(-398.228 368.036)" fill="#fff"/>
      <path id="Path_11987" data-name="Path 11987" d="M412.243-317.327a4.743,4.743,0,0,0-1.633,1.815,1.048,1.048,0,0,0,1.059,1.467c.5,0,.65-.106,1.331-.862.635-.7.771-.968.771-1.406A1.05,1.05,0,0,0,412.243-317.327Z" transform="translate(-368.965 356.764)" fill="#fff"/>
      <path id="Path_11988" data-name="Path 11988" d="M401.378-280.539c-.3.287-.378.514-.378,1.165,0,1.316.242,1.921.847,2.178a.839.839,0,0,0,.968-.015c.56-.287.665-.726.56-2.027-.076-.817-.166-1.059-.484-1.346A1.01,1.01,0,0,0,401.378-280.539Z" transform="translate(-360.882 325.75)" fill="#fff"/>
      <path id="Path_11989" data-name="Path 11989" d="M417.168-243.794c-.786.6-.529,1.6.65,2.465.968.711,1.558.756,2.072.166.635-.741.454-1.225-.877-2.223C418.2-243.99,417.622-244.127,417.168-243.794Z" transform="translate(-374.223 294.401)" fill="#fff"/>
      <path id="Path_11990" data-name="Path 11990" d="M454.364-229.652a1.109,1.109,0,0,0,.015,1.588c.3.287.529.333,1.588.333,1.452,0,1.845-.242,1.845-1.134,0-.877-.439-1.134-1.89-1.134C454.833-230,454.652-229.955,454.364-229.652Z" transform="translate(-405.903 282.542)" fill="#fff"/>
      <path id="Path_11991" data-name="Path 11991" d="M495.369-229.607a1.079,1.079,0,0,0,.03,1.543c.3.287.529.333,1.588.333,1.452,0,1.845-.242,1.845-1.134,0-.907-.393-1.134-1.875-1.134C495.763-230,495.657-229.97,495.369-229.607Z" transform="translate(-440.725 282.542)" fill="#fff"/>
      <path id="Path_11992" data-name="Path 11992" d="M536.318-229.607a1.467,1.467,0,0,0-.318.741,1.467,1.467,0,0,0,.318.741c.287.363.393.393,1.558.393,1.361,0,1.8-.181,1.966-.832a1.422,1.422,0,0,0-.59-1.346,8.283,8.283,0,0,0-1.437-.091C536.711-230,536.6-229.97,536.318-229.607Z" transform="translate(-475.476 282.542)" fill="#fff"/>
      <path id="Path_11993" data-name="Path 11993" d="M577.479-229.622a1.016,1.016,0,0,0-.06,1.5c.287.378.378.393,1.633.393,1.376,0,1.633-.106,1.875-.786a1.434,1.434,0,0,0-.5-1.331,4.67,4.67,0,0,0-1.437-.151C577.978-230,577.8-229.955,577.479-229.622Z" transform="translate(-510.384 282.542)" fill="#fff"/>
      <path id="Path_11994" data-name="Path 11994" d="M617.732-221.641a1.22,1.22,0,0,0-.544,1.361,3.967,3.967,0,0,0,2.329,1.618,1.05,1.05,0,0,0,1.119-1.013c.015-.6-.181-.862-1.3-1.588C618.352-221.9,618.276-221.913,617.732-221.641Z" transform="translate(-544.36 275.589)" fill="#fff"/>
      <path id="Path_11995" data-name="Path 11995" d="M644.979-191.786a1.267,1.267,0,0,0-.423.575c-.151.363-.136.59.121,1.316a6.585,6.585,0,0,0,.544,1.225,1.1,1.1,0,0,0,1.951-.287,4.033,4.033,0,0,0-.847-2.632A1.123,1.123,0,0,0,644.979-191.786Z" transform="translate(-567.54 250.223)" fill="#fff"/>
      <path id="Path_11996" data-name="Path 11996" d="M647.786-151.694a4.582,4.582,0,0,0-.786,2.42,1.056,1.056,0,0,0,1.1,1.1c.635,0,.938-.318,1.24-1.3.348-1.149.3-1.8-.166-2.163A1.013,1.013,0,0,0,647.786-151.694Z" transform="translate(-569.696 216.277)" fill="#fff"/>
      <path id="Path_11997" data-name="Path 11997" d="M622.95-115.38c-1.164.938-1.391,1.6-.726,2.223.59.56,1.18.439,2.208-.423.8-.665.923-.832.923-1.286A1.06,1.06,0,0,0,624.236-116,2.085,2.085,0,0,0,622.95-115.38Z" transform="translate(-548.354 185.771)" fill="#fff"/>
      <path id="Path_11998" data-name="Path 11998" d="M584.825-98.659c-.892.136-1.225.454-1.225,1.165,0,.832.454,1.119,1.709,1.119,1.134,0,1.648-.212,1.966-.771a.78.78,0,0,0,.03-.847C587-98.75,586.474-98.886,584.825-98.659Z" transform="translate(-515.885 171.137)" fill="#fff"/>
      <path id="Path_11999" data-name="Path 11999" d="M419.811-97.562a1.145,1.145,0,0,0-.484,1.83c.272.333.408.363,1.588.363,1.134,0,1.331-.045,1.618-.333a1.152,1.152,0,0,0,.03-1.588c-.242-.242-.56-.318-1.361-.363A4.856,4.856,0,0,0,419.811-97.562Z" transform="translate(-376.201 170.207)" fill="#fff"/>
      <path id="Path_12000" data-name="Path 12000" d="M460.615-97.678a1.081,1.081,0,0,0,.06,2.011,3.572,3.572,0,0,0,2.783-.2,1.206,1.206,0,0,0,.015-1.618A3.722,3.722,0,0,0,460.615-97.678Z" transform="translate(-410.929 170.383)" fill="#fff"/>
      <path id="Path_12001" data-name="Path 12001" d="M501.8-97.766a1.038,1.038,0,0,0-.363,1.694c.287.378.378.393,1.633.393,1.074,0,1.376-.045,1.558-.272a1.122,1.122,0,0,0-.287-1.83A4.982,4.982,0,0,0,501.8-97.766Z" transform="translate(-445.882 170.44)" fill="#fff"/>
      <path id="Path_12002" data-name="Path 12002" d="M542.479-97.622a1.016,1.016,0,0,0-.06,1.5c.287.363.393.393,1.573.393,1.528,0,1.951-.242,1.951-1.134,0-.877-.423-1.134-1.906-1.134C542.978-98,542.8-97.955,542.479-97.622Z" transform="translate(-480.67 170.493)" fill="#fff"/>
      <path id="Path_12003" data-name="Path 12003" d="M378.273-96.667a1.107,1.107,0,0,0,.091,1.618c.318.257.62.318,1.5.318,1.361,0,1.89-.318,1.89-1.149,0-.892-.393-1.119-1.89-1.119C378.742-97,378.545-96.955,378.273-96.667Z" transform="translate(-341.33 169.644)" fill="#fff"/>
    </g>
  </g>
</svg>
